<svg id="Layer_1" width="100%" height="100%" data-name="Layer 1" xmlns="http://www.w3.org/2000/svg" xmlns:xlink="http://www.w3.org/1999/xlink" viewBox="0 0 942.15 40"><defs><style>.cls-1,.cls-2{fill:none;}.cls-2{clip-rule:evenodd;}.cls-3{clip-path:url(#clip-path);}.cls-4{clip-path:url(#clip-path-2);}.cls-5{isolation:isolate;}.cls-6{clip-path:url(#clip-path-3);}.cls-7{clip-path:url(#clip-path-4);}.cls-8{clip-path:url(#clip-path-5);}.cls-9{fill:#ffffff;}</style><clipPath id="clip-path"><rect class="cls-1" x="-20" width="975" height="31.13"/></clipPath><clipPath id="clip-path-2"><rect class="cls-1" x="-20" y="-698.01" width="975" height="1677.84"/></clipPath><clipPath id="clip-path-3"><rect class="cls-1" x="-1058.98" y="-1.64" width="2659.92" height="452.23"/></clipPath><clipPath id="clip-path-4"><path class="cls-2" d="M1387.61,135.66h2.64c-.23,2.43,3.11,3.56-2.62,3.73C1388.4,137,1385.15,137.09,1387.61,135.66ZM1333.5,124c-.93-2.79,10-1.86,7.91.7C1338.71,126.32,1336.2,124.54,1333.5,124Zm-4.4,243.32c2.35-.1,2.77.9,5.25.72,1.11,2.1-1.85,1.93-1.3,3.72C1331.39,370.5,1328.6,369.86,1329.1,367.34ZM1312.79,229c.55-1.65,7-.62,7.9-.05-.86,1-2.8,1.41-5.26,1.52C1315.91,229.24,1314.4,229.11,1312.79,229Zm-8.66,147.36c-1.07-3.57,5-3.11,7.87-4.5.59-5.9-4.54-7.46,1.28-11.17,5-.36,6.18,1.43,9.21,2.19,1.27,6.38.61,6.41-2.58,11.92-3.52.74-10.3-.33-9.2,3C1309,377.1,1305.86,377.14,1304.13,376.39Zm-88-242.1c-.61-2.33,2.81-2.39,6.59-2.27-.17,1.34,1.63,1.56,1.33,3C1220.83,135.1,1217.73,135.14,1216.15,134.29Zm-47.51,249.49c4.26-1,10.25-1,7.88-3.75,9.88-.92,13.51,8.18,5.32,11.12C1176.61,389.19,1168.69,388.74,1168.64,383.78ZM1126,56.63c-3.89-1.28,3-2.73,6.59-2.27C1133.91,58,1126.15,55.46,1126,56.63ZM1075.82,48c.56-1.67,6.51-.34,9.25-.81C1084.53,51.41,1080.86,47.39,1075.82,48Zm-5.18,14.16c.14-1.64,5.59-.34,7.9-.78C1078.54,63.38,1072.33,63.14,1070.64,62.13Zm-21.43,362.48c7.55-1.14,14.88,1.71,22.34-1.62,4.65-.18,2.63,3.48,7.9,2.93,1.27,1.38-3.92,2.51,0,3-6.63,2-11,1.91-18.38,2.34-1.71-1-1.71-2.74,0-3.73C1056.93,426.65,1051.94,426.27,1049.21,424.61Zm-42,9.15c3.22-3.05,6.74.63,11.85.68.6,2.08-7.19-.54-6.57,1.52C1009,436.2,1011.41,433.09,1007.19,433.76Zm-31.71-389c1-1.71,8.16-.76,6.6,1.46a12.07,12.07,0,0,1-5.27.77C976.93,46,977,44.91,975.48,44.79Zm-42.24,1c-.93-2.74,2.08-3.3,6.58-3,1,2-2.6,1.51-2.62,3,10.54,2.11,21.31-.21,25.13,5.07-9.24-1.12-12.77.68-19.8,2.34-1.76-.73-2.6-2-5.29-2.2,2-1.75,3.22-1.16,6.58-.79C942.68,47.35,939.1,45.91,933.24,45.77Zm-8-6.65c.33-1.75,5.79-.46,6.59,0C930.85,41.69,927.26,40,925.28,39.12Zm5.31,2.94c1.14,2.38-2.08,2.32-2.62,3.74-7.46-.85-9.27-.3-17.18-.65,7.46,3.54-16.55,2.51-18.46.1C904.83,42.05,921.86,45.86,930.59,42.06Zm-4.74,72.21c3,1.36,11.22-1.23,13.22,2.15,2.84-.64,4.48-2,9.22-1.53.75,1.54,3.77,2.38,1.34,3.71-3,.24-1.49-2.14-4-2.21-3.07.23-3.06,2,0,2.23-13.43,1.42-20,1.66-31.66.17,2.93-.68,6.08-3.2,9.22-1.54.09-4.6-6.15-1.93-9.24-.69-.35-.91-5-2.94-2.67-3-.19-2.36,6.56-.09,10.55-1.56-3.61-2.15-15.12.52-17.16-.65.88,1.81,2.7,3.82-2.6,3.74.75-5.17-5.89-6.1-13.25-6.62a3,3,0,0,0,1.29-3c14.3,2.51,43.92-2.7,63.32-1.09.19,1.33-1.6,1.57-1.29,3,4.22-.38,4.64-2.86,9.21-3l0,3c2.36.08,2.78-.93,5.27-.77,3-.43-1.61-1.15,1.3-2.24l6.61,0c-.21.87.3,1.33,1.33,1.49-2.5,1.57-3.58,3.94-9.21,3.77a3,3,0,0,1,1.33,3c-3.09-1.47-7.42,1.42-10.56-.69a3.27,3.27,0,0,0-2.61,3A187.52,187.52,0,0,0,925.85,114.27ZM880.47,49.78c8.72-2,28.13,0,43.56-1.73-9.14,5.84-24.28,1.75-38.26,3.19C887.07,49,882.82,49.93,880.47,49.78Zm5.78,59.5,6.6,0c-.82.66-1.59,1.34,0,1.48-.28,1.08-3.92.28-3.94,1.52C886.58,112.06,885.88,111,886.25,109.28Zm-13.2.08c-2.07-.26,1.14-1.33-1.32-1.49,2.6-3.38,11.2-.22,15.81-.09C886,111.66,875.68,107,873.05,109.36ZM850.12,50c9.75-1.85,31.93-.78,26.42,2.83C869.91,49.68,860.89,53,850.12,50Zm-5.27,3c-4.62-.18,3.3-2.8-1.33-3,1.27-2.28,4.45.31,5.27.71C849.23,52.43,845,51.56,844.85,53ZM878.08,80.3c0,.72,1.63.56,2.65.73-.29,1.07-3.94.29-4,1.51,1.42,1.69,8.31.24,11.88.68-5.54,3.5-19,2.51-23.69,4.6a2.75,2.75,0,0,1-.05-4.46c-1.2-2.5-2.95-.08-5.3-1.46-3.68,1,4.18,1.5,2.68,3.7-10.17.11-12.43-.85-17.14,1.59-4.22-1.08.21-1.22-7.93-.69-.71-5.17,8.46-1.13,11.85-3-4.44-3.12-17.15,2.87-17.17-2.14,16.46.7,37.18-4.91,55.42.42C884.54,83.25,883,79.82,878.08,80.3ZM827.66,48.6c.88-1.73,4.36-2,5.24-3.75,1.79,2.22,11.33,0,11.92,2.91C839,45.61,834.44,50.19,827.66,48.6Zm-7.82,11.21c-.25.6-1.32.75-1.3,1.49,16.78,0,18.61-1.06,33-2.42,5.36,7.67-25.29,6-32.94,6.9C813,63.83,812,60.81,819.84,59.81Zm-13.16,4.54c.08-2,3-3.59,5.25-2.26C812.37,64.05,809.2,64,806.68,64.35Zm36.71-28.49-6.6,0c21.47-2.44,50.5-3.68,76.58-.43,1.43-.2.89-1.49,2.62-1.52a49,49,0,0,1,7.94,1.46c-.28,2.31-6.56,1.28-10.56,1.54-.1,1.06-.19,2.1,1.35,2.22-12.93,1.58-36-.28-55.42,4-4.3-.77-8.33-1.71-10.6-3.65-3.86.66.81,2.39,0,3.72-3.35.59-6.09-2.87-7.91-.7-3.86-.63-1.51-1.1-1.36-3-6.67,1.16-11.54,2.09-15.83,1.58-1.33,2.5,4.12,1.13,6.62,1.44-4.12,2.64-13.44,1.67-17.16.1-1-2.83,6.14-4.92-1.37-5.19,5.8-2.63,20.94,2.36,23.75-.89-10-1.75-27.81,1-33-3.53,14.07-3.33,25.86.92,40.93-.23Zm-40.8,13.63c.4-1.74,2-2.8,1.27-5.21,7.31.51,10.46,2.15,18.51,3.61C818,51.17,810.63,48.24,802.59,49.49ZM792.47,386.61c.11-2.9,5.69-2.75,10.49-3,.18,1.33-1.59,1.58-1.28,3C798.73,384.86,796.55,386.85,792.47,386.61Zm-19-345.12c1.31-1.25,5.59-.85,7.9-1.54-.16,1.33,1.62,1.55,1.34,3C777.46,43.68,778.73,40.71,773.48,41.49Zm-2.25,43.16c14.77-3.35,38-1.27,52.78-1.05,3.31-.77-1.09-3.3-4-2.95,1.31-2.11,5.59.17,7.91-.06.17,1.34-1.6,1.59-1.29,3,.57,1.66,6.49.26,9.22.7-17.9,7.31-36.14,1.86-63.3,2.59C772.68,85.82,772.77,84.77,771.23,84.65ZM757.84,63.9c-.16-3.35,4,.3,7.92-.8C763.92,65,761.21,64.45,757.84,63.9Zm-.92,319.21c11.06-2.3,19.83,2,32.9-.2-1.31,1.83-.44,1.59-1.29,4.47-6.12-2.36-18.79-3.78-21-.61-2.32-.17-3-1.27-2.65-3-3.82.66-1.47,1.11-1.3,3C759.74,386.47,760.4,383.6,756.92,383.11Zm-17.09,1.59v-2.23c6.4-1.78,9.78.49,17.1,1.38C751.6,385.72,746.22,383.18,739.83,384.7ZM736,391.42a3,3,0,0,0,1.26-3c4-.58,2.56,2,6.6,1.46C743.72,391.78,739.45,391.38,736,391.42ZM730.07,57.36c.95-1.68,7.39-.33,10.54-.81C738.25,60.21,735.49,57.57,730.07,57.36ZM725.72,420.5c7.32-3.48,19.23.27,26.3-.9a6,6,0,0,0-3.92,4.48c-6.64-.1-11.57-2.85-17.09-1.39C729.84,421.62,729.92,419.82,725.72,420.5ZM720,372.17c2.45-1.36,14.39-1.82,11.87,2.15C727.68,372.34,724.53,372.66,720,372.17Zm.54,55.06c-1-2.87,6.27-2.91,5.26,0Zm-4-5.19c.92-1.66,6.16-2.52,7.88-1.53C723.21,421.82,720.32,422.17,716.53,422ZM795.9,39.86c10.88,5.09,3.5,8.38-11.81,7.51,1.13,1.1,4.25,1.05,6.61,1.45.65,2.35-6.05.6-6.58,2.27-1.8-.22-1.12-1.87-1.34-3C770,49,769,49.33,755.07,49.78c-1.79-2.82-6.7,0-9.28-2.92-3.59.69,4,1.64,0,3-9.28-.55-8.38-2.59-18.49-1.38-.21,2.12,8.63-1,6.62,2.19a34.06,34.06,0,0,0-15.83.84,3.31,3.31,0,0,1,1.28-3.72c-3.48-.21-4.33,1.05-3.93,3-6.7.84-8.12-1.32-10.59-2.91,7-5.57,30.75,0,39.57-4,15.74,1.8,29.91,1.2,46.22,2-.21-1.38-4.47-.43-5.29-1.46.18-2.32,8.06-1.48,7.92.69C797,43.56,797.28,42.93,795.9,39.86ZM669,404.46c1.8-1.14,6.76-2.15,9.18-.8C677.68,405.33,671.75,404,669,404.46ZM614.88,28.28c.24-2.57,7.28-1.4,10.54-2.3C623.72,29.4,619.07,26.81,614.88,28.28ZM589.62,12.82c.24-.85,1.32-.42,1.32,0,4.52-3.44,1,2,5.29,1.46-.38,1-3.29.63-5.27.77C591.06,14,591.17,12.93,589.62,12.82Zm-6.47,11.94,0-2.23c2.52.3,5.68.24,5.31,2.2Zm-9.21,2.3,0-2.24c3.26-.11,6.37-.15,7.92.7C581.71,27.42,577.44,27,573.94,27.06Zm-14.49,5.3c10-3.64,34.17-2.4,43.56-4C599.15,33,573.06,31.61,559.45,32.36ZM547.77,378.43c.19-.87-.32-1.33-1.34-1.48,2.94-1.56,2.46,1.57,7.88,0-.46,1.25,1.05,1.39,2.65,1.46C554.35,380.24,552.08,376.2,547.77,378.43ZM536.71,7.2c.85,2.87,1.13,3.06-1.26,5.23C533.44,10.91,531.23,7.33,536.71,7.2Zm-9.22,3A2.79,2.79,0,0,0,528.8,8c1.51.25,3.35,1.29,1.34,1.48.87.76,3,.75,2.66,2.22-1.19-.46-2.37-.89-2.64,0C528.73,11.53,529.24,10.24,527.49,10.24Zm-14,360.22c-.65-2.33,3.51-2,3.89-3.75a3.34,3.34,0,0,1,2.68,3A13.88,13.88,0,0,1,513.47,370.46Zm-1.12,15.64c-.34-2.45,7.19-3.39,6.57-.05A7.89,7.89,0,0,1,512.35,386.1ZM505,4.43c.24.87,2.42.61,4,.72,1.29,1.38-3.92,2.52,0,3-1.27,1.17-5.35-2.37-6.65-3.68,4.69-.28,3.23-2.07,7.94-.8C509.86,4.67,506.94,4.29,505,4.43Zm-3.34,365.36c-1.49-.13-.73-.74,0-.74.35-2-5.12-.55-4-2.94,3.16.27,2.84-1.39,6.57-.8a3.58,3.58,0,0,0,2.65,1.47C506.74,368.7,501.73,367.88,501.62,369.79Zm-13.17-2.14c.13-1.9,4.38-1.5,7.87-1.54C496.72,368.5,490.59,368.85,488.45,367.65Zm-10.49,3c.11-1.42,4.92.56,6.58.7C483.12,374.38,479.35,371.92,478,370.69Zm-3.81,11.19c1.2-1.31,4.1-1.67,7.88-1.54C481.34,382.1,477,383.46,474.15,381.88ZM465.51,17.34l0-2.24,6.59,0C472.59,17.3,467.8,16.63,465.51,17.34ZM458.76,6.21c.14-1.64,5.6-.35,7.92-.79-2.83,1.64.35,1.59,4,1.46C469.09,9.89,462.55,6.5,458.76,6.21Zm3.54,374.26a15.15,15.15,0,0,1,9.2-.81C470.21,382.57,467,379.8,462.3,380.47ZM445.81,27.13c.87-2.72,5.27.12,10.57-.81-.16,1.34,1.63,1.56,1.35,3C453.47,28.73,449,28.31,445.81,27.13Zm-11.88-1.41c0-2.17,7.42-1.81,9.23-.8-.79,2-3.6,2.93-7.9,3C435.37,26.88,435.46,25.83,433.93,25.72Zm-2.78-9.66c4.27-3.76,14.88-3.51,19.81-.87,5-3.52,9.87-6.14,19.75-3.1-3.37,2.14-12.64-.53-14.44,5.3C445.23,16.26,436.33,17.52,431.15,16.06ZM418.68,363.63c4.77,1.18,6.37-.16,10.53.68C428.76,366.76,418,366.36,418.68,363.63ZM404.76,17.72c3.09-2.59,8.32.31,10.52-3,6.77.48,9.33,2.09,14.52-.09l.06,3.73C422.6,17.38,413.17,19.24,404.76,17.72Zm-8.43,346.8c-.38-1.2,1.24-1.28,1.29-2.24,4.23-.19,5.59,1.28,10.54.67C407.59,365.3,399.12,365.69,396.33,364.52Zm-86.91-361c3.51-2.2,5.12-.67,9.25-.07C315.14,5.61,313.55,4.08,309.42,3.47ZM295.09,17.7c2.25,1.23,1.12,4.37-3.89,3.75,3.92-4.47-5.9.44-6.69-3.67C289.92,18.36,289.08,17.86,295.09,17.7ZM292.43,17c8.83.41,15.92-2.76,22.45-1.65,1,2.28-2.25,2.21-1.26,4.49-2-1.34-9,.19-8-2.94C303.8,19.57,297.1,17.12,292.43,17Zm-26.32,6.14c-.32-2.21,4.66-2.66,6.58-1.54C271.59,22.69,269.39,23.21,266.11,23.12Zm1.22,332.59c-1.25-2.72,6.9-1.4,7.88-.79C274.12,356.36,269.47,357,267.33,355.71Zm-22.23-325c.05-2.27,8.61-1.81,10.55-.83C252.36,31.27,250.56,29.86,245.1,30.71Zm-2.93-17.84c-1.61-3.18,10.73-3.27,9.24-.07C246.65,12.22,245.05,14.53,242.17,12.87ZM245,356.62c2.28-1.54-1-1.45,1.26-3,8.43,1.52,10.61,1.53,18.44,1.35C261.92,357.63,251.69,356.15,245,356.62ZM233.18,29.3c1.92-1.19,8.87-2.49,1.28-3,1.76-3.22,8.39-.4,13.18-.84C243.25,28,240.72,27.88,233.18,29.3Zm-3-21.56c5.15.8,10.26,1.62,9.34,5.89C236.82,11.43,231.07,11,230.18,7.74Zm-3.55,25.33c1.12-2.58,5.32.15,9.23-1.56C237,34.33,229.63,32.5,226.63,33.07ZM195,40c.82-.66,1.58-1.34,0-1.48-.24-1.62,4.69-.38,6.6-.79C200.42,39,199.19,40.31,195,40Zm-13.21-.65c.35-.68,4.87-2.53,5.27-.78,1.28,0,1-.92,1.29-1.5,3.85.62,1.51,1.1,1.39,3C185.73,40.59,185.86,38.76,181.82,39.33Zm-31.56,8.4c.43-2,3.43-2.53,6.55-3a3,3,0,0,0-1.27,3Zm-10.59-2.15c-1.12-2.83,6.22-1,9.21-1.55C147,46.17,145.4,44.88,139.67,45.58ZM126.48,196.73c.06-3.72,20.71-.23,5.26-.79A11.83,11.83,0,0,1,126.48,196.73Zm-17,6.06c.13-3.61,7.94-3,14.44-3.07C123,203.49,114.47,202.92,109.45,202.79ZM80.31,49.71c10.15-1.47,23.76-.49,39.57-2.51-1.09-3.18-6.38.73-9.27-1.41.43-2.48,7.58-1.23,11.85-1.58,2.69,2.69-1.84,3.69.12,6.69C106.41,50.63,95.27,52.78,80.31,49.71ZM81.88,354c-1.38-2.5,4.08-1.19,6.54-1.53C89.41,355.08,83.87,355.21,81.88,354ZM47.25,49.21c4.54-1.22,12.92-.46,19.81-.89-2.59,3.83-13.26-.67-13.13,3.82-2.76.34-3.5-.48-5.31-.71C50.82,50.71,53.21,48.65,47.25,49.21Zm-6.53,3c.49-1.87,4.45-3.46,6.55-2.28C46.09,51.27,44.87,52.56,40.72,52.24ZM34,46.33c2.64-1,14-4.47,17.17-.13C46.5,44.35,39.46,46.3,34,46.33ZM31.49,193c10.64-3.23,15.93-3.33,27.61-4.68-.5,1.44-6,.11-3.9,3C45.62,190.92,39.93,192.67,31.49,193ZM24.8,49.38c1.45-1.51,10.19-.93,11.89-.09.56,1.78-6-.37-3.92,2.26C30.69,50.49,27.58,50,24.8,49.38Zm-5.35-2.93c1.19-3.68,10.69.09,13.19-1.6C29.69,47.78,25.12,45.26,19.45,46.45ZM-24,51.24a13.27,13.27,0,0,1,10.54-1.56c.25,1.61-4.69.37-6.59.79-.2,1.62,4.69.31,6.61.69C-17,53.45-19.45,51.76-24,51.24Zm-21.17-.57c.7-1.78,5-3.14,7.91-1.56C-39.28,50.19-43,51.91-45.22,50.67Zm-1.64-16.36c3.42,1.57,7.48-.74,9.26.67C-36.74,37.7-48.92,37.05-46.86,34.31Zm-3.58,18.63c5.75-.32,10.63-1.82,17.16-.89C-35.29,55.11-45.95,53.12-50.44,52.94Zm-13.25-1.39c.36-1.52,3.55-1.49,3.9-3,2.08.31,1.19,2.34,5.31,1.45C-54.61,52.12-60,51.39-63.69,51.55ZM-81,360.5c-.21-3.06,10.29-.22,11.8-2.33,4.61.17-2.32,3.32,1.37,3C-71,361.62-76.47,360.77-81,360.5Zm-6.17-168.87c.63-2.55,6.33-1.2,9.21-.82C-79.09,193.65-83.23,191.4-87.15,191.63Zm.77,162.21c3,.34,6.75,1.42,9.21-.07C-73.93,354.6-87.22,358.43-86.38,353.84ZM-127.29,346c1-1.68,8.77-2.53,7.9.69C-123.39,347.22-124.19,345.93-127.29,346Zm-4.13-129.44c.19-.87,2.39-.65,3.93-.78-1,2.12,1.89,1.91,1.4,3.71C-129.59,219.48-129.48,217.42-131.42,216.53Zm-4-.71c3.82,0,3.21,4.17,1.42,5.19C-139,220.37-135,218-135.39,215.82Zm-2.12,143.62c2.86-2.08,9.37,0,13.15-.1C-126.71,361.14-134.65,359.84-137.51,359.44Zm-12.58-153.19c-.43-2,1.76-2.46,5.2-2.27l.06,2.23Zm-140.4,129.88c4.18-3.2,9.36-1.3,17-2.37C-276.82,335.58-285,337.82-290.49,336.13Zm-74.18-121.41c8.73-5.66,26.42-.9,39.46-2.57C-333.6,216.79-354.26,214.39-364.67,214.72Zm101.33-5.33c1.28,2.91-7,.61-7.86,2.3.93,1,3.51-.39,6.6.69,13.28-7.71,38.61-2.68,57.9-3.46,15.81-.65,29.31-4.11,40.77-3.29.89.75,3.05.74,2.69,2.21,4.52-2.07,9.89.39,15.82-.12,1.84,2.41-1.48,1.88,5.29,1.45-2.43,1.44-.09,1.86.08,3.71-3.53.54-2.57-1.51-4-2.2-1.88,1.18-4.35,2-5.18,3.76-2.63-.48-3.07-2.23-5.35-2.93-2.68.24-2.53,2-5.21,2.28,2.68,2.43,12.35.15,15.89,3.59-6.5.5-8-1.87-14.52-1.37,3.16,1.18,8,1.38,11.9,2.13,11.27-2.73,9.65-9.81,22.17-10.59-.8-1.79-5-1.61-8-2.17,9.72-3.72,19.51.62,26.31-3.17,1.76.72,4.91.67,5.3,2.18,3.72-.52,11.77-3.58,13.17-.84,2.49-.11.87-2.47,3.91-2.26,8.83,4.76,26.55-2.2,35.6,1.21,6.44-3.39,22.17-2.81,27.63-1.7,6.93-5.73,31.27-3.57,40.86-.32,10.15-.4,9.07-2.31,18.41-2.37-2.82-.19-8.21-2.69-9.25-1.41.16-2.75,6.45-2.37,15.77-2.36a6,6,0,0,1-2.63.77c13.34,1.17,40.12-7.38,55.39,1.83-5.44-.07-10.16.27-13.15,1.57,3-1.22,18,2.21,19.72-2.36,4.13-.39,5.41.89,6.64,2.18-.42,1.74-.79,3.5-5.22,3-.48,1.78,6-.46,4,2.19-8.53.18-13.59-1.66-22.42-1.32,3,1.52,8.56,2.12,17.18,2.11-19.14,4.09-31.49,4.76-52.65,3.36.18,3.39,8,2.37,9.31,5.13-14-1.48-23.4,3.16-32.9,1.75l0-1.5c-.65-1.58,1.84-1.43,3.92-1.51-2.37-2.21-7,.48-5.21,3-4.34.07-6.53,1.31-11.83.84.15-1.63,3.28-1.62,6.55-1.53-4-3.14-13.22.82-19.73,2.37-4.65,1.19-.85-2.52-4-2.2-5.14,1.52-33.45,2.17-39.55-.43-3.39,1-4.09,1.56-2.56,3.73-4.72.49-7.43-.21-7.95-2.17-5,3.77-13.16.79-19.77-.59-4.66.12,2.85,2.44-1.28,2.24-3.36.07-1.61-.54-1.34-1.47-4.93,0-3.91,3.23-10.49,2.3a9.55,9.55,0,0,0,1.16-6.7c-2.89.11-.49,3.16-1.21,4.47-5.63.76-5.12-2-9.27-2.16,2,3.22-6.63,8.39-10.47,3.07,4.54-.63,5.58.78,7.94,1.42-.2-1.85-2.51-2.29-.08-3.72-6.31,2.11-6.82.33-13.2-.64-.5,1.73-3.66,4,.14,6.69-4.17-1.09-9.27-1.65-13.24-2.87.11-1.91,4.39-1.52,7.88-1.55,2.31-.2-2-2.75-2.71-3.7-3,.43,1.62,1.14-1.28,2.25-3.08-.22-5-1.14-9.22-.68-2.24-1.46.08-.95-.07-3-8.29,2.27-4.32,7.36-13,6.8.61.91,1.73,1.52,4,1.45-14.46,6.39-35.93-2.35-47.38,2.61-4.18-1.6-1.75-2.33-6.61-.7-2.62-3.83,3-5.1,7.75-6.76.61,1.56-.85,2-1.24,3,6.37.52,16.52,3.72,25-.19-11.78.28-19.31-2.64-29.05-2.75,1.4-2.35.56-2-1.4-3.71-4.49.76,3.63,4.26-1.2,5.21-2-2.07-11,1.49-17.16-1.35-1.84.27-.08,1.3,1.35,1.47-2.12,1.9-4.83-2.17-9.25-1.41a11.58,11.58,0,0,0,4,1.46c-.82,2.23-2.82-.7-5.27,0,.05.72,1.63.56,2.66.73-.44,2-6.7.71-7.85,2.28-2.09-1.46-6.87-3.63-9.25-.67-17.3-3.22-36.24-3.28-54.09-3.25l-.06-2.22c-12.63,2.91-24.21,1.33-36.84,1.8,9.24-5.61,25.3-1.6,39.46-2.57C-277.89,211.28-271.57,208.23-263.34,209.39Zm-154.08,3.55c-.56-3.14,5.71-.69,7.88-.8C-409.51,214.17-415.69,214-417.42,212.94ZM-475.33,78.75c0-2.27,8.57-1.82,10.55-.84C-466.72,80.65-473.33,78.89-475.33,78.75ZM-732.14,325.31c-1.2-1.52,6.62-1.54,2.55-2.25.94-1,12.76-2,11.84.62C-724.51,323.15-727.68,324.58-732.14,325.31Zm-34.26-3.38c-5.11-1.14,10.55-3.25,9.18-.1C-759.29,321.66-764.57,321.07-766.4,321.93ZM-919.07,249.2c1.36-1.66,12.47-3.85,11.84-.13C-912.64,248.4-912.54,249.21-919.07,249.2Zm-67.32,23.09c1.2-1.52,5-1.67,9.13-1.59-.54,2.13-4.89,2.19-7.73,3.06C-984.83,272.9-985.35,272.44-986.39,272.29Zm-55.19,26c0-1.49,3.53-1,2.48-3,4.12-.42,4.68,1.28,9.19.63-.17.87-2.36.66-3.88.79-.16.87.36,1.32,1.36,1.47C-1033.16,299.72-1040.44,298.93-1041.58,298.25ZM-18.06,351.82a80.84,80.84,0,0,1,21-.16C-3.85,353.48-11,352.93-18.06,351.82Zm1260.41,39c6.19,1.37,14.27-2.87,15.79.67C1254.74,392.69,1243.27,394.73,1242.35,390.84ZM1119.69,105c.33-1.92,2.29,1,5.3,0l0,2.22c-2.76.34-3.49-.48-5.3-.71C1120.52,105.84,1121.31,105.17,1119.69,105ZM334.52,2.55c0,1.28,1,1.92,2.65,2.21-.14,1.63-3.28,1.63-6.57,1.54,2.28-1.54-1-1.45,1.29-3-2.51-.31-8,1.07-6.65-1.44C327,2.88,331,2.57,334.52,2.55Zm-508.4,26c1.81-.31,7.43-1.39,11.85-2.32a2.67,2.67,0,0,0-1.28,2.25c-3.79-.13-6.71.23-7.9,1.54C-172.64,29.88-172.14,28.58-173.88,28.58Zm-207.51,6.21c1-2.63,4.62-.9,6.62-.07C-375.06,36.47-380.57,35.21-381.39,34.79ZM-1055.73,302.9c11.6,1.25,27.08,2.22,35.39,1,4.82,5.5,26.68-1.79,29.18,6.38,5.29.2,1.82-4.34,7.69-3.81,4.2,1.07,7.41,2.73,12,3.59,3.6-2.48,11.46-1.4,13.18,1.34-1.73,0-1.15,1.31-2.57,1.51-5.07-2.36-18.32-1.51-23.59.27,9.52,0,21.72,1.58,30.15-.35-1.55-.09-3.7.17-4-.7,3.84.16,3.94-1.72,7.8-1.57.9,1.62-3.6,2.4,1.4,2.22,1.72-.76,2.49-2.05,5.15-2.29,8.63,2.11,21.86,3.2,30.23,1.14,12.12,6.06,37.13-2.19,39.66,7.74,10.53-1.8,21.3-2.21,31.52,1.14,2.48-.11.81-2.47,3.84-2.28,10.64,4.39,26.54-2.29,39.33-.44-.72,3-13.15-.57-9.06,3.08,18.57-3.12,34,2.72,48.64,2.45-.42,1.72-5.74.77-5.16,3,4.08-.22,13,1.05,18.38-.18.45,1,1.92,1.4,1.43,3,9.66-1.84,18.15,1.33,29,2.7,1.74-1.72-3.49-2.77-.11-3l7.87-.08c-1.67,1-1.63,2.8,1.43,3,11.18-1.36,25.05.47,35.36-2.58-3.85,2.79,3.42.65,4,.71.2,0-.16,1.45,0,1.48,20.05,3.34,60.29-4.21,69.58.07-2.28-1.71,5.69-4.82,10.44-2.34,1,2-2.56,1.52-2.53,3,31.75-1.64,66.61-.26,103.7-1-1-.16-2.6,0-2.66-.72,17.41.84,24.82,2.87,39.46,1.15,13.15,1.13,37.7.07,44.68.36-1.17-.43-7.53-1.5-4-2.2,14.19,4.71,26.35,4.48,46.1,4.07,1.58,3.52,15.77,3.51,15.78-.14-4.28-.39-6.61.28-7.85,1.56-1.68-1-6.94,0-5.34-2.93,6.72,0,27.65-1,17.14,2.08,20.31-2.86,26.64,2.58,44.69.36,3.41,7.17,27.92,1,26.39,5,4.81-1.89,12.27-1.58,17.13,1.33-11.31,2-19.19.67-26.23,2.46,4.36-.27,8.09-.18,9.24,1.41a22.37,22.37,0,0,1,17.08-.15c-.29-3.31,5.31-.48,6.56-.05,1.57-2.43-4.27-.54-2.7-3,8.55-1.32,19-.28,27.65,2-2.45.12-4.39.54-5.23,1.54,7.3-1.16,15.64,2.78,17.05-1.63-2.73-.42-8.62,1-9.22-.67,9.48-1.35,16.38-.49,22.39,1.32-1.73-.08-9.53,0-5.25.79,6.13.67,7.9-1,11.79-1.58,13.34,5.31,22.91,3.33,36.93,4.91,1.75-2.7,9.65-2,15.71-2.35a2.82,2.82,0,0,0,1.37,2.22c.42,2-5.1.62-3.89,3,5.35.17,17.26-1.14,25,2,3.28-1.56,19.12-3.4,21.06,1.32-9.17.74-17.22,1.65-22.33.18-1.39,2.51-27.1-1.21-24.9,3.17-1.18-1.08-2-2.34-5.31-2.19-1.88,1.18-5.93,2.28-9.1,4.53.53-5.32-7.83,2.56-9.24-2.16-4.25-.63-2.69,1.95-5.22,2.27-3.55-.69-5.15-2.53-9.26-2.9-29.78,5.9-63.74-.5-93.24,1.51,6.63.66,15,.32,18.45,2.81-2.3.23-6.6-2-7.87.07,2.31.66,6.55.2,7.91,1.42-7.07,1.33-11.87-2.58-14.47-1.36,7.56.31-.3,2.81.06,3,2.59,1.24,6.54-.81,10.56,2.13.26-1.4-1.52-1.62-1.4-3,2.7.19,2.63,2,5.32,2.19,18.11-7.74,46.73-.95,68.19-5,1.22,3.82,5.8,1.78,5.27-.05,5.94,1.1,6.89,2.67,9.29,4.41,5.35-5.05,21.44.32,28.84-3.21,8.14,4.45,26.45-.84,35.48-.27-1-.15-1.54-.61-1.34-1.49,4.65-.35,7.45-1.2,10.52.67-3.06,1.84-2.47-1.08-6.58-.69,9.53,5.24,24.57,1,38.16,2.68,2-1.1,5.09-1.61,7.83-2.3,2.49,2.08,9.81,1.35,15.82,1.38.95-2.17,3.16-3.65,9.13-3.06-6.83-5.09-19.2-3.65-27.67-2.75,4.55-2.86-2.74-3.33,2.52-5.23,3.85,4.11,24.77,1,30.28,2-2.52-.29-5.67-.22-5.29-2.18,3.95-.07,11.21-2.1,14.44-.12-6.59-.48-5.07,2.67-9.2.07A20.84,20.84,0,0,0-19.3,356.3c.95-2.3-4.52-.87-2.7-3.7,1.34,0,1.56-.62,2.62-.77,1.83,2.05,14.38.71,10.58,3.64C.75,354.18,15,354.69,18.88,359c16-1.85,28.5-4.09,44.64-2.57.25,1.11-.42,2.74,1.38,3,1-1.65,4.55-1.89,6.51-3,.43,2.59,3.55-.1,4,1.46-1.86.2-1.48,1.64-2.59,2.25a13.89,13.89,0,0,1,6.57.7c1-2.31-4.53-.88-2.69-3.7,3.27.08,4-1.21,6.56-1.54,5.11,2.72,13-2.18,22.36.6-.4,1-1.85,1.42-1.27,3,4.82-.27,4.59-3.35,9.14-3.79-.3,1.08-2.14,1.29-2.6,2.25,6.49-5.44,22.15.45,26.32.57-1.43-.17-3.18-1.2-1.35-1.48,21.26,1.29,39.45-.45,59.18-.42.15.84-1.89,1.18,0,1.49,8.93-.69,54.43-9.33,46-.32,1,.16,2.59,0,2.64.72-1.55.13-3.74-.09-3.93.77,4.07,1.15,11.58-1.16,17.07-1.6,1.32,1,2.2,2.23,4,2.94,9.69-5.28,16.38,2.81,26.3.58.43,1.94-5.09.61-3.89,3,13.43-6.18,36.26-1.11,55.17-3.36.44,2-7.38-.65-5.23,2.27,13.66-2.16,39.34.27,56.54-1.86-4,2.29,4.86,1,5.29,2.94-11.51,5.05-23.89.6-39.4,4.72.75,1.07-1.47,3.86,1.39,3.71,4.16-6.94,20.54-2.89,31.48-5.4.59,1.16,4.14.6,2.67,2.95,10.18-4.36,30.38-3.42,46-1,3.87-3.29,12.89.42,19.7-1.61-2.84,1.12-2,4.28-6.52,4.51-1.56-1.95,4-3.24-1.35-3-1.66,5.47-18.75,1.9-22.3,3.86,3.39.16-1.79,1.29,0,3,5.63-2.08,10.73.09,15.75-2.32,3,2.24,13.93,4.4,7.88-.06,4.55,4.3,15.07.79,19.8,4.34-14.32-.5-19.53,2.92-30.2,3.16,6.22,2.54,9.74,1.09,15.79,1.39a2.75,2.75,0,0,1-1.28,2.24c19,.3,31.73-.55,46.07,4.17.19-.87-.26-2.11,1.29-2.23,8.46,3,24.16,1.61,32.89,1.27-1.61-.08-3.12-.21-2.66-1.47,5.77-.07,12.62-.77,13.18,2.15,3-.29,1.21-3.26,5.22-3,4.09,1.63,5.93,4.57,10.6,5.88-4.17-2.87,17.77-4.52,11.84.67,8.21.44,12.66-1.8,18.43,2.11,2.41-1.37,4.4-3,7.84-3.77-.94-7.12,1.82-8,1.17-13.4-7,1.63-12.12,2.55-14.49-2.14-1.45,2-12,2-14.47.09-8.92,4.75-21.3-1.53-35.51-.51.71-3.6-4.39-.85-6.62-3.68,4.74-.32,8.8-1,13.14-1.57-1.87,2.32.24,2.88,2.68,4.44,1.79-2.2,8.5-1.69,10.51-.06,1.53-3.13-5.56-1.29-6.59-2.94,5.07-1.11,11.2-1.64,15.74-3.08,2.56,4.14,12.29,3.83,18.42,2.12,2.63,1.72,2.63,2,.05,3.72,12.12-3.33,27.08-2.39,35.51.52,3.45-5.46,14.11,1.62,18.42-.11a6.18,6.18,0,0,1-4-2.21c4,.51,3.86-1.3,7.88-.78-.28,2.9,4.92,2.65,7.93,3.66,1.25-1.39-4-2.46,0-3,11.12.74,15.32,1.32,23.68-.89,1.17,2.43.08,4.55,7.94,4.42a3,3,0,0,1,1.28-3c-3.28-.95-5.44,2.22-6.56,0,7.66-1.5,13.23,3.32,19.7-1.61,1.93.64,5.1.56,4,2.95-2.53-.29-1.07-2.87-5.28-2.19,1.65,3.44-5.07,3.51-9.18,3.77,8.56.25,13.72,8.28,17.15,2.87,13,1.73,21.84,4.73,35.57,7.23-.31,1.07-2.15,1.28-2.61,2.25,6.95,1.51,11.08-3.86,11.85.67-6.42.13-14.11-.46-17.09,1.59,2.45.09,4.4.47,5.28,1.46-5.8-1.72-1.19,2.88-11.82,1.55,1.09,2.84-3.82,2.32-3.91,4.5,3.16,1.17,8.76.95,10.56,2.91-10.21,2.23-16.5,1.73-22.38-1.36,1.92-.42,6.8.83,6.58-.78-7.27.45,4.6-2.67-2.66-2.22-3.88,3.08-8.55,3.21-13.1,4.54,2.63-3-6,2-7.92-2.18-2.26.72-2.61,2.49-5.22,3-10.24-4.68-30.2-4-40.82-5,2,.86,5.89.6,5.28,2.93-1.31,0-1.56.62-2.62.77-4.07-3.31-12.85.46-14.51-3.64-6.76.11-6.49.8-10.52-.68-1.16,1.65.73,3.47-6.53,3,.36-1.51,3.53-1.47,3.91-3-10.37-.24-29.11,2.65-35.53-1.27-17,11.56-44-4.29-57.79,4.1,0-1-2.31-.67-2.64-1.48q5.13.65,3.91-2.26c-6.66.28-6.44,0-15.8-1.38,2,4.09,12.2,3.46,15.86,6.59-2.8,1.4-9.62.57-14.46.84,1.73,2.16,13.55,2.15,17.12,2.12.18,0,.68-2.41,2.61-2.24s3.4,2.06,5.28,2.2c8.79.66,21.6-3.16,26.31,1.32-4.65-.39-6.78.67-7.87,2.27,22-1.79,35.52.33,60.47-.38,0,.74-1,.9-1.28,1.5,8.53-1.73,18,1,27.58-2.41-.31,1.07-2.16,1.28-2.62,2.26a97.26,97.26,0,0,0,14.45-3.06c-2.76,1.8,4.41,2.44,5.28,4.42-.23-1.61,1.07-2.36,3.94-2.25,2.92,1-1.64,1.83,1.33,2.23,6.76-.93,14.45-1.34,19.7-3.1.08,1.36-6.72,2.56-2.6,3.74,8.23-3.9,30.38,1.36,38.16,2-3.9-.88,4.07-2.39,5.24-.78,1.74-1.87-5.21-2.29-1.33-3,1.8,2.91,10.45.74,11.85,2.16,2.08,2.63-4.45.47-3.92,2.26a99.47,99.47,0,0,0,18.43,3.61c-12.3,3.31-36.61-2.4-53.85,3.29,1.12,1.75,5.75-.65,7.87-.79.92,4.9,4.55.38,7.91,2.19-3.25,6-14.11-.32-19.71,1.61,1.6.07,3.12.19,2.64,1.47-1.31,0-1.55.61-2.62.75-8.22-.43-22.79-3.07-23.65.89-6.42-.31-11.49-5.34-17.13-3.61,6.83,1.3,13.15,2.91,15.86,6.59-.1,1-9.46.51-5.25,1.52,9.54-2.46,13.12-2.08,22.33-2.36-1-1.19-6.44.21-5.29-2.2,4,.21,10.21-.88,10.54,1.42-3.81,1.22,2,3.9,2.64,2.22-3.57-.65,1.07-2.75,2.59-3,.27,1.1,3.2.66,5.28.71a3,3,0,0,0,1.34,3c4.08.06,6.28-.94,9.19-1.53,16.87,4,40.46-4.14,56.51-1.82-.81,0-1.56.11-1.3.75,2.79-3.28,10.92-.79,10.48-3,1.51.7,8.69,1.89,9.22.69-.82-1.29-6.25.09-6.58-1.45.25-.84,1.44-1.17,2.59-1.5,3.46,2,4.06,1,7.9-.05l4,2.2c8.19-1.15,11.76-.92,19.72-1.6a2.73,2.73,0,0,1-1.28,2.24c3.48-.77,6.67-.82,9.19.7a28,28,0,0,0-9.15,3.76c5.74-1.23,15-.5,17-3.82-2.33-.42-5.43,2.21-6.57,0a45.41,45.41,0,0,0,10.51-3c-.17,1.32,1.31,1.72,3.94,1.44-2.89,1.9,1.54,4.1,4,5.19.84-2.72-2.88-2.83-2.69-5.19,6.11.6,1.37-1.17,4-1.51,6.71-.37,7.48,2.66,13.18,2.9-1.55,2.36-6.81,2.63-9.18,4.51,7.41.43,8.08-2.89,14.43-3.05-.13,1.86-2.48,2.33,1.34,3,8.27-4.64,25.12-3.21,35.47-3.92-1.76-1.82-4,1.37-5.26-.71.34-1.05,2.87-.86,3.93-1.52.74,1.81,5.11,1.57,4,4.45,7.37-2.69,15.38-.48,25-1.62,1.24,1.09,3.24,5.53,6.62,2.94-1.61-.09-3.13-.21-2.65-1.49,5.54-.73,9.42-.76,18.4-.83.89,5.21,11.7,4.74,17.15,7.34,2.9-1.08-1.66-1.81,1.29-2.24,13.5,3.58,21.7,3.18,39.49,5-8.6,1.24,8.23,1,2.64,3,5.8-1.64,16.25-2.84,19.71-1.6-2.12.54-2.16-3.5,0-3,2.69,1.31.38,2.75,5.26,1.46-.76,2.68.51,4.2,4,4.44,1.81-.46.17-2.86,2.61-3,4.07,1.17,5.11.61,7.89,1.44a6.09,6.09,0,0,0-3.93,2.25c4.37-.53,2.13,1.52,1.32,2.22,4.06.66,8,1.37,10.54,2.92-.05-3.65-3.37-5.48-.06-8.18-4.15-.36-3.64-3.38-5.28-5.18,19.41-.5,45.15,2.26,61.84,7.84-2.54,2.41-2.49,4.61,1.35,6.69,7.82-14.11,33.09,2,50-4,1.81-4.14-1.13-4.55-1.37-8.93,10.34.6,12.67-3.3,17.06-6,7.8-1.37,11.14-.67,19.72-1.6.15.92.4,1.76,2.63,1.48,3.58-.7-3.5-1.36-1.33-3.71,8.95-.54,11.13-7.63,19.69-6.05-2.62-4.06,0-6.52,1.27-8.2,0,1,3.67.93,4,0-2.11-.22.1-1,2.63-.75-2.81,1.2,6.59,5.59,7.9,2.19-4.68-1.43-13-2.66-9.23-6.65-4.66.42-6.77-.61-7.91-2.19a30.68,30.68,0,0,1,5.25-3c-1.18-1.56-3.65-2.38-5.28-3.69,5.89-2.33,20.87-4.52,27.63.6,5.25-1,11-7.51,15.78-2.32-1.81.24-6.07,1.54-7.89,3.76,5.24,0,12-4.68,15.8-.82-10.86,4.92-28.11,7.81-43.39,6.18,9.61,4.09,27.65.69,40.76-2.45,5.54,1.71,17.93.82,25-1.61,3,.49,3.52,2.46,6.58,2.94,9.93-.28,32.47-7.39,31.57,1.33,4.68,1.14.78-2.53,3.93-2.25,2.31.68,4.58,1.36,4,3.71-12.81,6.69-31,10.4-44.66,16.59,3.61,1.9,9,2.8,9.23,6.64,29.21.07,39.8-17.86,69.64-17.45-4.35-6.95,8-10,1.25-16.38a11.8,11.8,0,0,0,5.27-.77c-1.45-5.94-3.69-10.07,2.57-14.14,0-1.24-3.64-.4-4-1.47,4.44,0,3.55-3,5.26-4.49-.81-1-5.06-.09-5.28-1.46-5.48-16.46-13.58-24.73-25.13-42.3-10.35-3.51-14.94-10.35-25-14,3.27-3-6.32-6.31-2.68-9.67-3,.24-5-.15-5.26-1.45,3,.19,4.94-.21,5.26-1.52-6.41.67-2.47-3.43-2.66-3.71-3.71-5.74-14.54-10.36-17.16-17,14.1-2.78,27.73,6.8,39.5,2.78,4.69,2.05,12.26,2.45,13.19,6.64-4.16.15-7.85.55-7.88,3a115.41,115.41,0,0,0,31.6,5.79c1.91,6.62,19.09,4.52,29,6.56,0,1.48-3.58,1-2.63,3,14.09-1.14,31.76.27,46.08,2.75,5.21,8.64,34.8,6.71,35.58,15.46,6.31.87,13.19,1.41,15.79,4.39-1.79,3.7-6.53,5.75-5.23,11.18,3.4,4,14.4,3.7,19.73,6.6.41-2.76,8.39-5.17,13.16-3-.91,1.48-4,1.72-5.27,3,5.15,4.43,3.91,8.12,7.92,12.61,4.36-.27,11-1.28,11.84,2.18-2.35.45-5.47-2.16-6.59,0,4.2.09,3.91,2.74,7.92,2.95,0-5,5.22-.23,7.89,0,3.77-1.69-.64-3.66,2.61-6,16.46-.6,28.14,13.66,39.46,6.52-1.68-1-5.72-.7-9.2-.7-8.55-6.29-20-10.91-31.58-15.48.4-1,1.87-1.43,1.31-3-4.55.43-7,2-11.84,2.29-1.8-1.46-3.65-2.87-9.21-2.18,5.38-3.44-4-3.22-4-6,4.27-1.11,3.73-1.43,2.64-4.46,2.62,0,1.66-2.05,5.26-1.52,11.77,1.72,25.34,4.17,40.78,4.28-5.65-5-18.54-5.8-27.64-8.81,1.92-6.63-2.94-8.62-10.54-13.34-4.26-.9-1,2.42-5.26,1.51-3.85-7.48-16.3-13.18-13.19-22.26,16.34.48,16.17-8.29,32.9-7.59.26-3.33,5.27-4,6.57-6.72-.39-1.52-2.63-2-4-3,.89-2,4-2.75,6.59-3.75,4.23-9.86-13-7.47-13.18-14.82,11.5-2,28.44-.93,36.87-4.64-5.1-.6-7.16-5.57-2.63-7.43-7.24-2.33-8.11-8.28-15.82-10.34-13,3.78-12.44,12.28-27.65,15.75-8.51-11.84-47.29-10.1-59.3-12.37,1.67.3,2.7.94,2.65,2.21-6.38.66-9.32-.64-13.19-1.42.94,3-6.53,1.29-7.89,3,2,.64,4.17,1.09,4,2.95-20.57-.3-31.94,4.31-52.68,5.46-.19.88.24,2.12-1.31,2.24-28-.59-46.64,3.19-72.44,4.82-.18.88.25,2.11-1.3,2.24-5.41-1.33-12.41-1.22-15.79-1.42,1,.16,1.51.62,1.3,1.48-20.36-1.1-47.28,3.06-51.38-7.92,1.88.83,3.21.79,3.94-.77-3.8-1.11-10.55-3.48-6.62-6.66-6.73.94-11.21-3.43-7.92-5.9-.44-1-1.89-1.41-1.34-3-4.22-.6-2.73-.62-5.26.78a2.75,2.75,0,0,0-1.32-2.23c2.07-.08,4.57.08,3.93-1.51-8.9.69-1.8-3.33-5.28-5.18-5,.41-3.22,4.64-10.52,3.78,3-1.67-.46-2.9,0-5.22.79.22,5.08,1.83,5.26,0-3.38-.05-2.12-2.75-4-3.69a12.07,12.07,0,0,0-5.27.77c4.78-2.72-6.82.11-4-3.69,8.72,1.93,16.12.6,25-.88,3.43,5,19,3.08,22.44,8.06a11.18,11.18,0,0,0-3.94,1.52c2.9.56,3.3,2.58,5.27,3.69,14.36-1.05,16.23,11,31.67,11.75.3-4,7-4.2,13.17-3.05,0-3.72,4.23-2.82,9.21-2.27-2.92-7,11.4-7.8,6.54-13.43,1.75,1,4.9,1,5.27-.77-1-1.18-6.45.2-5.28-2.21.23-1.1,3.17-.69,5.26-.77-.72-7.79-16-7.28-21.11-12.54,20.69-4.34,30.45,6.47,47.44,4.24v3c15.92,2.58,15.63-9.74,29-8.33,6.86-4.59,16-7.93,27.66-9.8-1.17-.94,8.27-2.28,9.21-4.51,21.94-.14.27-14.05,3.91-18.62-4.19-2.82-9.9-4.78-11.89-8.87,4.88-.11,3.82-1.38,1.31-2.24l5.28,0c-.34-4.67,4.39-4.88-1.33-7.43-13,2.25-24.84-.91-30.33-7.3,2-.07,1-1.91,3.94-1.5,1.13-3.39-6.59-1.71-6.61-4.43,9.06,1,10.1,6.65,18.46,8.09-1.07-2.1,1.87-1.94,1.34-3.73-2.51-.16-2.92.85-5.27.77,2.58-1.46-2.66-2.27-2.66-4.46-5.7.14-4.87-1.19-10.54-2.18-.54,1.27-7.75,2.53-9.24.79,8.28.25-2.16-2,3.94-3-11.32-1.14-14.58-3.14-21.11-2.86,4.37-1,7.58-2.72,7.9-6-3.54.52-2.55-1.54-4-2.22-16.79-1.42-23.59-8.92-43.56-10.21,5.25-4.1,17.28-1.7,30.32-3.12,2.16-2.27,5.79-3.7,5.26-7.47-14.22.7-32.15-5.16-47.5-.51-8.82-4.58-29.54,2.57-44.85,1-6-.63-20.37-.29-23.71,4.59-18.68-.31-38.31,2.12-62,2.54-1.56-1.93,4-3.22-1.33-3-6.77,3.91-22.26,1.6-29,3.87,22.33.47,42.24,2,64.64,1.91.31,1,2.17,1.24,2.63,2.22-14.21-1.48-33.11,9.64-30.31,3.88-1.34.95-7-1.94-11.88-1.44-3.21,6.66-13.69,0-22.41.86.41,2-5.12.62-4,3,.42,2.25,5.11,2.06,5.31,4.44-8.07,5.2-16.77,1.74-29,2.38-.52-1.06-1.6-1.26,0-2.23-3.15.54-12.57,2.21-11.89-1.44,6.55-1.47,2.32.28,6.6.71,2.66-2.71-.19-4.21-4-5.19,4-1.47,3.71-5.33,9.2-6-2.48-.09-4.43-.47-5.3-1.47,1-1.68,5-1.65,5.26-3.74-4.89.91-11,.38-17.17-1.4.09,4-8.22,2.62-10.54,2.29,1.65-2.11,5.41-2.49,9.22-1.54-2.46-3.36,5.26-1,4-3.74-5.26-1.09-19.67,8.23-26.37,1.62,11.82,1.15,14.06-3,21.08-4.57,4.14-9.89-11.71-6.88-19.86-10.3-11.3,1.06-28.23-3.12-36.94-.55,4.11.87,13.14-.5,14.53,3.64-2.76,3.71-7.8-1.81-9.23,1.54,5.82,1,8.28-.79,10.57,2.18-1.74,0-1.19,1.3-2.61,1.49-5.35-.86-11.41-3-10.61-5.15.43,2.33-3.8-1.87-3.94.77,1.95.62,1.93,2.38,2.66,3.71,6.49-.22,10.7.86,11.9,3.65-9.64,4-17.47-.25-25,4.6-1.14-1.64-9.51-3-11.89-1.42,2.36-.11,3.09.72,2.65,2.22-19.19-3.08-30.26-2.62-47.5-3.46,4.76-2.22,7.47-1.11,13.18-2.31-2.7-1.21-6.85-1.57-8-3.67,4.43-1.58,8.08-2.9,7.89-5.26,7.29-.6,12-3.32,19.79-1.59-2.84-3.23-9-1.46-13.21-.67,0-.75-1.07-.89-1.34-1.48,6.32-4,3.49-7.28,1.24-13.4,27.14-4,49.48,4.76,76.53.32,9.73.69,19.87,4.74,34.33,3.54-.53,1.79,2.42,1.6,1.34,3.71,11.63-1.85,22.46.37,30.36,2.82,1.21-5.1,11.16,1.59,15.83-.83.51,1.06,1.58,1.26,0,2.24,10.07-4.75,16.84,4.7,29,2.08-5.64-.51,4.85-4.07-5.3-3.7-1.78,1.71,3.41,2.79,0,3,.34-4.53-10.58-3.54-14.56-7.37-7.34,4.19-14.74.21-25.07.13-1-1.45-3.34-6-6.61-3.68,5.38-.4-1,2.63-1.3,3.72-7.59.1-14.47-2.23-21.11-2.86,2.36-3.47,2.13-2.32,7.9-1.53-.13-2.78-1.5-2.11,0-4.48-6.09-.9-6.4,1.39-9.23,2.28,1.85-5-15.16-1.83-19.82-4.35q.38,2.43-3.95,2.24c.51-1.06,1.59-1.26,0-2.23-25.26.27-48.33,2.84-71.25,1.15-7.68,2.51-30.19,4.78-29.05-2.83-27.57-3.86-55.79-.47-85.8-2.51-10,3.73-22.51,3-31.66,1.67,1.36.2-2.77,1.73-5.28.77-9.32-3.57,6.68-5.42,14.48-5.29-6.83.34-.07-4.91,1.29-6.7,14.75-2,26.71-1.86,39.55-3.94,3.42.28,4,2.2,7.94,2.19,5.54-3,11.67,1.37,18.47.64,3.89-.42,6.67-3.65,10.53-3.78,4.3-.13,8.21,3,11.91,2.92,2.2,0,6-1.35,7.9-1.53-.2,0-.9,1.48-1.31,1.49,4,0,5.87-2.11,9.22-2.28.6,0,1,2.13,1.34,2.23,4.8,1.23,10.62-2.73,15.82-3.07,3.82,2.13-4.44,3.42,1.33,3.71.34-2.53,5.94-2.14,7.91-3.76,3.75,4.1,14.87-.43,13.22,3.64,9-1.41,24.72-3.29,33-3.15-1.53-.12-1.45-1.16-1.34-2.23,9.91,0,13.14-.06,18.47-1.59,0,.76-1,.9-1.31,1.5,14.89-.52,27.63-1.08,37-.2,1.31-1,2.16-2.25,3.94-3,3.32,1.92,4.17,1.07,6.6-.77,2.66,1.36,1.57,4.35,5.3,2.94-4.51-2.08,5.18-2.5,7.89-3,0,1.48,3.61.93,2.67,3,.4,1.72-3.82.85-4,2.26,8.7-.26,8.63-2.47,9.21-6-3.15-1.18-8.46-1.14-11.9-2.17-2.44,4.25-16.64,1.75-19.78.1,1.74,0,1.19-1.31,2.63-1.49.21.87-.22,2.1,1.33,2.22,7.67-4.64,15.89-2.1,26.38-1.64-3.11-2.91,2.48-2.27,2.62-5.21-10.43.07-20.93.39-30.37.15,4.17,1.43-3.86,2.23-5.26,3-2.55-1.07-10-3.17-11.9-2.16,1.55.11,1.45,1.16,1.34,2.23-5.54-3.29-13.58-1.89-21.12-2.87,8.27.36,4.44-1.43,10.54-2.28-5.8-1-9-1.92-13.2.81l0-2.24c-12.39,2.54-31.68-2.25-47.51.27-.2-.88.21-2.12-1.34-2.23-13.81,2.84-34-2.07-40.92,1-.54-2.78,6-3.87,9.24-2.29-.93-5.14-8.51-1.14-11.89-.67.21,0-.24-1.46,0-1.49-5.24.83-7.57,4.16-13.17,4.54-7.15.48-9.2-3.4-18.5-2.14,2.8,3.49-9.72.27-13.18,2.31,14.23.31-15.89,3.59-15.86-1.41,4.38.22,5-1.67,7.92-2.26-7.25.33-3.85-.75-5.32-3.7-5.85.85-6.58-1.23-10.58-1.43.64,2.38,5.94,2.09,8,3.67a9.74,9.74,0,0,0-3.94.78c-3.08-.9-5.14-4.62-7.95-1.45a3,3,0,0,0-1.34-3c21.25-1.85,29-3.07,48.85-.27,11.88-2.32,24.47,2.4,37-1.69.13,1.4,4.36.49,3.95,2.21,16.41-2.25,34.06,5.38,47.54-.27-3.74-.09-9,.7-9.26-1.42,4.11.19,22.68-2.51,18.51,2.87a42.58,42.58,0,0,1,10.55-.8c2-3.15-6.83-.08-6.61-2.19,6-.38,19.27-1.89,23.77,2.09,24.09-.27,42.32-1.4,58.1,2.67.8-3.85,2.63,1.73,5.29,1.46,3.38-1-1.24-3.63,1.31-3.72,1.31,0,1.56-.61,2.64-.75,5.09-.68,4.7,1.79,7.91,2.18,1.62-2.07,8.12-1.41,13.2-1.55,1,5.6,10.59,2,15.86,2.15,21.61.67,50.19,3.09,67.34,2.63-13.45-2.06-17.94-.2-29.06-3.56-15.73,3.06-35.58-1.24-52.8-.48.18-1.86-2.1-2.29-2.67-3.7,1.56-1.12,5-1.19,6.59-2.28-5.09-1.56-19.17,3.1-27.73-1.34-.74,2.46-5,1.09-7.92.78-4.26,5.09-24.14,4.91-31.66,3.89.28-1.4,12-.15,7.92-1.53-3.94,0-8,.1-7.95-2.2,2.32-.43,7.76.87,7.94-.78-4.23-1.07-12.82.34-10.6-4.41-5.55-.53,1.8,2.83-3.94,3-.29-.57-1.12-.85-2.66-.72-1.7-3.42,2.39-3.62,3.94-5.24-5.92-1.95-6.26,1.12-6.59,2.27-4.11-2,3.45-2.84,0-4.46a66,66,0,0,0-14.53-1.41,3.59,3.59,0,0,1,2.65,1.47c-2.35-.43-5.46,2.21-6.6,0,1.55-.12,3.75.11,4-.77-7.38-2-19.39-.12-23.79-3.58-3.23,1,2.39,2.22-1.3,3-7.57,1.09-6.86-2.56-11.92-2.9-.7,1.09,1.58,3.83-1.28,3.72-4.67-.32-12.73,1.29-11.91-2.16,1.4-.55,10.06-.72,6.6-1.53-7.43,1.48-12.62-.14-15.82,3.06-5.33-.86.92-4-4-4.43-1.82.45-.18,2.86-2.62,3-1.77-1.34-15.7-4.41-9.25-1.43-5.58-.66-6.67-.54-14.52-.66-.22,1.1.48,2.73-1.31,3-22.11-2.62-41.21.88-60.75-1.17-.5,1.29,2,1.91,0,2.24-7.41-1.14-13.47-2.16-18.47.84a2.73,2.73,0,0,1,1.32-2.23c-5.42,1.38-12.38-.24-17.19-1.39,3.62-3,10.42-.47,11.84-5.28-9.14.48-13.12,6.66-23.73,5.34-1.79,1.71,3.42,2.77,0,3-4-.91-5.15-.54-7.92.79.07-2.53-3.9-2.75-6.63-3.68-10.51,2.83-20.64-2.17-30.35,2.4-21-1.92-51.8-1.09-68.65,1.9-1.19-1.81-7.39-.77-6.64-3.68-7.53,2.76-11.77-1.79-17.16,1.58,1.62.08,3.13.21,2.66,1.47-3.15.65-3.49.5-9.24.81-.14-1.17.17-2.58-2.67-2.22-4.2,4.83-14.81.13-21.12-.62-.39,1.47,1.8,1.47,2.67,2.21-5.14.42-14.7,1-15.88-2.88,3.36-.82,4.64,3.17,6.6.71-1.85-.19-1.51-1.63-2.66-2.21-14.34,4.34-34.25,3.06-43.56,2.48-3.42-.21-5.06,2.33-6.58,2.28-4.12-.15-7.41-3.43-14.53-2.16,1.32-.24-1.85-.05-5.29,0-1.31,0-15.12,1.68-18.5-1.37-.58-1.87,10.3-1.11,6.57-2.27-4.75.29-6.35,1.17-10.57.06,1.07,3.84-6.88,3.14-9.22,1.54,4.18-1.13,10.11-1.3,11.84-3.79-8.16,1.24-23.47,4.56-22.47-2.1,0,.76-2.3.95-2.64,0,5.35-1.87,3.2-3.47,7.86-5.25-17,6.52-30.86-3.9-46.16,5.51-.32-1.42,1.47-1.65,1.28-3-4.1,0-3.74,2.36-9.24,1.55.28-1.41-1.5-1.64-1.36-3-3.43.31-7.24.43-9.23,1.55,5.86-.37,8.39,1.18,9.3,3.66-8.81-1.07-13.08,2.34-21.15-1.35,5.29.7,3.94-2.26,9.24-1.55-1.32-1.75-.5-4.71-5.34-4.43-.22,1.1.5,2.74-1.29,3,.84-3.37-16.44-4.3-23.83-4.31-1.39,2.79,3.3,2.09,2.7,4.44-1.57-.83-4.67-.81-8-.68,2.74-1.84,1.87-1.6,1.28-4.48-4.26-.63-1.79,2.46-5.26,2.27.13-2.83-7-1.5-8-3.67C501.82,4,500.12,1.91,501,0c-5,2.07-7,1.37-10.52,3.78-2.22-1.46.11-.95,0-3-5.66.81-5.1.46-9.27-.68-2,.85-3.2,2.16-5.23,3-2.37-1.5-5.38-.46-1.35-2.22C460-.49,455.21,8,448.18,6.28c-.79,5.49-6.89,3.38-11.87,1.56-1.78,1.71,3.44,2.77,0,3-3.67-1.63-6.72-1.38-11.89-.67-1.16-2.36,2.05-2.31,2.59-3.73-2.92,1.25-7.16-.12-7.91.79a6.26,6.26,0,0,1,4,2.21c-3.12,0-3.88,1.31-7.92.79L415.17,8c-11.11,4.16-26.77.53-31.63,3.93-4.24.69-2.78-1.91-5.32-2.2a2.78,2.78,0,0,0,1.34,2.23C376.32,13.65,360.71,8,369,12c-6.25-.27-8.14-3.17-11.89-1.41,3.08.2,3.11,2,0,2.23,1.88-1.1,1-2.36-2.68-2.21-1.24,1.29-4.11,1.65-6.58,2.27,3.54-2-6.09-1.3-7.94-.68,1,.15,2.61,0,2.66.72-2.64.33-9.77,1.91-11.89.08.79-1,5.08-.14,5.26-1.52-4.48-1.29-5.87,1-10.55,1.56-2.1-4.43-13.12,3.42-14.56-2.13,10.63,2.79,17.38-6.79,23.78-.91.19-4.21,4.65-1.71,10.53-3.06-1.56-2.33,2-1.82,2.58-3-6.1-.55-3.76.85-5.25,1.52-1.26-.78-4.88-.2-4-2.2,1.55-.13,3.75.09,4-.78-5.45.63-8.24-.27-9.28-2.16-6.91,1.77-11.79-.3-26.43.93-2.46,1.32,1.84,2.29-2.6,3C286.9,1,271.26,7.63,257.92,6.06c-2.68,2.27,2.5,4.27-3.89,4.49-3.3-1-2.39-2.55-1.4-4.45-12.09,3-20-1.42-33-.52C214.21,11.94,196,5.92,188,11c6.11-1.08,14-1.17,17.2,1.36-4.92,2.75-20.41,3.69-18.53-1.35-7.19,2.7-13.47-3-15.83,1.6-1.56-4.7-16.57-4.42-25.15-2.8,1.27-.24-2-.83-5.3-.71-17.48.67-39-.3-55.43,3.37-.17-1.17.12-2.59-2.7-2.22-.11,1.9-.17,3.83-3.89,3.75C77.44,12.39,82,11.62,77,11.78a5.7,5.7,0,0,1-6.59.8c-2.91,1.08,1.69,1.8-1.28,2.24-2.47-.09-4.43-.46-5.31-1.45.09-1.18,3.35-.61,2.6-2.26-4.83,1.65-6,1-11.86,2.33-.19,2.55,4.46-.1,5.34,2.93C31.58,26-2.73,23.6-32.5,25.27-34,23.37-24.35,24-28.58,23c-12.74,2.09-15.49,4.42-25.1.93-4.86.05-5,2.66-7.88,3.8-4.7-1.84-18.35,3.45-23.8-1.31-.7,2.74-6.49-.23-9.21,2.3-.2-2.74-2.47-2.14-4-.71-.69-4.28-7.31-1-9.34-3.65-2.1,2.53-5.86,2-10.56.82-2.91,1.1,1.69,1.8-1.27,2.25-6.52-1.71-16.12,2.23-19.88-2.83-3.59,3.49-21.26,2.5-25.15-.54-.9,4.21-15.82,3.49-15.83,1.59A117.18,117.18,0,0,1-196.29,31c.66-1.11,1.92-1.89,2.56-3-24.35-.64-43.64,3.76-74,.61.1,1.28-1,1.92-2.6,2.26-9.12-5.58-30.06,4.78-30.53-4.21-6.71.06-.5,2.62-5.18,3.77-15.16-.65-26,1.92-34.43-1.2-8.24,2.13-12.1,1.37-22.41,3.16-.46-1.69,3.79-.85,3.91-2.25-12.7.5-19.28,2.49-29.14-1.24.6,3.5-6.94,2.56-7.79,5.28,7.23.18,16.3.23,19.95,4.28-5.69,1.48-8.26-2.68-10.59-.64,13,4.89,20.36-.83,35.7-.31.09,1-.57,1.63-1.27,2.24,5.2,1.3,11.06-.57,15.83-1.62,25.23,4.61,55.44-4.21,79.4,1.55,7.72-3.44,22-3.25,34.29-4-2,3.53-15.18,1-17.07,4.61,6.53,0,32.77-2.45,29.14,2.73,0-2-.83-4.37,2.56-4.48,3.58-.56,2.69,1.46,5.3,1.45,2.34-4.19,24.2-2,31.67-1.73-1-.16-1.54-.62-1.35-1.48,2.47,1.39,11.18-2.83,15.85-.12-3-.18-4.95.22-5.23,1.52,5.48,2.65,4.45-3,10.52-2.31.44,1.72-3.79.86-3.92,2.26,11.13-1.08,31.08.46,41-1.06,1.58-2.41-4.29-.53-2.7-2.95,1.91.39,6.8-.93,6.62.7-.29,1.06-2.16,1.26-2.6,2.24,20.32.25,40.05-1.35,64.75-.49,3.36,3.43,19.27-.86,26.43-.2,9.45.86,25-1,38.29-1.78,21.22-1.21,43,1.18,60.75-2.7.15,1.17-.14,2.59,2.68,2.22.21-1.12-.52-2.74,1.28-3,6.08.49,10.59,1.91,13.27,4.37a20.42,20.42,0,0,1,5.23-3.75c-2.34-.19-6.56,2.14-7.92.06,2.5-.34,2.34-2.15,6.56-1.54,5.48,4.71,2.4,1.62,10.63,2.91-2.27,0-3.39.59-4,1.51,6-2.38,15.34,1.59,21.12-.89-6.89-1.17-9-.41-14.55-2.14,6.86-.56,8.46-.08,14.5-1.59,1.29,1.38-3.93,2.52,0,3,6.19-3.17,16.55,4.94,25.14,1.31-2.67.66-7.29-1.11-4-1.45,3.28-.14,4.1,1.14,6.63,1.43,5-5.12,14.69-.55,21.07-3.11,3.32,1,3.18,2.08,4,2.93,2.17-2.49,14.4-3.33,17.11-3.09.69,2.34-6.05.6-6.55,2.28,13.25-.58,17.65-3.17,23.69-4.63,3-.24,1.49,2.13,4,2.21-2.21-3.23,7.77-4,14.45-4.57-.41,2.63,0,3.84-1.26,4.47-1.41-.84-6.08-.23-7.91.81,3.81,1.43-3.87,2.71-3.88,4.49-2.75-.4-2.82-1.15-1.36-2.22-9.75,1.79-21.94-.08-31.68,1.69.17-.87,2.33-1.69,0-2.22,2.09,2.62-4.48.49-3.94,2.26,3.81,1.44-3,3.19-5.22,3.76,1.46-1.09,1.4-1.82-1.35-2.22-2.94,4.59-9.94-.44-13.18,2.32-3.08-1.06,2.54-2.38-2.69-2.22l.06,3c-4.76.4-18.54.78-22.43.9-3.34-.34,3.75,3.67-2.59,3,.88-3.38-14.59,1.53-15.91-3.6-12.22,2.51-17.25-1-27.69,2.42-.58-1.26-7.81-2.42-9.26-.67,2.12-.57,5.76,1.43,2.65,1.46-19.47-3.25-45.51-1-66.1-2.48a3.57,3.57,0,0,1,2.66,1.47l-5.28,0a2.67,2.67,0,0,1,1.27-2.24c-4.55,1.89-11.45-2.7-14.55-1.39C5.92,40,0,40-.51,39.16c-.85,2.06-.2,1.7-3.9,3,2,.11,4.87-.31,5.3.7-11.25,3.15-27.77-.14-39.66-.44-4.12,1.4,4.51,2.48.08,3.72-4.16-2.69-10.14,3.66-11.89.09,1.08-1.89,13.57-1.32,7.83-4.52-6.27,2-10.54,6.8-18.43,3.85,1.29,7.33-16.62,4.13-22.3,7.63-3.18-1.46-12-3.6-17.2-1.36,9.55.76,17.66,2.35,21.28,6.53-1.55.13-3.76-.1-3.93.78,7.46,1.16,4.64-3.33,11.82-2.33.1-2.82-7.74-1-8-3.66,10.56-.47,20.14-.93,27.77.53C-56,53.07-53.52,56.17-57,56c-1.21-.66-7.5-2.09-7.94-.69C-66.7,59.2-81.57,62-90,58.45c-3.85,4.26-11.63,0-13.21.1,3.59.65-1,2.75-2.57,3,0-3.41-13.51-2.36-6.6.8-5.45.09-6.55-1.79-6.66-2.92-4.16,1.64-8.64,3.1-11.77,5.3.12-1.86,2.47-2.35-1.4-3-3.17,1-.78,1.49-2.58,2.26-1.05-.17-1.56-.62-1.36-1.48-4.67,5.37-16-2.41-18.49.13,1.61.07,3.13.21,2.67,1.47-6-.29-12.5-.3-14.6-2.85-1.92,3.34-4.55-1.2-9.25-.68-1.75,4.95-24.13,5.63-22.42,1.66-4.44,1.89-7.13,4.23-13.18,1.58-1.59,3.94,8.94.86,10.63,2.91-3.72,1.86-14.44-.1-18.45,1.62-3.33-2-5.77-3.45-5.43-5.91-3.52.52-3.9,2.77-6.51,3.78,1.55.1,3.74-.16,4,.71-4.72,2.78-15,1.67-14.61-2.85,3.25.69,4.29-3.38,2.57-3-1.8,3.18-10.5,2.58-13.08,5.32,5.93,1,4-2.21,9.21-1.57,1.72,2.32-1.24,3.06,2.75,4.44-8-.35-11.72-.14-17.18.89,0-1.47,3.6-1,2.59-3-4.94-.74-2.55,2.54-5.22,3-2.45-.85-6-1-6.69-2.92-11,4.08-19,2-34.29,2.52-1.79,3.29,7.91,0,8,2.17-14.62,4.16-30,3.48-44.75,7.08.28-1,2.13-1.27,2.57-2.26-7.9,3.43-13.78-.3-15.78,3.12-19.41-3.43-62-.36-79.4-4.53-10.1.19-23.2,4.88-30.42-.48-5.13,3-18-.07-22.39,2.42,2,.16.22,1.22-1.29,1.5-21-3-31.19,4.15-55.46,2,.83,3.8,16.88-1.25,14.69,4.32,13.11.41,17.07,2.85,29.16,2.7-1.56.13-3.76-.09-3.95.77,1,.17,2.61,0,2.67.72-6.09-.39-10.1.36-11.83,2.35,9.46-.7,21.82-1.47,30.42,1.23-2.39,3.3-19.65-.25-21.09,1.66,8.2,1.29,15.59,3,25.21,3.51-4.21,2.38,4,.24,2.73,3-5.82,2-9.1.21-13.18.85,1.58-.24,4.63,2.11,1.38,2.23-4.2-1-4.42-.13-9.24.08-.23-1,5.29-2.3,1.23-3-5.08,1.93-14.64,5.29-18.45,1.65-.24,1.42,1.54,1.62,1.42,3-3.26-.06-6.37,0-7.91.83l-.07-2.24c-8,1.59-11.76,2.9-15.69,5.35-4.44-.66-20.31-2-22.44,1,6.91,1,16.38-2.75,21.2,2,17.85-.47,38.95.87,50.19-.45,7.2-.86,17.48,1.11,23.78.54s16-2.56,19.85,1.3c-4.06-1.52-8.91,1.33-13.22-.63-2.91,1.11,1.71,1.81-1.26,2.25-65.17-4.26-136.39,11.64-208.4,9.41.74,6.73-19.7,4.24-26.33,2.49-3.23,4.15-11.87-.28-13.1,3.1,3.28,1.63,12.52-.23,13.32,2.85-.72,1.32,1.74,4.35-1.17,4.48-16,1.52-25.38-4.56-33-1.18,8.34-.17,15.08,5.41,27.9,4.94-1.88.12-1.67,6.11.13,3.73-1.56-5.11,6.12-.93,9.11-3.82,4.55.13,5.83,2.16,6.76,4.41-3.85,3.26-14.82,2.66-19.61,5.39.33,3.12,4.81,4.28,9.34,2.89,20.29,5.66,54.34-1.62,76.55,0,2.61,0,1.73,2,5.31,1.44,11.67-.88,30.7-5.07,42.24.33,8.18-1.31,15-.46,23.75-.22.42-2,3.09-2.72,7.85-2.32-2.15,1.5.16.94.1,3-3.43.32-7.24.46-9.2,1.58,1.69,1,7,0,5.36,2.92-8.86,0-11.75,3.35-19.66,3.91,2.53.3,2.45,2.1,6.65,1.43,5.5-4.32,19.42-4,22.12-9.89,3,.61,5,3.82,2.8,5.18,10.19,3.81,25.43,0,35.7,2.64.11,2.75-4.82,2.74-6.47,4.53,9.56.33-1.35,2-1.22,3.73,7-2.53,19.36-2.11,28.94-3.23,66.27,8.4,142.52-1.34,205.8,2.7,18.75-2.05,38.62-2.42,51.34-3.41,7.58-3.42,23.23-5.3,30.26-3.2,4.24-2,23.87-2.11,30.26-2.47-8.17,0,.45,1,1.39,2.22-11.07.27-18.81-.82-21,3.14a11.56,11.56,0,0,1-4-1.46c1-.18,2.6,0,2.62-.76-8.69-1,2,4.82-5.16,5.25-1-3.94-9.18.81-8-4.41,4.13-.41,5.43,1.71,6.57-.79a195.9,195.9,0,0,0-29,1.71c4.57,2.61,13.75-1,19.78-.16,1.38,1,1.36,2.74,2.72,3.71,7,1.76,13.36-.75,17.2,2.84-18,2.63-14.36-2.36-26.4-2,.73,0,1.5.59,0,.75-8.41.68-12.28-.5-19.76.89-3-1.07-12.13-5.74-11.87.1,5.13-.7,11.48-1,13.23,2.13,11.36,1.32,17.75-4.49,25-1.69-5.67.31-9.82,1.46-11.78,3.82,5.7.43,4.2-3.08,10.49-2.32-.27,1.06-2.13,1.27-2.56,2.25,6.11-1.44,17.44-2.79,19.76.59-10.95,1.41-20.78,1.84-28.93,3.21.1-1.05-.36-2.85-1.33-1.49,0,.51,0,1,0,1.49,11.89,3.14,17-3.09,25.09,2-5.93-.42-11.2,2.11-15.8.13-2.2,4.06-15.17,4.86-22.32,3.88,18.29,5.2,32.35-3.9,48.65-4.84,1.2,2.67-9.19,2.72-3.84,5.25,18-4.46,42.8,2.2,59.35,1.77-15.62,2.76-29.32,4-42.13,2.56-4.1-.2,3.41,2.12-1.25,2.24-10.7-2.63-32.3,0-48.7,1.87.49-1.08,1.53-1.27-.07-2.24-7.88,5.48-23,1.38-31.55,3.23,1,.16,2.59,0,2.64.73-19.6-1.55-46-1.4-64.51,2.77l-.07-3c-20.28,3-50.4,6.48-73.73,2.86.28,1.63-1,2.38-3.89,2.27-57.33-1.51-123.11,6.67-176.46,4.54,2.08.05,4.57-.15,4,1.45-24.7-3.94-46-2-68.57-1.57-2.85-1.09-4.14-3.14-6.73-4.4.09,3.24,2,1.7,2.8,5.18-10.28-3.19-24.54-2.82-35.6-1.13l-.08-2.24c-8.16,3-19,4.05-26.3,1.76,1.54.09,1.48,1.15,1.39,2.21-6.8.69-12.51,1.1-13.22-1.36-3.53.72-8.21.34-10.61-2.13-5,.71.28,3.63-2.49,4.48-50.1-3-118.63-1.22-173.85,1.1,45.11.48,90.31,1.53,137-1.48-.17,2.12,8.57-1,6.65,2.17,25.42-2.79,58.82,3.05,83-.8.24.87-.16,2.11,1.38,2.22-1.15-2.84,2.71-2.91,5.15-3.78,2.82,3.27,12.27-.15,18.56,3.54,1.72-3.29,17.87-.09,21.09.55,1.3-1,1.17-2.79,3.87-3,.85,2.74,6.45-.34,9.28,2.15,3.77-3.37,10.79-1.4,17.05-2.4,1.25,4.48,9.14,2.1,15.88,2.08,2.87-1.1-1.71-1.79,1.24-2.25,33.65,1.62,66.06-.56,102.84,2-1,.17-2.6,0-2.62.75,4.08.54,2.48-2.05,6.54-1.53-.05,2,2.25,1.48.08,3,6.24-1.56,14.49.07,21.1.55,1.45-2.35-2.1-1.79-2.7-3,3.18.28,2.81-1.38,6.56-.8,0,1.48-3.57,1-2.56,3,6.16.94,4.36-2.49,10.49-1.57-.68,3.54,6.67.76,10.63,2.89,2.54-2.77,3.08-2.82,2.5-4.49,3.6.65,6.25,1.13,7.89-.81l.06,2.23c2.57-.68,13-3.63,14.5-.13-5.76-.86-11.27,3.16-18.45.16.71,6,26-1.4,30.42,4.21-29.19,1.17-51.47.12-81.68-.05-.49,1.28,2,1.9.07,2.25-2.33-.42-7.71,1-7.93-.69,1.48-1.84,5.53,1.76,5.22-1.53a168.07,168.07,0,0,0-22.37.93c2.63.05,8.54,2,4.07,3.69-23.39-3.33-51.66-.6-72.48-.81-30.18-.32-60.6-1.87-93.61-2.82l0-1.49c-12.2,3.58-23.13-1.42-32.85,2.56-3.66-.64-7.3-1.3-8-3.65-2.3.46-7.77-.82-7.87.83,5.77-.35,8.94.82,9.35,3.63-7.34.39-26.79.13-35.61-1.15-12.21,2.91-31.27.64-42,3.39,7.69,2.14,25-3,26.49,4.21-8.35-1.67-14.59,3.46-23.65,1,.41,2.57-2.56,2.56-7.84,1.56-5.93,6-26.13.15-36.71,4.13-3.1-1.73-7.5-2.7-12-3.59-.72,2.39,4.78,1,1.44,2.95,2.33.41,7.68-1,7.91.66-28.37,1.66-48.81,3.72-73.5,4.55.45,7-14.14,1.49-18.29,3.19,6.05,3.37-10.88.75-15.75.92a195.56,195.56,0,0,0-31.39,4.06c6.12,3.48,13.17-1.53,21.07.52A4.37,4.37,0,0,1-924.3,250c-1.1-1.25-8.82,0-7.77,2.32,7.22-1.05,10.94.07,17.14,1.3-7.58,2.26-17.43,6.92-26.19,2.52-5.54,3.36-15.06,1.94-26.15,3.27,2.46,4-9.92,2.95-18.25,3.19-6.34,3.43-.06,5.07-10.23,6.06,3.43,1.44,6-.84,7.91.66-2.44,3.51-4.67,7.13-14.12,6.85.26-1.05,2.1-1.27,2.52-2.26-6.81.49-14.46,2.53-15.58,3.9-6.08-1.8-4.77.34-9.16.85-7,.81-17.76-1.76-20.86,2.5,4.92,1.62,11.32-1.32,13.25,2.8-4.89,2.09-8.71-1.91-9.13.87,3.84,2,16.57-1.24,17.18,2.75l-7.88.1c0,2.25,6.93,2,2.85,4.44,1.89-.44,6.82.78,6.53-.83-2.88.17-4.22-.56-4.06-2.19,3.36-.1,10.5.3,15.78.57-9.09,4.59-30.89,4.67-41.75,4.24-1,1.4-1.54,3-3.74,3.77,6.08,0,12.12,0,5.16-1.56,4.91-.39,6,1.5,8,2.88-9.3,3.67-7.4-.79-15.7.21C-1053.83,299.69-1051.91,301-1055.73,302.9Z"/></clipPath><clipPath id="clip-path-5"><rect class="cls-1" x="-20" width="975" height="32.77"/></clipPath></defs><title>bottom</title><g class="cls-3"><g class="cls-4"><g class="cls-5"><g class="cls-6"><g class="cls-7"><g class="cls-8"><rect class="cls-9" x="-1073.78" y="-8.19" width="2687.78" height="463.7"/></g></g></g></g></g></g><rect class="cls-9" x="-20" y="27" width="974.85" height="13"/></svg>