<svg width="100%" height="100%" id="Layer_1" data-name="Layer 1" xmlns="http://www.w3.org/2000/svg" xmlns:xlink="http://www.w3.org/1999/xlink" viewBox="0 0 942.15 485"><defs><style>.cls-1,.cls-2{fill:none;}.cls-2{clip-rule:evenodd;}.cls-3{clip-path:url(#clip-path);}.cls-4{clip-path:url(#clip-path-2);}.cls-5{isolation:isolate;}.cls-6{clip-path:url(#clip-path-3);}.cls-7{clip-path:url(#clip-path-4);}.cls-8{clip-path:url(#clip-path-5);}.cls-9{fill:#a3d7dd;}.cls-10{clip-path:url(#clip-path-6);}.cls-11{clip-path:url(#clip-path-7);}.cls-12{clip-path:url(#clip-path-8);}.cls-13{clip-path:url(#clip-path-9);}.cls-14{clip-path:url(#clip-path-10);}.cls-15{clip-path:url(#clip-path-11);}.cls-16{clip-path:url(#clip-path-12);}</style><clipPath id="clip-path"><rect class="cls-1" x="-9" y="347.36" width="951.15" height="137.64"/></clipPath><clipPath id="clip-path-2"><rect class="cls-1" x="-3.09" y="-698.01" width="945.24" height="1677.84"/></clipPath><clipPath id="clip-path-3"><rect class="cls-1" x="-206.91" y="98.31" width="1639.4" height="388.33"/></clipPath><clipPath id="clip-path-4"><path class="cls-2" d="M-76.64,368.72h-1.63c.14-2.08-1.92-3.06,1.62-3.2C-77.13,367.57-75.12,367.49-76.64,368.72Zm33.38,10c.57,2.39-6.16,1.59-4.88-.6C-46.48,376.72-44.93,378.25-43.26,378.7Zm2.72-208.56c-1.45.08-1.71-.77-3.24-.62-.69-1.8,1.14-1.66.8-3.19C-42,167.42-40.23,168-40.54,170.14Zm10.06,118.55c-.34,1.42-4.31.53-4.87,0,.52-.87,1.72-1.21,3.24-1.31C-32.41,288.51-31.47,288.62-30.48,288.69Zm5.34-126.31c.66,3.06-3.12,2.66-4.85,3.86-.37,5,2.79,6.39-.79,9.57-3.07.31-3.82-1.23-5.69-1.88-.78-5.47-.37-5.49,1.6-10.21,2.17-.64,6.35.28,5.67-2.59C-28.13,161.77-26.21,161.73-25.14,162.38ZM29.14,369.9c.38,2-1.73,2.05-4.07,1.94.11-1.15-1-1.34-.82-2.54C26.25,369.2,28.16,369.16,29.14,369.9ZM58.45,156c-2.63.91-6.32.85-4.86,3.22-6.1.79-8.33-7-3.28-9.54C53.53,151.41,58.42,151.79,58.45,156ZM84.74,436.46c2.4,1.09-1.84,2.34-4.07,2C79.88,435.28,84.66,437.46,84.74,436.46Zm31,7.43c-.34,1.42-4,.28-5.7.68C110.34,440.94,112.6,444.38,115.71,443.89Zm3.2-12.14c-.09,1.4-3.45.29-4.88.67C114,430.67,117.86,430.88,118.91,431.75Zm13.22-310.7c-4.66,1-9.18-1.47-13.78,1.38-2.87.16-1.63-3-4.88-2.5-.78-1.19,2.42-2.16,0-2.56,4.09-1.68,6.8-1.64,11.34-2a2,2,0,0,1,0,3.19C127.37,119.3,130.45,119.63,132.13,121.05Zm25.92-7.85c-2,2.62-4.15-.53-7.31-.58-.36-1.78,4.44.47,4.06-1.3C156.93,111.11,155.45,113.78,158.05,113.2Zm19.57,333.41c-.64,1.46-5,.65-4.07-1.25a5.59,5.59,0,0,1,3.25-.67C176.72,445.61,176.67,446.51,177.62,446.61Zm26.06-.84c.57,2.35-1.29,2.83-4.06,2.58-.61-1.74,1.6-1.3,1.62-2.56-6.51-1.81-13.16.18-15.51-4.35,5.7,1,7.88-.58,12.21-2,1.09.63,1.61,1.71,3.27,1.89-1.22,1.5-2,1-4.06.67C197.85,444.41,200.06,445.65,203.68,445.77Zm4.91,5.7c-.21,1.49-3.58.39-4.07,0C205.15,449.26,207.36,450.74,208.59,451.47ZM205.31,449c-.7-2,1.29-2,1.62-3.2,4.6.72,5.71.25,10.59.55-4.6-3,10.22-2.16,11.4-.09C221.21,449,210.69,445.69,205.31,449Zm2.93-61.89c-1.88-1.17-6.93,1.05-8.16-1.85-1.75.55-2.76,1.67-5.69,1.32-.46-1.33-2.33-2-.83-3.19,1.87-.21.92,1.84,2.46,1.9,1.88-.2,1.88-1.74,0-1.92,8.29-1.22,12.31-1.42,19.53-.14-1.81.58-3.75,2.74-5.68,1.32-.06,3.94,3.79,1.65,5.7.59.21.78,3.11,2.52,1.64,2.53.12,2-4,.08-6.51,1.34,2.23,1.84,9.33-.45,10.59.55-.54-1.54-1.66-3.27,1.6-3.2-.46,4.43,3.64,5.22,8.18,5.68a3,3,0,0,0-.8,2.55c-8.82-2.14-27.09,2.32-39.06.94-.12-1.14,1-1.34.79-2.56-2.6.32-2.86,2.45-5.68,2.6V393c-1.46-.07-1.71.79-3.25.66-1.84.37,1,1-.8,1.92l-4.08,0a1,1,0,0,0-.82-1.27c1.54-1.35,2.21-3.38,5.68-3.23a3,3,0,0,1-.82-2.55c1.91,1.26,4.58-1.22,6.52.59a2.7,2.7,0,0,0,1.61-2.57A84,84,0,0,0,208.24,387.06Zm28,55.27c-5.38,1.69-17.35,0-26.87,1.48,5.64-5,15-1.5,23.6-2.73C232.16,443,234.78,442.2,236.23,442.33Zm-3.56-51-4.07,0c.5-.57,1-1.15,0-1.27.18-.93,2.42-.24,2.43-1.3C232.46,389,232.89,389.88,232.67,391.33Zm8.14-.07c1.28.23-.7,1.15.82,1.28-1.61,2.9-6.92.18-9.76.08C232.85,389.29,239.19,393.29,240.81,391.26ZM255,442.18c-6,1.59-19.69.67-16.29-2.42C242.75,442.42,248.31,439.59,255,442.18Zm3.26-2.58c2.85.15-2,2.39.82,2.55-.78,2-2.75-.27-3.26-.61C255.5,440.06,258.11,440.8,258.21,439.6Zm-20.5-23.43c0-.62-1-.48-1.64-.62.18-.92,2.43-.25,2.44-1.3-.88-1.45-5.13-.21-7.33-.58,3.42-3,11.74-2.16,14.62-3.94a2.93,2.93,0,0,1,0,3.82c.75,2.15,1.82.06,3.28,1.25,2.26-.84-2.58-1.29-1.66-3.17,6.28-.1,7.67.72,10.58-1.37,2.6.93-.13,1.06,4.89.6.44,4.42-5.22,1-7.31,2.61,2.74,2.66,10.58-2.47,10.59,1.83-10.16-.6-22.93,4.21-34.19-.36C233.72,413.65,234.66,416.58,237.71,416.17Zm31.1,27.17c-.54,1.49-2.69,1.73-3.23,3.22-1.1-1.91-7,0-7.35-2.5C261.81,445.91,264.63,442,268.81,443.34Zm4.82-9.61c.16-.51.82-.64.81-1.28-10.36,0-11.48.92-20.34,2.08-3.31-6.57,15.6-5.14,20.32-5.91C277.85,430.29,278.5,432.88,273.63,433.73Zm8.12-3.89c0,1.72-1.84,3.08-3.24,1.94C278.25,430.1,280.2,430.13,281.75,429.84Zm-22.64,24.42,4.07,0c-13.25,2.1-31.16,3.17-47.24.38-.89.17-.55,1.27-1.62,1.3a22.34,22.34,0,0,1-4.9-1.25c.17-2,4-1.1,6.52-1.32.06-.91.11-1.8-.83-1.91,8-1.35,22.19.25,34.18-3.45,2.66.66,5.14,1.46,6.54,3.13,2.38-.56-.5-2.05,0-3.19,2.07-.51,3.76,2.46,4.88.6,2.38.54.94.95.84,2.54,4.12-1,7.12-1.79,9.77-1.36.82-2.14-2.54-1-4.09-1.23,2.55-2.26,8.3-1.43,10.59-.09.63,2.43-3.79,4.22.84,4.46-3.57,2.25-12.91-2-14.64.76,6.17,1.49,17.15-.84,20.37,3-8.68,2.86-15.95-.79-25.25.2Zm25.17-11.68c-.25,1.5-1.26,2.4-.78,4.47-4.52-.44-6.46-1.84-11.42-3.1C274.78,441.14,279.32,443.65,284.28,442.58Zm6.24-289c-.06,2.48-3.51,2.35-6.47,2.59-.11-1.13,1-1.35.79-2.55C286.66,155.12,288,153.42,290.52,153.62Zm11.72,295.82c-.81,1.07-3.45.73-4.87,1.32.09-1.14-1-1.34-.83-2.55C299.78,447.56,299,450.1,302.24,449.44Zm1.38-37c-9.11,2.88-23.44,1.09-32.56.9-2,.67.68,2.83,2.46,2.53-.81,1.81-3.45-.14-4.88.05-.11-1.15,1-1.36.79-2.56-.35-1.42-4-.23-5.69-.6,11-6.27,22.29-1.59,39.05-2.22C302.73,411.44,302.67,412.34,303.62,412.44Zm8.27,17.79c.1,2.87-2.46-.26-4.89.68C308.14,429.33,309.81,429.76,311.89,430.23Zm.57-273.61c-6.83,2-12.24-1.73-20.3.17.81-1.57.27-1.36.8-3.83,3.77,2,11.59,3.24,13,.52,1.43.15,1.85,1.09,1.64,2.54,2.35-.57.9-1,.79-2.55C310.72,153.74,310.31,156.2,312.46,156.62ZM323,155.26v1.91c-3.95,1.52-6-.42-10.55-1.19C315.74,154.38,319.05,156.56,323,155.26Zm2.38-5.76a3,3,0,0,0-.78,2.56c-2.5.5-1.58-1.74-4.08-1.25C320.6,149.19,323.23,149.53,325.38,149.5ZM329,435.83c-.59,1.45-4.56.29-6.51.7C324,433.4,325.67,435.65,329,435.83Zm2.68-311.26c-4.51,3-11.86-.23-16.22.78a5,5,0,0,0,2.42-3.85c4.1.09,7.14,2.45,10.54,1.19C329.16,123.62,329.11,125.16,331.7,124.57ZM335.24,166c-1.51,1.16-8.87,1.56-7.32-1.85C330.49,165.85,332.44,165.58,335.24,166Zm-.33-47.19c.65,2.45-3.87,2.49-3.25,0Zm2.46,4.44c-.56,1.42-3.8,2.16-4.86,1.32C333.25,123.44,335,123.14,337.37,123.25Zm-49,327.58c-6.71-4.36-2.16-7.18,7.29-6.43-.69-.94-2.62-.9-4.07-1.24-.41-2,3.73-.52,4.06-2,1.1.18.68,1.6.82,2.54,7.91-.72,8.5-1,17.1-1.42,1.1,2.42,4.13,0,5.72,2.51,2.22-.6-2.49-1.41,0-2.55,5.73.47,5.17,2.22,11.41,1.18.13-1.82-5.32.82-4.09-1.88a15.34,15.34,0,0,0,9.77-.72,3.5,3.5,0,0,1-.79,3.2c2.15.17,2.67-.91,2.43-2.57,4.13-.72,5,1.13,6.53,2.49-4.3,4.78-19,0-24.41,3.4-9.71-1.54-18.45-1-28.52-1.69.13,1.18,2.76.37,3.26,1.25-.1,2-5,1.27-4.88-.59C287.71,447.67,287.56,448.2,288.4,450.83Zm78.27-312.51c-1.11,1-4.17,1.85-5.66.68C361.34,137.57,365,138.72,366.67,138.32Zm33.41,322.44c-.14,2.21-4.49,1.2-6.5,2C394.63,459.8,397.5,462,400.08,460.76ZM415.67,474a.41.41,0,1,1-.81,0c-2.8,3-.65-1.69-3.27-1.25.24-.87,2-.54,3.25-.66C414.78,473,414.71,473.92,415.67,474Zm4-10.23v1.91c-1.55-.26-3.5-.21-3.28-1.88Zm5.68-2,0,1.92c-2,.09-3.93.12-4.89-.6C420.55,461.5,423.19,461.84,425.34,461.81Zm8.94-4.54c-6.15,3.11-21.08,2.05-26.87,3.42C409.79,456.68,425.88,457.91,434.28,457.27Zm7.21-296.64a1,1,0,0,0,.82,1.27c-1.81,1.34-1.51-1.34-4.86,0,.29-1.08-.64-1.19-1.63-1.26C437.43,159.08,438.83,162.54,441.49,160.63Zm6.82,318.2c-.52-2.47-.7-2.63.78-4.48C450.33,475.65,451.69,478.72,448.31,478.83Zm5.69-2.61a2.69,2.69,0,0,0-.81,1.93c-.93-.22-2.07-1.11-.82-1.27-.54-.65-1.88-.65-1.65-1.91.74.39,1.46.77,1.63,0C453.24,475.11,452.92,476.22,454,476.22Zm8.65-308.76c.4,2-2.17,1.7-2.4,3.22a2.72,2.72,0,0,1-1.65-2.54A6.36,6.36,0,0,1,462.65,167.46Zm.69-13.4c.21,2.1-4.44,2.9-4,0A3.64,3.64,0,0,1,463.34,154.06ZM467.9,481.2c-.15-.74-1.49-.52-2.46-.61-.79-1.19,2.42-2.16,0-2.56.79-1,3.31,2,4.11,3.16-2.89.24-2,1.77-4.9.68C464.88,481,466.68,481.32,467.9,481.2ZM470,168c.92.12.45.64,0,.64-.22,1.68,3.16.48,2.46,2.52-1.95-.23-1.75,1.19-4.05.69a2.19,2.19,0,0,0-1.64-1.26C466.8,169,469.89,169.67,470,168Zm8.13,1.84c-.08,1.63-2.71,1.29-4.86,1.32C473,169.15,476.76,168.85,478.09,169.87Zm6.47-2.6c-.07,1.21-3-.49-4.06-.61C481.37,164.1,483.7,166.21,484.56,167.27Zm2.35-9.6c-.74,1.13-2.53,1.44-4.87,1.33A3.3,3.3,0,0,1,486.91,157.67Zm5.33,312.47v1.92l-4.06,0C487.87,470.17,490.82,470.75,492.24,470.14Zm4.16,9.53c-.09,1.42-3.45.31-4.89.68,1.75-1.4-.21-1.36-2.44-1.24C490,476.52,494.06,479.43,496.4,479.67Zm-2.18-320.78a7,7,0,0,1-5.68.68C489.34,157.09,491.33,159.45,494.22,158.89Zm10.17,302.86c-.54,2.33-3.25-.11-6.52.69.1-1.14-1-1.34-.83-2.55C499.66,460.38,502.44,460.73,504.39,461.75Zm7.33,1.21c0,1.85-4.58,1.55-5.69.68.48-1.74,2.22-2.51,4.87-2.59C510.83,462,510.78,462.86,511.72,463Zm1.72,8.28c-2.64,3.22-9.19,3-12.22.74-3.1,3-6.1,5.26-12.19,2.66,2.08-1.84,7.8.45,8.91-4.55C504.75,471.06,510.24,470,513.44,471.24Zm7.69-297.92c-3-1-3.93.14-6.5-.58C514.91,170.64,521.57,171,521.13,173.32Zm8.59,296.49c-1.91,2.23-5.14-.27-6.49,2.61-4.18-.41-5.76-1.79-9,.08l0-3.19C518.71,470.1,524.53,468.51,529.72,469.81Zm5.19-297.25c.24,1-.76,1.1-.79,1.92-2.61.16-3.45-1.1-6.5-.58C528,171.89,533.2,171.55,534.91,172.56ZM588.53,482c-2.16,1.88-3.15.57-5.7.05C585,480.19,586,481.5,588.53,482Zm8.85-12.2c-1.4-1.06-.69-3.74,2.4-3.21-2.42,3.83,3.63-.39,4.12,3.14C600.56,469.26,601.09,469.69,597.38,469.83Zm1.63.62c-5.44-.36-9.82,2.36-13.84,1.41-.61-1.95,1.38-1.89.77-3.85,1.25,1.15,5.58-.16,4.92,2.52C592,468.23,596.14,470.33,599,470.45Zm16.24-5.26c.2,1.89-2.87,2.27-4.06,1.31C611.87,465.55,613.23,465.11,615.25,465.19ZM614.5,180.1c.78,2.34-4.26,1.2-4.86.68C610.31,179.55,613.18,179,614.5,180.1Zm13.72,278.58c0,1.94-5.32,1.55-6.51.71C623.74,458.2,624.85,459.41,628.22,458.68ZM630,474c1,2.73-6.62,2.8-5.7.06C627.26,474.52,628.25,472.55,630,474Zm-1.73-294.64c-1.41,1.31.61,1.24-.78,2.55a31.29,31.29,0,0,0-11.38-1.16C617.84,178.46,624.15,179.73,628.29,179.33Zm7.28,280.56c-1.18,1-5.47,2.13-.79,2.55-1.09,2.76-5.18.34-8.13.72C629.36,461,630.92,461.1,635.57,459.89Zm1.85,18.47c-3.17-.68-6.33-1.39-5.76-5.05C633.32,475.2,636.87,475.58,637.42,478.36Zm2.19-21.71c-.69,2.22-3.28-.12-5.69,1.34C633.23,455.57,637.76,457.14,639.61,456.65Zm19.5-5.92c-.51.57-1,1.15,0,1.27.15,1.39-2.89.32-4.07.68A3.59,3.59,0,0,1,659.11,450.73Zm8.14.56c-.21.58-3,2.17-3.25.67-.78,0-.62.79-.79,1.28-2.38-.53-.93-.94-.86-2.55C664.85,450.21,664.77,451.78,667.25,451.29Zm19.48-7.21c-.27,1.7-2.12,2.18-4.05,2.59a3,3,0,0,0,.79-2.56Zm6.53,1.85c.69,2.43-3.84.85-5.68,1.33C688.75,445.43,689.72,446.53,693.26,445.93Zm8.14-129.55c0,3.18-12.78.19-3.25.67A5.44,5.44,0,0,1,701.4,316.38Zm10.5-5.2c-.07,3.09-4.9,2.54-8.9,2.63C703.55,310.58,708.81,311.07,711.9,311.18Zm18,131.21c-6.26,1.26-14.66.43-24.41,2.16.67,2.72,3.94-.63,5.72,1.21-.26,2.12-4.68,1.05-7.31,1.34-1.66-2.3,1.13-3.16-.08-5.73C713.78,441.6,720.65,439.76,729.88,442.39Zm-1-260.85c.86,2.14-2.52,1-4,1.31C724.27,180.65,727.68,180.54,728.91,181.54Zm21.37,261.28c-2.81,1-8,.39-12.23.76,1.6-3.28,8.19.57,8.11-3.27,1.7-.29,2.16.41,3.27.61C748.07,441.53,746.6,443.3,750.28,442.82Zm4-2.6c-.31,1.61-2.75,3-4,2A3.59,3.59,0,0,1,754.31,440.22Zm4.14,5.07c-1.63.88-8.61,3.83-10.59.11C750.74,447,755.08,445.31,758.45,445.29ZM760,319.62c-6.57,2.77-9.83,2.85-17,4,.31-1.24,3.72-.1,2.41-2.58C751.28,321.36,754.79,319.85,760,319.62Zm4.13,123.05c-.9,1.3-6.29.8-7.34.08-.34-1.53,3.72.32,2.42-1.94C760.49,441.72,762.41,442.12,764.13,442.67Zm3.3,2.52c-.73,3.15-6.6-.08-8.14,1.37C761.11,444,763.93,446.21,767.43,445.19Zm26.84-4.11a6.31,6.31,0,0,1-6.51,1.34c-.15-1.38,2.89-.32,4.07-.68.12-1.39-2.9-.26-4.08-.59C789.93,439.19,791.43,440.63,794.27,441.08Zm13.05.49a3.29,3.29,0,0,1-4.87,1.33C803.66,442,805.93,440.5,807.32,441.57Zm1,14c-2.11-1.34-4.62.64-5.72-.57C802.09,452.69,809.61,453.24,808.34,455.59Zm2.2-16c-3.54.28-6.55,1.56-10.58.76C801.2,437.76,807.77,439.47,810.54,439.62Zm8.18,1.19c-.22,1.31-2.19,1.28-2.41,2.58-1.28-.26-.73-2-3.27-1.24C813.12,440.33,816.42,441,818.72,440.81ZM829.39,176c.13,2.62-6.35.19-7.28,2-2.85-.14,1.43-2.84-.85-2.54C823.25,175,826.61,175.77,829.39,176Zm3.8,144.75c-.38,2.18-3.9,1-5.68.7C828.22,319,830.78,321,833.19,320.75Zm-.47-139c-1.86-.29-4.17-1.22-5.68.06C825,181.06,833.24,177.78,832.72,181.71ZM858,188.45c-.63,1.44-5.41,2.17-4.88-.58C855.55,187.38,856,188.49,858,188.45Zm2.54,111c-.11.74-1.47.55-2.42.66.64-1.82-1.17-1.64-.87-3.18C859.38,296.88,859.31,298.64,860.5,299.41Zm2.46.6c-2.36,0-2-3.57-.88-4.45C865.17,296.11,862.7,298.12,863,300Zm1.31-123.1c-1.77,1.78-5.79,0-8.12.08C857.6,175.45,862.5,176.57,864.27,176.91ZM872,308.21c.27,1.69-1.08,2.11-3.2,2l0-1.91Zm86.62-111.32c-2.58,2.74-5.77,1.12-10.49,2C950.21,197.36,955.27,195.44,958.64,196.89ZM1004.41,301c-5.39,4.85-16.3.78-24.35,2.21C985.24,299.18,998,301.24,1004.41,301Zm-62.52,4.57c-.79-2.49,4.29-.52,4.85-2-.57-.85-2.17.34-4.07-.59-8.19,6.6-23.82,2.3-35.72,3-9.76.55-18.09,3.52-25.15,2.82-.55-.64-1.89-.64-1.66-1.9-2.79,1.78-6.1-.33-9.76.11-1.14-2.07.91-1.62-3.27-1.25,1.5-1.23.06-1.6-.05-3.18,2.18-.46,1.59,1.3,2.47,1.89,1.16-1,2.68-1.74,3.19-3.23,1.63.42,1.9,1.92,3.3,2.52,1.66-.21,1.56-1.75,3.22-2-1.66-2.08-7.63-.13-9.81-3.08,4-.42,5,1.61,9,1.18-1.95-1-4.93-1.18-7.34-1.83-7,2.34-5.95,8.41-13.68,9.08.49,1.53,3.09,1.38,4.92,1.86-6,3.18-12-.53-16.23,2.72-1.09-.62-3-.57-3.27-1.87-2.3.44-7.27,3.07-8.13.72-1.53.09-.53,2.12-2.41,1.94-5.45-4.08-16.38,1.88-22-1-4,2.91-13.68,2.41-17,1.46C789,317.8,774,316,768,313.16c-6.26.34-5.59,2-11.36,2,1.74.16,5.07,2.31,5.71,1.21-.1,2.36-4,2-9.73,2,.13,0,.86-.75,1.62-.66-8.23-1-24.75,6.33-34.17-1.57,3.36.07,6.27-.23,8.12-1.35-1.89,1.05-11.11-1.88-12.17,2A3.57,3.57,0,0,1,712,315c.25-1.49.48-3,3.21-2.59.3-1.52-3.69.4-2.45-1.88,5.26-.14,8.38,1.43,13.83,1.14-1.84-1.31-5.28-1.82-10.6-1.81,11.81-3.5,19.43-4.08,32.49-2.88-.12-2.91-5-2-5.75-4.4,8.63,1.27,14.44-2.71,20.29-1.49l0,1.27c.4,1.37-1.14,1.23-2.42,1.3,1.46,1.89,4.32-.4,3.21-2.58,2.68-.05,4-1.12,7.3-.72-.09,1.4-2,1.39-4,1.32,2.46,2.69,8.15-.71,12.17-2,2.87-1,.52,2.16,2.46,1.89,3.17-1.3,20.63-1.86,24.39.37,2.1-.84,2.53-1.34,1.58-3.2,2.92-.42,4.59.18,4.91,1.86,3.1-3.23,8.12-.68,12.2.5,2.87-.09-1.76-2.08.79-1.91,2.07-.06,1,.46.82,1.26,3,0,2.42-2.77,6.48-2a11,11,0,0,0-.72,5.75c1.78-.1.3-2.71.74-3.84,3.48-.64,3.17,1.76,5.73,1.86-1.24-2.77,4.08-7.19,6.45-2.63-2.8.54-3.44-.68-4.89-1.22.12,1.59,1.55,2,.05,3.19,3.89-1.81,4.2-.29,8.14.55.3-1.49,2.26-3.42-.09-5.74,2.58.94,5.72,1.42,8.17,2.47-.07,1.63-2.71,1.29-4.86,1.32-1.43.17,1.25,2.36,1.67,3.17,1.83-.37-1-1,.79-1.92,1.9.18,3.06,1,5.69.58,1.38,1.25-.05.81,0,2.55,5.12-1.94,2.67-6.31,8.05-5.83a2.3,2.3,0,0,0-2.47-1.24c8.92-5.48,22.16,2,29.23-2.24,2.58,1.37,1.08,2,4.08.6,1.61,3.28-1.84,4.37-4.79,5.79-.37-1.33.53-1.69.77-2.56-3.93-.44-10.19-3.18-15.44.16,7.27-.24,11.91,2.27,17.92,2.37-.86,2-.34,1.69.86,3.17,2.78-.65-2.23-3.65.75-4.47,1.24,1.78,6.79-1.27,10.58,1.16,1.14-.23.05-1.11-.83-1.26,1.3-1.62,3,1.87,5.7,1.21a6.11,6.11,0,0,0-2.45-1.25c.5-1.91,1.74.6,3.25,0,0-.62-1-.48-1.64-.63.27-1.68,4.14-.61,4.84-2,1.29,1.26,4.24,3.11,5.71.58,10.67,2.76,22.36,2.81,33.37,2.78l0,1.91c7.79-2.49,14.93-1.14,22.73-1.55-5.7,4.82-15.62,1.38-24.35,2.21C950.87,303.9,947,306.51,941.89,305.52Zm95.06-3c.34,2.69-3.52.59-4.86.69C1032.07,301.42,1035.88,301.61,1037,302.48Zm35.73,115c0,1.94-5.29,1.56-6.51.72C1067.36,415.87,1071.44,417.38,1072.68,417.5Zm158.43-211.34c.74,1.31-4.08,1.32-1.57,1.93-.58.86-7.87,1.71-7.31-.53C1226.41,208,1228.36,206.79,1231.11,206.16Zm21.14,2.9c3.15,1-6.51,2.79-5.66.08C1247.86,209.29,1251.12,209.8,1252.25,209.06Zm94.19,62.34c-.84,1.42-7.7,3.3-7.31.11C1342.47,272.08,1342.41,271.39,1346.44,271.4ZM1388,251.61c-.74,1.3-3.07,1.43-5.64,1.36.34-1.82,3-1.88,4.78-2.63A1,1,0,0,0,1388,251.61Zm34-22.25c0,1.27-2.18.85-1.53,2.59-2.54.35-2.89-1.1-5.67-.55.11-.74,1.46-.56,2.39-.68a1,1,0,0,0-.84-1.26C1416.82,228.1,1421.31,228.78,1422,229.36ZM790.57,183.44a36.31,36.31,0,0,1-13,.14C781.81,182,786.21,182.48,790.57,183.44ZM13,150c-3.81-1.17-8.8,2.46-9.73-.57C5.33,148.4,12.41,146.66,13,150ZM88.65,395c-.2,1.65-1.42-.86-3.27,0v-1.9c1.7-.29,2.15.41,3.26.61C88.14,394.28,87.65,394.86,88.65,395Zm484.4,87.83c0-1.09-.63-1.64-1.64-1.89.09-1.4,2-1.4,4.06-1.32-1.41,1.32.61,1.24-.8,2.57,1.55.26,4.92-.92,4.1,1.22C577.7,482.53,575.22,482.8,573.05,482.81ZM886.7,460.5c-1.11.27-4.58,1.2-7.31,2a2.6,2.6,0,0,0,.79-1.93c2.34.12,4.14-.2,4.87-1.32C885.94,459.39,885.63,460.51,886.7,460.5Zm128-5.32c-.61,2.25-2.85.78-4.08.06C1010.82,453.74,1014.21,454.82,1014.72,455.18Zm416-229.81c-7.16-1.07-16.71-1.9-21.83-.89-3-4.71-16.46,1.54-18-5.46-3.26-.17-1.12,3.72-4.74,3.27-2.59-.92-4.58-2.34-7.39-3.08-2.22,2.13-7.08,1.2-8.14-1.15,1.08,0,.72-1.13,1.59-1.29,3.13,2,11.3,1.29,14.56-.23-5.88,0-13.4-1.36-18.6.29,1,.08,2.28-.14,2.44.6-2.37-.13-2.44,1.48-4.82,1.35-.55-1.38,2.23-2.06-.86-1.9-1.06.65-1.54,1.75-3.18,2-5.32-1.81-13.48-2.74-18.65-1-7.47-5.2-22.9,1.88-24.46-6.63-6.5,1.54-13.14,1.89-19.45-1-1.53.1-.5,2.12-2.37,2-6.56-3.77-16.37,2-24.26.37.44-2.54,8.11.49,5.59-2.63-11.46,2.67-21-2.34-30-2.11.26-1.47,3.54-.65,3.18-2.59-2.51.19-8-.9-11.34.15-.28-.86-1.18-1.2-.88-2.53-6,1.57-11.2-1.15-17.88-2.32-1.07,1.47,2.15,2.37.07,2.56l-4.85.06c1-.87,1-2.4-.89-2.54-6.9,1.16-15.45-.41-21.81,2.21,2.37-2.4-2.11-.56-2.44-.61-.13,0,.1-1.24,0-1.27-12.37-2.86-37.19,3.6-42.92-.06,1.4,1.46-3.51,4.13-6.44,2-.63-1.72,1.58-1.3,1.56-2.57-19.59,1.4-41.09.22-64,.85.64.14,1.61,0,1.64.62-10.74-.72-15.31-2.46-24.34-1-8.11-1-23.26-.07-27.57-.31.73.36,4.65,1.28,2.47,1.88-8.75-4-16.26-3.84-28.44-3.48-1-3-9.73-3-9.73.11,2.63.33,4.08-.24,4.84-1.33,1,.88,4.28,0,3.29,2.51-4.14,0-17,.85-10.57-1.79-12.53,2.46-16.43-2.21-27.57-.3-2.11-6.15-17.23-.9-16.28-4.28a10,10,0,0,1-10.57-1.14c7-1.73,11.84-.57,16.18-2.11-2.69.23-5,.15-5.7-1.21a10.28,10.28,0,0,1-10.54.13c.18,2.83-3.27.42-4,.05-1,2.08,2.63.45,1.66,2.53-5.28,1.13-11.73.24-17-1.71,1.51-.1,2.7-.46,3.22-1.32-4.5,1-9.65-2.38-10.52,1.4,1.69.36,5.32-.84,5.69.57a22.58,22.58,0,0,1-13.81-1.12c1.07.07,5.87,0,3.24-.68-3.79-.58-4.88.88-7.28,1.35-8.23-4.55-14.14-2.85-22.78-4.21-1.08,2.31-6,1.73-9.7,2a2.63,2.63,0,0,0-.84-1.91c-.26-1.67,3.15-.53,2.4-2.58-3.3-.14-10.65,1-15.44-1.74-2,1.33-11.79,2.91-13-1.14,5.66-.63,10.62-1.41,13.78-.15.85-2.15,16.72,1,15.36-2.72.73.93,1.25,2,3.28,1.88,1.15-1,3.65-2,5.61-3.88-.33,4.56,4.83-2.2,5.7,1.85,2.62.53,1.66-1.67,3.22-2,2.19.59,3.18,2.17,5.71,2.49,18.38-5.06,39.33.43,57.53-1.3-4.1-.57-9.24-.27-11.39-2.41,1.42-.19,4.07,1.75,4.86,0-1.42-.57-4-.18-4.88-1.22,4.36-1.14,7.32,2.21,8.93,1.17-4.66-.27.18-2.41,0-2.56-1.6-1.06-4,.7-6.51-1.83-.17,1.21.93,1.39.86,2.54-1.67-.17-1.62-1.71-3.28-1.88-11.18,6.63-28.83.82-42.07,4.31-.75-3.28-3.58-1.53-3.25,0-3.67-.94-4.25-2.29-5.73-3.78-3.31,4.33-13.23-.28-17.8,2.75-5-3.81-16.31.72-21.88.24a1,1,0,0,1,.82,1.27c-2.87.3-4.6,1-6.49-.57,1.89-1.59,1.52.93,4.06.59-5.88-4.49-15.16-.85-23.54-2.3-1.25.94-3.14,1.38-4.83,2-1.54-1.78-6-1.16-9.76-1.18-.59,1.86-1.95,3.13-5.63,2.62,4.21,4.36,11.84,3.13,17.07,2.36-2.81,2.45,1.69,2.86-1.56,4.49-2.37-3.53-15.28-.87-18.68-1.71,1.55.25,3.5.19,3.26,1.87-2.43,0-6.91,1.79-8.91.1,4.07.41,3.13-2.29,5.68-.06a11.91,11.91,0,0,0-6.55-4.4c-.58,2,2.8.75,1.67,3.17-.83,0-1,.53-1.62.66-1.13-1.76-8.87-.61-6.52-3.12-5.89,1.11-14.68.67-17.08-3-9.84,1.59-17.58,3.51-27.54,2.21-.16-.95.26-2.35-.85-2.54-.62,1.42-2.81,1.62-4,2.59-.26-2.22-2.19.08-2.45-1.25,1.14-.17.91-1.41,1.59-1.93a6.46,6.46,0,0,1-4-.6c-.59,2,2.8.75,1.66,3.17-2-.07-2.5,1-4,1.31-3.16-2.32-8,1.88-13.8-.5.25-.86,1.14-1.22.79-2.56-3,.24-2.84,2.88-5.65,3.26.19-.93,1.32-1.1,1.61-1.94-4,4.67-13.67-.38-16.24-.48.88.15,2,1,.83,1.27-13.11-1.11-24.33.38-36.51.36-.09-.72,1.17-1,0-1.28-5.51.6-33.58,8-28.4.28-.63-.14-1.6,0-1.63-.62.95-.11,2.31.08,2.42-.66-2.51-1-7.14,1-10.53,1.37-.81-.84-1.35-1.91-2.46-2.52-6,4.52-10.1-2.41-16.22-.49-.27-1.67,3.14-.53,2.4-2.57-8.29,5.3-22.37.95-34,2.88-.27-1.69,4.55.56,3.23-1.95-8.43,1.86-24.27-.23-34.88,1.6,2.46-2-3-.85-3.27-2.52,7.1-4.33,14.74-.52,24.31-4-.46-.93.91-3.31-.86-3.19-2.56,5.95-12.67,2.48-19.42,4.64-.36-1-2.56-.52-1.65-2.54-6.28,3.74-18.74,2.94-28.39.9-2.38,2.81-8-.37-12.15,1.38,1.75-1,1.26-3.68,4-3.87,1,1.67-2.48,2.78.83,2.55,1-4.7,11.57-1.63,13.76-3.31-2.09-.14,1.11-1.11,0-2.55-3.47,1.78-6.62-.08-9.71,2-1.83-1.92-8.6-3.77-4.87,0-2.8-3.68-9.3-.68-12.21-3.72,8.83.43,12.05-2.5,18.63-2.71-3.84-2.18-6-.94-9.74-1.19a2.64,2.64,0,0,1,.79-1.92c-11.75-.25-19.58.47-28.43-3.58-.11.75.17,1.81-.79,1.92-5.22-2.59-14.9-1.38-20.29-1.09,1,.07,1.92.18,1.64,1.25-3.56.07-7.79.67-8.13-1.84-1.87.26-.75,2.8-3.22,2.59-2.53-1.4-3.66-3.92-6.54-5,2.57,2.47-11,3.88-7.31-.57-5.06-.37-7.8,1.54-11.37-1.81-1.48,1.18-2.71,2.55-4.83,3.23.58,6.11-1.13,6.84-.72,11.49,4.31-1.4,7.47-2.19,8.93,1.83.9-1.71,7.41-1.67,8.93-.08,5.5-4.07,13.14,1.31,21.91.45-.44,3.08,2.71.72,4.08,3.15-2.92.27-5.43.88-8.1,1.34,1.15-2-.15-2.47-1.66-3.8-1.1,1.89-5.24,1.44-6.48,0-.94,2.68,3.43,1.11,4.06,2.52-3.12,1-6.9,1.41-9.7,2.64-1.59-3.55-7.59-3.29-11.37-1.82-1.63-1.47-1.62-1.69,0-3.18-7.48,2.85-16.71,2-21.91-.45-2.13,4.68-8.7-1.39-11.36.09a3.8,3.8,0,0,1,2.45,1.9c-2.49-.44-2.38,1.11-4.86.67.17-2.49-3-2.28-4.89-3.14-.78,1.19,2.44,2.11,0,2.55-6.86-.64-9.46-1.14-14.61.76-.72-2.09-.05-3.91-4.9-3.79a3,3,0,0,1-.79,2.55c2,.82,3.36-1.9,4.05,0-4.73,1.29-8.16-2.85-12.16,1.38-1.19-.55-3.14-.48-2.45-2.53,1.56.25.66,2.46,3.25,1.88-1-2.95,3.14-3,5.67-3.23-5.28-.22-8.46-7.11-10.58-2.46-8-1.48-13.48-4.06-21.94-6.2.18-.92,1.32-1.09,1.6-1.93-4.28-1.29-6.83,3.31-7.31-.58,4-.11,8.71.4,10.55-1.36-1.51-.07-2.72-.4-3.26-1.24,3.58,1.46.74-2.48,7.29-1.34-.67-2.43,2.36-2,2.41-3.86-1.94-1-5.4-.81-6.51-2.49,6.3-1.91,10.18-1.48,13.81,1.16-1.19.36-4.2-.71-4.06.67,4.48-.38-2.84,2.29,1.64,1.9,2.39-2.63,5.27-2.74,8.08-3.89-1.62,2.59,3.68-1.74,4.89,1.88,1.39-.62,1.61-2.14,3.22-2.58,6.32,4,18.63,3.4,25.18,4.25-1.21-.74-3.63-.51-3.26-2.52.81,0,1-.52,1.62-.65,2.51,2.83,7.92-.4,8.95,3.11,4.17-.08,4-.68,6.49.59.72-1.41-.45-3,4-2.58-.22,1.29-2.18,1.26-2.41,2.56,6.4.21,18-2.27,21.92,1.09,10.49-9.91,27.16,3.68,35.65-3.51,0,.84,1.43.57,1.63,1.26-2.11-.36-2.91.28-2.41,1.94,4.11-.24,4,0,9.74,1.19-1.23-3.51-7.52-3-9.78-5.66,1.73-1.2,5.93-.48,8.92-.71-1.06-1.85-8.36-1.85-10.56-1.82-.11,0-.42,2.06-1.61,1.92s-2.1-1.77-3.26-1.88c-5.42-.57-13.32,2.7-16.23-1.14,2.87.33,4.18-.57,4.85-1.95-13.56,1.54-21.91-.28-37.3.33,0-.63.64-.77.79-1.28-5.27,1.48-11.09-.88-17,2.06.18-.92,1.33-1.09,1.61-1.93a44.44,44.44,0,0,0-8.91,2.62c1.7-1.55-2.72-2.09-3.27-3.79.15,1.38-.65,2-2.42,1.93-1.8-.91,1-1.57-.83-1.91-4.16.79-8.91,1.14-12.15,2.66-.05-1.17,4.15-2.2,1.61-3.21-5.08,3.34-18.74-1.17-23.55-1.72,2.41.76-2.51,2-3.23.67-1.07,1.6,3.22,2,.82,2.54-1.11-2.5-6.45-.64-7.31-1.85-1.28-2.26,2.75-.41,2.42-1.94a47,47,0,0,0-11.37-3.1c7.59-2.83,22.59,2.06,33.22-2.82-.69-1.49-3.54.56-4.85.68-.57-4.2-2.81-.33-4.88-1.87,2-5.18,8.7.27,12.16-1.38-1-.06-1.93-.17-1.64-1.26.82,0,1-.53,1.62-.65,5.07.37,14.06,2.63,14.59-.76,4,.27,7.09,4.58,10.57,3.1-4.21-1.12-8.11-2.5-9.78-5.66.06-.89,5.84-.43,3.23-1.3-5.88,2.11-8.09,1.78-13.77,2,.61,1,4-.18,3.26,1.88-2.45-.17-6.29.76-6.5-1.22,2.35-1-1.24-3.34-1.63-1.9,2.2.56-.66,2.36-1.6,2.56-.16-.94-2-.56-3.25-.6a3.06,3.06,0,0,0-.83-2.55c-2.51,0-3.87.82-5.67,1.32-10.4-3.44-25,3.55-34.86,1.56.49,0,1-.1.8-.64-1.72,2.81-6.74.67-6.47,2.6-.93-.6-5.36-1.61-5.68-.59.5,1.11,3.85-.08,4.06,1.25-.16.72-.89,1-1.6,1.28-2.14-1.71-2.51-.84-4.88,0l-2.43-1.88c-5.06,1-7.26.79-12.17,1.37a2.64,2.64,0,0,1,.79-1.92c-2.15.66-4.12.7-5.67-.6a15.11,15.11,0,0,0,5.65-3.23c-3.55,1.06-9.27.43-10.51,3.28,1.44.36,3.35-1.89,4.05,0a22.57,22.57,0,0,0-6.48,2.6c.1-1.14-.81-1.48-2.43-1.24,1.78-1.63-.95-3.52-2.47-4.45-.52,2.34,1.78,2.43,1.66,4.45-3.77-.51-.84,1-2.44,1.3-4.14.31-4.61-2.29-8.13-2.49,1-2,4.21-2.26,5.67-3.87-4.57-.36-5,2.48-8.91,2.62.08-1.6,1.53-2-.82-2.54-5.11,4-15.5,2.75-21.89,3.36,1.09,1.56,2.45-1.17,3.25.61-.21.9-1.77.74-2.43,1.3-.45-1.55-3.15-1.34-2.46-3.81-4.54,2.31-9.49.41-15.39,1.39-.77-.94-2-4.75-4.09-2.52,1,.07,1.93.18,1.64,1.27-3.42.63-5.81.65-11.35.71-.55-4.46-7.22-4.06-10.58-6.29-1.79.93,1,1.55-.8,1.92-8.32-3.06-13.38-2.72-24.36-4.28,5.31-1.06-5.08-.82-1.63-2.54-3.58,1.41-10,2.44-12.16,1.37,1.31-.46,1.33,3,0,2.56-1.65-1.13-.23-2.36-3.24-1.26.47-2.3-.32-3.59-2.46-3.8-1.12.39-.11,2.45-1.61,2.56-2.51-1-3.16-.53-4.87-1.24a3.78,3.78,0,0,0,2.42-1.93c-2.69.46-1.31-1.3-.81-1.91-2.51-.56-5-1.17-6.5-2.5,0,3.13,2.07,4.7,0,7,2.56.3,2.25,2.9,3.26,4.44-12,.42-27.85-1.94-38.15-6.72,1.57-2.07,1.54-4-.84-5.74-4.82,12.09-20.41-1.71-30.81,3.4-1.12,3.56.7,3.91.85,7.66-6.39-.52-7.82,2.83-10.53,5.17-4.81,1.17-6.87.57-12.16,1.37-.1-.79-.25-1.51-1.63-1.27-2.21.6,2.16,1.17.82,3.18-5.52.46-6.87,6.54-12.15,5.19,1.62,3.48,0,5.58-.78,7,0-.83-2.26-.79-2.44,0,1.3.19-.06.91-1.62.65,1.73-1-4.07-4.8-4.88-1.88,2.89,1.22,8,2.27,5.7,5.7,2.87-.36,4.18.52,4.88,1.88a18.69,18.69,0,0,1-3.24,2.57c.73,1.34,2.25,2,3.26,3.17-3.64,2-12.88,3.87-17-.52-3.24.87-6.81,6.44-9.73,2a8.18,8.18,0,0,0,4.86-3.22c-3.23,0-7.38,4-9.74.71,6.69-4.22,17.34-6.71,26.76-5.3-5.93-3.51-17-.6-25.15,2.09-3.41-1.46-11.06-.7-15.41,1.38-1.88-.42-2.18-2.1-4.06-2.51-6.13.24-20,6.33-19.48-1.15-2.89-1-.48,2.17-2.42,1.93-1.43-.58-2.83-1.17-2.46-3.17,7.9-5.74,19.11-8.92,27.56-14.23-2.23-1.63-5.56-2.39-5.7-5.69-18-.06-24.55,15.31-43,15,2.68,6-4.92,8.61-.77,14a5.52,5.52,0,0,0-3.25.66c.89,5.09,2.27,8.63-1.59,12.12,0,1.06,2.24.35,2.44,1.25-2.74,0-2.19,2.56-3.25,3.86.5.88,3.12.08,3.26,1.25,3.38,14.1,8.38,21.19,15.5,36.25,6.39,3,9.22,8.88,15.45,12-2,2.57,3.9,5.41,1.65,8.28,1.85-.2,3.06.13,3.25,1.25-1.84-.16-3.05.17-3.25,1.3,4-.58,1.52,2.94,1.64,3.18,2.29,4.92,9,8.88,10.59,14.59-8.7,2.38-17.11-5.83-24.36-2.39-2.9-1.75-7.57-2.09-8.15-5.68,2.57-.14,4.85-.48,4.86-2.58a53.68,53.68,0,0,0-19.49-5c-1.18-5.67-11.78-3.87-17.88-5.62,0-1.27,2.21-.83,1.62-2.57-8.69,1-19.6-.22-28.43-2.35-3.22-7.41-21.47-5.75-22-13.26-3.89-.74-8.13-1.21-9.74-3.76,1.1-3.17,4-4.92,3.23-9.58-2.1-3.44-8.89-3.17-12.18-5.66-.25,2.37-5.17,4.43-8.11,2.6.55-1.28,2.47-1.48,3.25-2.58-3.18-3.79-2.42-7-4.89-10.81-2.69.24-6.79,1.1-7.3-1.87,1.44-.39,3.37,1.85,4.06,0-2.59-.07-2.41-2.34-4.88-2.52,0,4.27-3.23.2-4.87,0-2.33,1.45.39,3.14-1.61,5.12-10.16.51-17.37-11.71-24.35-5.59,1,.87,3.53.6,5.68.6,5.27,5.39,12.35,9.35,19.48,13.27-.25.86-1.15,1.22-.81,2.56,2.81-.37,4.33-1.74,7.31-2,1.11,1.25,2.25,2.46,5.68,1.87-3.32,2.95,2.49,2.76,2.44,5.1-2.63.95-2.3,1.23-1.63,3.82-1.61,0-1,1.76-3.24,1.3-7.27-1.47-15.63-3.57-25.16-3.66,3.49,4.26,11.44,5,17,7.54-1.18,5.69,1.82,7.39,6.5,11.44,2.63.77.62-2.07,3.25-1.29,2.37,6.41,10.06,11.3,8.13,19.07-10.07-.4-10,7.11-20.29,6.51-.16,2.85-3.25,3.42-4.06,5.76.25,1.31,1.63,1.69,2.44,2.54-.54,1.71-2.44,2.35-4.07,3.21-2.6,8.45,8,6.41,8.14,12.71-7.09,1.7-17.55.79-22.75,4,3.15.52,4.42,4.78,1.63,6.37,4.46,2,5,7.1,9.76,8.86,8.05-3.23,7.67-10.52,17.05-13.5,5.25,10.15,29.18,8.66,36.59,10.61-1-.26-1.67-.81-1.64-1.9,3.94-.56,5.75.55,8.14,1.22-.58-2.56,4-1.11,4.87-2.59-1.2-.54-2.58-.94-2.45-2.53,12.7.26,19.71-3.69,32.5-4.68.12-.75-.14-1.81.81-1.92,17.27.51,28.78-2.73,44.69-4.13.11-.75-.15-1.81.8-1.92,3.35,1.14,7.66,1.05,9.75,1.22a1,1,0,0,1-.81-1.27c12.57.94,29.17-2.62,31.7,6.79-1.16-.71-2-.67-2.43.65,2.34,1,6.51,3,4.09,5.71,4.15-.8,6.91,3,4.88,5.07.27.86,1.17,1.21.83,2.54,2.6.52,1.68.54,3.24-.66A2.61,2.61,0,0,0,2,278.89c-1.28.07-2.82-.06-2.43,1.3,5.5-.6,1.11,2.85,3.26,4.43,3.11-.34,2-4,6.49-3.23-1.87,1.43.29,2.49,0,4.47-.5-.19-3.14-1.57-3.25,0,2.09.05,1.31,2.37,2.44,3.17a5.52,5.52,0,0,0,3.25-.66c-2.95,2.33,4.21-.09,2.45,3.16-5.39-1.65-9.95-.51-15.43.75C-3.32,288-12.92,289.67-15,285.4a5.92,5.92,0,0,0,2.42-1.31c-1.78-.47-2-2.21-3.25-3.16-8.85.9-10-9.41-19.53-10.07-.19,3.45-4.3,3.6-8.13,2.61,0,3.19-2.61,2.42-5.68,1.95,1.8,6-7,6.69-4,11.51-1.08-.82-3-.82-3.25.66.61,1,4-.17,3.26,1.89-.15.95-2,.6-3.25.67.45,6.67,9.86,6.24,13,10.74-12.77,3.72-18.79-5.54-29.27-3.63v-2.55c-9.82-2.21-9.64,8.35-17.86,7.14-4.24,3.94-9.84,6.8-17.07,8.41.72.8-5.1,1.94-5.68,3.86-13.53.12-.17,12-2.41,16,2.58,2.41,6.11,4.1,7.33,7.6-3,.1-2.35,1.19-.8,1.92l-3.26,0c.21,4-2.71,4.18.82,6.37,8-1.93,15.32.77,18.71,6.26-1.26.06-.63,1.63-2.43,1.28-.7,2.91,4.07,1.47,4.08,3.8-5.59-.87-6.23-5.7-11.39-6.93.66,1.8-1.15,1.66-.83,3.19,1.55.14,1.8-.73,3.26-.66-1.6,1.25,1.64,1.95,1.64,3.82,3.51-.11,3,1,6.5,1.87.33-1.08,4.78-2.16,5.7-.68-5.11-.21,1.33,1.74-2.43,2.58,7,1,9,2.69,13,2.45-2.69.89-4.68,2.33-4.87,5.13,2.18-.44,1.57,1.32,2.44,1.91,10.36,1.21,14.55,7.64,26.87,8.75-3.23,3.51-10.66,1.45-18.7,2.67-1.33,1.94-3.58,3.17-3.25,6.41,8.78-.6,19.83,4.41,29.31.43,5.44,3.93,18.22-2.21,27.67-.83,3.7.54,12.57.25,14.62-3.93,11.53.26,23.64-1.83,38.25-2.18,1,1.66-2.5,2.76.82,2.54,4.18-3.35,13.73-1.37,17.88-3.32-13.77-.4-26.06-1.74-39.88-1.63-.18-.9-1.34-1.06-1.62-1.9,8.77,1.27,20.43-8.26,18.7-3.32.83-.83,4.32,1.65,7.33,1.22,2-5.7,8.45,0,13.83-.73-.26-1.68,3.16-.53,2.43-2.57-.26-1.93-3.15-1.77-3.27-3.81,5-4.46,10.34-1.49,17.89-2,.32.91,1,1.08,0,1.91,1.95-.46,7.76-1.9,7.33,1.23-4,1.27-1.43-.23-4.07-.6-1.64,2.32.12,3.61,2.45,4.44-2.45,1.27-2.29,4.58-5.68,5.14,1.53.08,2.74.4,3.27,1.26-.59,1.44-3.1,1.41-3.24,3.21a17.47,17.47,0,0,1,10.59,1.2c0-3.39,5.07-2.25,6.5-2-1,1.8-3.34,2.13-5.69,1.31,1.52,2.88-3.24.89-2.44,3.21,3.24.93,12.14-7.05,16.27-1.39-7.29-1-8.68,2.6-13,3.92-2.56,8.48,7.22,5.9,12.25,8.83,7-.91,17.41,2.67,22.79.47-2.54-.75-8.11.43-9-3.12,1.7-3.18,4.82,1.55,5.7-1.32-3.59-.82-5.11.67-6.52-1.87,1.07,0,.73-1.11,1.61-1.28,3.29.74,7,2.56,6.54,4.42-.27-2,2.35,1.6,2.43-.66-1.2-.53-1.19-2-1.64-3.18-4,.19-6.6-.74-7.34-3.13,5.95-3.39,10.78.21,15.44-3.95.71,1.41,5.87,2.56,7.34,1.23-1.46.09-1.91-.62-1.64-1.91,11.84,2.64,18.67,2.25,29.31,3-2.94,1.9-4.61,1-8.13,2,1.66,1,4.22,1.35,4.91,3.15-2.74,1.35-5,2.49-4.87,4.51-4.5.52-7.37,2.85-12.21,1.36,1.75,2.77,5.54,1.25,8.15.58,0,.64.66.76.82,1.27-3.89,3.47-2.15,6.23-.76,11.48-16.74,3.43-30.53-4.08-47.21-.27-6-.59-12.26-4.07-21.18-3,.32-1.53-1.49-1.37-.83-3.18-7.18,1.59-13.85-.32-18.73-2.42-.74,4.38-6.89-1.35-9.77.72-.31-.91-1-1.08,0-1.93-6.21,4.08-10.38-4-17.91-1.77,3.48.43-3,3.49,3.27,3.16,1.1-1.46-2.11-2.38,0-2.56-.21,3.88,6.52,3,9,6.32,4.53-3.59,9.09-.18,15.46-.11.63,1.24,2.07,5.12,4.08,3.16-3.31.33.62-2.26.8-3.2,4.69-.08,8.93,1.91,13,2.46-1.46,3-1.32,2-4.87,1.31.08,2.38.92,1.81,0,3.84,3.75.77,4-1.2,5.69-2-1.14,4.24,9.35,1.58,12.23,3.73-.16-1.38.66-2,2.43-1.92-.31.91-1,1.08,0,1.91,15.58-.23,29.81-2.43,44-1,4.74-2.15,18.63-4.1,17.93,2.43,17,3.3,34.41.39,52.93,2.14,6.15-3.19,13.89-2.61,19.53-1.42-.84-.18,1.71-1.49,3.26-.67,5.75,3.06-4.13,4.65-8.94,4.53,4.22-.29.05,4.21-.79,5.75-9.1,1.7-16.48,1.59-24.4,3.37-2.11-.24-2.46-1.88-4.9-1.87-3.42,2.53-7.2-1.18-11.4-.55-2.39.36-4.11,3.13-6.49,3.24-2.66.12-5.06-2.54-7.35-2.5-1.36,0-3.72,1.16-4.87,1.31.12,0,.55-1.27.81-1.28-2.45,0-3.62,1.81-5.69,2-.37,0-.63-1.83-.83-1.91-3-1.06-6.55,2.33-9.76,2.62-2.36-1.82,2.74-2.92-.82-3.17-.21,2.17-3.66,1.83-4.88,3.22-2.31-3.51-9.17.37-8.15-3.12-5.53,1.2-15.26,2.82-20.35,2.7,1,.1.9,1,.83,1.91-6.11,0-8.1.06-11.39,1.36,0-.64.65-.76.8-1.28-9.18.44-17,.93-22.8.17-.81.84-1.33,1.93-2.43,2.56-2.05-1.65-2.57-.92-4.07.67-1.64-1.17-1-3.73-3.27-2.52,2.78,1.78-3.2,2.13-4.87,2.58,0-1.27-2.23-.79-1.64-2.54C63.3,432,65.9,432.7,66,431.5c-5.37.22-5.33,2.12-5.68,5.14,1.94,1,5.22,1,7.34,1.86,1.51-3.64,10.26-1.5,12.2-.08-1.07,0-.73,1.12-1.62,1.27-.13-.74.14-1.8-.82-1.9-4.73,4-9.81,1.8-16.28,1.4,1.92,2.5-1.53,1.95-1.61,4.47,6.43-.06,12.91-.33,18.73-.13-2.57-1.22,2.38-1.91,3.25-2.57,1.57.92,6.18,2.72,7.34,1.86-1-.11-.9-1-.83-1.92,3.42,2.82,8.38,1.62,13,2.46-5.1-.31-2.74,1.23-6.5,2,3.58.83,5.58,1.64,8.14-.7l0,1.92c7.64-2.18,19.54,1.92,29.31-.23.12.76-.13,1.82.82,1.91,8.52-2.43,21,1.78,25.25-.83.33,2.39-3.7,3.32-5.7,2,.57,4.41,5.25,1,7.33.58-.12,0,.15,1.25,0,1.27,3.23-.71,4.67-3.57,8.13-3.89,4.41-.41,5.67,2.92,11.41,1.84-1.73-3,6-.23,8.13-2-8.78-.27,9.8-3.08,9.78,1.2-2.7-.18-3.07,1.44-4.88,1.94,4.47-.28,2.38.65,3.28,3.17,3.61-.73,4.06,1.06,6.52,1.23-.39-2-3.66-1.79-4.9-3.15a4.62,4.62,0,0,0,2.43-.66c1.9.77,3.18,4,4.91,1.23a3,3,0,0,0,.83,2.55c-13.12,1.59-17.91,2.63-30.14.23-7.33,2-15.1-2.06-22.81,1.45-.08-1.2-2.69-.42-2.44-1.89-10.12,1.93-21-4.62-29.33.23,2.31.08,5.59-.6,5.71,1.22-2.53-.16-14,2.15-11.41-2.47a18.92,18.92,0,0,1-6.51.69c-1.24,2.7,4.21.07,4.08,1.88-3.68.32-11.9,1.62-14.67-1.79-14.86.23-26.11,1.2-35.84-2.29-.49,3.3-1.63-1.48-3.27-1.25-2.08.83.77,3.11-.8,3.18-.82,0-1,.53-1.63.65-3.14.59-2.9-1.53-4.89-1.87-1,1.78-5,1.21-8.14,1.33-.63-4.8-6.53-1.7-9.78-1.85-13.34-.57-31-2.64-41.55-2.25,8.3,1.76,11.07.18,17.93,3.06,9.7-2.63,22,1.05,32.58.41-.12,1.59,1.29,2,1.64,3.17-1,1-3.07,1-4.06,2,3.14,1.34,11.83-2.65,17.11,1.15.45-2.11,3.07-.93,4.88-.67,2.63-4.36,14.89-4.2,19.54-3.33-.18,1.2-7.41.13-4.89,1.31,2.43,0,5-.09,4.9,1.88-1.43.37-4.79-.74-4.89.67,2.6.92,7.91-.29,6.53,3.78,3.43.46-1.11-2.42,2.43-2.56.18.49.69.73,1.64.62,1,2.93-1.47,3.1-2.43,4.48,3.65,1.68,3.86-.95,4.07-1.93,2.54,1.68-2.13,2.43,0,3.82a29.71,29.71,0,0,0,9,1.21,2.2,2.2,0,0,1-1.63-1.27c1.44.37,3.37-1.89,4.07,0-1,.1-2.31-.1-2.44.66,4.55,1.71,12,.1,14.67,3.07,2-.86-1.47-1.91.81-2.55,4.67-.93,4.23,2.19,7.35,2.49.43-.93-1-3.29.79-3.19,2.88.28,7.85-1.11,7.35,1.85-.87.47-6.21.62-4.07,1.31,4.58-1.27,7.78.12,9.76-2.62,3.28.74-.58,3.44,2.46,3.8,1.13-.39.12-2.45,1.62-2.56,1.09,1.15,9.68,3.78,5.7,1.23,3.45.56,4.12.46,9,.57.13-1-.3-2.35.8-2.56,13.64,2.24,25.42-.75,37.48,1,.31-1.11-1.22-1.63,0-1.92,4.58,1,8.31,1.85,11.4-.72a2.64,2.64,0,0,1-.81,1.92c3.34-1.19,7.63.2,10.6,1.19-2.23,2.55-6.43.4-7.31,4.52,5.64-.41,8.1-5.7,14.65-4.57,1.1-1.47-2.12-2.38,0-2.56,2.48.79,3.17.47,4.89-.67,0,2.17,2.4,2.36,4.08,3.16,6.49-2.43,12.74,1.86,18.73-2.06,13,1.64,32,.93,42.35-1.63.74,1.55,4.56.66,4.1,3.15,4.64-2.36,7.26,1.54,10.58-1.35-1-.07-1.93-.18-1.64-1.26,1.95-.56,2.16-.43,5.7-.69.09,1-.1,2.21,1.65,1.9,2.59-4.14,9.13-.11,13,.53.24-1.26-1.11-1.26-1.64-1.89,3.16-.36,9.06-.84,9.79,2.46-2.07.71-2.86-2.71-4.07-.6,1.14.16.93,1.39,1.64,1.89,8.85-3.72,21.13-2.62,26.87-2.12,2.11.18,3.12-2,4.06-2,2.55.13,4.57,2.94,9,1.85-.82.2,1.14,0,3.26,0,.81,0,9.33-1.43,11.41,1.18.36,1.6-6.35.95-4.05,1.94,2.93-.24,3.92-1,6.52,0-.66-3.3,4.25-2.7,5.69-1.33-2.58,1-6.24,1.12-7.31,3.25,5-1.06,14.48-3.91,13.87,1.8,0-.65,1.42-.81,1.63,0-3.31,1.61-2,3-4.86,4.5,10.48-5.58,19.05,3.35,28.48-4.72.2,1.21-.9,1.42-.79,2.56,2.54.05,2.31-2,5.7-1.32-.17,1.2.93,1.4.84,2.54,2.12-.26,4.47-.37,5.7-1.32-3.61.31-5.18-1-5.74-3.14,5.44.91,8.07-2,13.05,1.15-3.26-.59-2.43,1.94-5.7,1.33.81,1.5.3,4,3.3,3.8.13-.95-.32-2.35.79-2.56-.52,2.9,10.14,3.69,14.7,3.7.86-2.4-2-1.8-1.66-3.81,1,.72,2.88.7,4.9.59-1.69,1.57-1.16,1.37-.79,3.83,2.63.55,1.1-2.11,3.25-1.94-.08,2.43,4.3,1.29,4.91,3.15,3.56-2.17,4.6-.41,4.09,1.23,3.1-1.78,4.32-1.18,6.49-3.24,1.37,1.26-.06.81,0,2.55,3.49-.69,3.14-.39,5.71.59,1.25-.73,2-1.86,3.23-2.58,1.47,1.28,3.32.39.84,1.9,9,1.2,11.92-6.08,16.26-4.6.49-4.71,4.25-2.9,7.32-1.34,1.1-1.47-2.12-2.38,0-2.56,2.27,1.4,4.15,1.19,7.34.58.72,2-1.26,2-1.6,3.2,1.81-1.07,4.42.1,4.88-.68a3.81,3.81,0,0,1-2.46-1.89c1.92,0,2.39-1.12,4.88-.68l0,1.91c6.86-3.56,16.52-.44,19.52-3.36,2.61-.59,1.71,1.64,3.28,1.89a2.62,2.62,0,0,0-.83-1.91c2-1.48,11.63,3.33,6.52-.06,3.86.23,5,2.72,7.34,1.21-1.9-.17-1.92-1.71,0-1.91-1.16.94-.61,2,1.65,1.89.77-1.1,2.54-1.41,4.06-1.94-2.18,1.75,3.76,1.12,4.9.58-.64-.13-1.61,0-1.64-.62,1.63-.28,6-1.63,7.34-.07-.49.89-3.14.13-3.25,1.31,2.76,1.1,3.62-.9,6.51-1.34,1.3,3.8,8.09-2.93,9,1.83-6.56-2.39-10.72,5.82-14.67.78-.11,3.6-2.87,1.46-6.49,2.62,1,2-1.26,1.56-1.6,2.56,3.77.47,2.32-.73,3.24-1.31.78.67,3,.17,2.47,1.89-1,.11-2.32-.08-2.44.67,3.36-.54,5.08.22,5.72,1.84,4.27-1.51,7.27.26,16.31-.79,1.51-1.13-1.14-2,1.6-2.56,10.64,2.81,20.29-2.9,28.52-1.56,1.65-1.94-1.55-3.65,2.4-3.85,2,.89,1.47,2.19.86,3.82,7.46-2.59,12.32,1.22,20.39.45,3.31-5.45,14.57-.3,19.52-4.66-3.77.93-8.64,1-10.61-1.17,3-2.35,12.59-3.16,11.42,1.16,4.44-2.31,8.31,2.55,9.77-1.37,1,4,10.23,3.79,15.52,2.4-.79.21,1.21.71,3.26.61,10.79-.57,24.09.26,34.21-2.89.1,1-.08,2.22,1.66,1.91.07-1.63.11-3.29,2.4-3.22.54,1.39-2.28,2.05.84,1.91a2.8,2.8,0,0,1,4.06-.68c1.8-.93-1-1.55.79-1.92,1.53.07,2.74.39,3.28,1.24-.06,1-2.07.52-1.6,1.93,3-1.4,3.68-.86,7.31-2,.12-2.18-2.75.09-3.29-2.51,17.45-8.23,38.61-6.2,57-7.63.92,1.63-5,1.08-2.42,1.94,7.86-1.79,9.56-3.78,15.49-.79,3,0,3.09-2.28,4.85-3.26,2.9,1.58,11.33-3,14.69,1.13.43-2.35,4,.19,5.68-2,.12,2.35,1.53,1.83,2.45.61.42,3.67,4.5.83,5.76,3.13,1.29-2.17,3.61-1.72,6.51-.7,1.8-.94-1-1.55.79-1.93,4,1.46,9.94-1.91,12.26,2.42,2.22-3,13.11-2.14,15.52.47.55-3.61,9.76-3,9.76-1.37a59.88,59.88,0,0,1,9.7-4.57c-.4.95-1.18,1.62-1.57,2.57,15,.54,26.92-3.22,45.68-.53-.07-1.09.59-1.64,1.6-1.93,5.63,4.78,18.55-4.1,18.83,3.6,4.14,0,.32-2.24,3.2-3.22,9.35.56,16.06-1.65,21.24,1,5.08-1.82,7.46-1.17,13.83-2.71.28,1.46-2.34.73-2.42,1.94,7.84-.43,11.9-2.14,18,1.06-.37-3,4.28-2.2,4.81-4.53-4.46-.15-10.06-.19-12.31-3.67,3.51-1.27,5.09,2.3,6.53.55-8-4.19-12.56.72-22,.26a2.53,2.53,0,0,1,.78-1.91c-3.2-1.12-6.82.48-9.76,1.39-15.57-4-34.2,3.61-49-1.33-4.76,2.94-13.56,2.78-21.15,3.44,1.26-3,9.36-.86,10.53-4-4,0-20.22,2.1-18-2.34,0,1.69.51,3.75-1.58,3.85-2.21.48-1.66-1.25-3.27-1.25-1.44,3.59-14.93,1.73-19.54,1.48a1,1,0,0,1,.83,1.27c-1.52-1.19-6.89,2.43-9.77.11,1.85.15,3-.19,3.22-1.31-3.38-2.27-2.74,2.57-6.49,2-.27-1.47,2.34-.74,2.42-1.94-6.87.93-19.17-.39-25.26.91-1,2.07,2.64.46,1.66,2.53-1.18-.33-4.19.8-4.08-.6.18-.91,1.33-1.08,1.6-1.92-12.53-.22-24.71,1.16-40,.42-2.07-2.93-11.88.74-16.3.18-5.83-.74-15.41.88-23.62,1.52-13.09,1-26.5-1-37.48,2.31-.1-1,.09-2.21-1.66-1.9-.13,1,.33,2.35-.78,2.56-3.76-.41-6.54-1.64-8.19-3.74a13.68,13.68,0,0,1-3.23,3.21c1.45.17,4-1.84,4.89-.05-1.54.29-1.44,1.85-4,1.32-3.38-4-1.48-1.39-6.56-2.49a2.29,2.29,0,0,0,2.44-1.3c-3.71,2-9.46-1.36-13,.77,4.25,1,5.58.34,9,1.83-4.24.48-5.22.07-8.95,1.36-.79-1.18,2.43-2.16,0-2.56-3.81,2.72-10.21-4.22-15.51-1.12,1.65-.56,4.5,1,2.46,1.25-2,.12-2.53-1-4.09-1.23-3.08,4.39-9.06.47-13,2.67-2-.86-2-1.79-2.49-2.52-1.34,2.14-8.88,2.86-10.55,2.65-.43-2,3.73-.51,4-1.95-8.18.5-10.89,2.72-14.62,4-1.87.22-.92-1.82-2.47-1.89,1.36,2.77-4.8,3.43-8.91,3.92.25-2.25,0-3.29.77-3.83.87.72,3.75.2,4.88-.69-2.35-1.23,2.39-2.33,2.4-3.85,1.69.34,1.73,1,.84,1.9,6-1.53,13.53.07,19.54-1.45-.11.75-1.44,1.45,0,1.9-1.29-2.24,2.76-.41,2.43-1.93-2.35-1.24,1.85-2.74,3.22-3.23-.9.94-.86,1.56.83,1.91,1.82-3.94,6.14.37,8.14-2,1.89.92-1.57,2,1.65,1.91l0-2.55c2.93-.34,11.44-.67,13.83-.78,2.07.3-2.31-3.14,1.6-2.56-.54,2.9,9-1.3,9.82,3.09,7.53-2.15,10.64.84,17.08-2.08.36,1.08,4.82,2.08,5.72.58-1.32.49-3.56-1.23-1.64-1.26,12,2.79,28.07.85,40.78,2.13a2.18,2.18,0,0,1-1.64-1.25l3.26,0a2.62,2.62,0,0,1-.79,1.92c2.81-1.62,7.07,2.31,9,1.19-2.34-.72,1.31-.76,1.63,0,.53-1.76.13-1.45,2.41-2.57-1.22-.1-3,.26-3.27-.61,6.94-2.69,17.13.13,24.47.38,2.54-1.2-2.79-2.13-.05-3.19,2.56,2.31,6.25-3.14,7.33-.08-.66,1.63-8.37,1.14-4.83,3.88,3.87-1.7,6.5-5.83,11.37-3.3-.8-6.28,10.26-3.54,13.76-6.54,2,1.25,7.38,3.08,10.61,1.17-5.89-.65-10.89-2-13.13-5.6,1-.11,2.32.08,2.43-.67-4.61-1-2.86,2.85-7.3,2-.06,2.41,4.78.89,5,3.13-6.52.41-12.43.8-17.14-.45,2.63.53,1.1-2.12,3.24-2,.74.56,4.62,1.78,4.89.59,1.1-3.36,10.27-5.8,15.45-2.72,2.38-3.66,7.18,0,8.15-.09-2.21-.55.65-2.36,1.59-2.56,0,2.93,8.34,2,4.07-.69,3.36-.07,4,1.54,4.11,2.51,2.57-1.41,5.33-2.66,7.26-4.54-.07,1.59-1.52,2,.86,2.54,2-.88.48-1.28,1.6-1.93a1,1,0,0,1,.84,1.26c2.88-4.6,9.86,2.07,11.4-.11-1-.06-1.93-.18-1.65-1.26,3.71.25,7.72.26,9,2.45,1.19-2.87,2.81,1,5.71.58,1.08-4.25,14.89-4.83,13.83-1.42,2.74-1.62,4.4-3.63,8.13-1.36,1-3.38-5.52-.74-6.56-2.49,2.3-1.6,8.91.08,11.38-1.4,2.06,1.76,3.57,3,3.36,5.07,2.17-.45,2.4-2.37,4-3.24-.95-.09-2.3.14-2.45-.61,2.91-2.38,9.24-1.43,9,2.45-2-.59-2.65,2.9-1.59,2.57,1.12-2.73,6.48-2.21,8.08-4.56-3.66-.9-2.47,1.89-5.69,1.34-1.06-2,.77-2.62-1.69-3.8,4.95.3,7.23.12,10.59-.77,0,1.27-2.21.84-1.59,2.57,3,.64,1.57-2.17,3.22-2.59,1.51.73,3.72.89,4.12,2.5,6.78-3.49,11.72-1.73,21.16-2.16,1.1-2.82-4.88,0-4.93-1.86,9-3.57,18.53-3,27.61-6.06-.17.9-1.32,1.09-1.58,1.93,4.87-2.94,8.49.26,9.73-2.67,12,2.94,38.22.31,49,3.88,6.23-.16,14.31-4.18,18.77.41,3.17-2.58,11.13.06,13.81-2.07-1.25-.14-.13-1.05.8-1.29,12.95,2.57,19.24-3.56,34.22-1.72-.52-3.26-10.42,1.07-9.07-3.7-8.09-.35-10.53-2.45-18-2.32,1-.11,2.32.08,2.44-.66-.63-.15-1.61,0-1.65-.61,3.76.33,6.23-.31,7.3-2-5.84.6-13.46,1.26-18.77-1,1.48-2.83,12.12.21,13-1.43-5.05-1.1-9.61-2.61-15.55-3,2.6-2.05-2.44-.21-1.68-2.54,3.59-1.67,5.61-.17,8.13-.73-1,.21-2.86-1.8-.85-1.9,2.59.84,2.73.11,5.7-.07.14.85-3.27,2-.76,2.56,3.13-1.66,9-4.53,11.38-1.41.15-1.22-1-1.39-.87-2.54,2,0,3.93,0,4.87-.71l0,1.92c4.92-1.37,7.26-2.49,9.68-4.59,2.74.56,12.53,1.69,13.84-.83-4.26-.9-10.11,2.35-13.08-1.74-11,.4-24-.75-31,.39-4.44.74-10.78-1-14.67-.46s-9.87,2.18-12.25-1.12c2.51,1.3,5.5-1.14,8.16.54,1.79-.95-1.06-1.55.77-1.93,40.21,3.65,84.15-10,128.58-8.06-.46-5.77,12.15-3.64,16.24-2.14,2-3.56,7.32.24,8.08-2.66-2-1.39-7.72.2-8.21-2.44.43-1.13-1.08-3.73.71-3.84,9.86-1.3,15.66,3.91,20.39,1-5.14.15-9.3-4.63-17.21-4.23,1.16-.1,1-5.24-.08-3.2,1,4.38-3.77.8-5.62,3.27-2.8-.11-3.59-1.85-4.17-3.77,2.38-2.8,9.14-2.28,12.1-4.63-.21-2.67-3-3.66-5.76-2.47-12.52-4.85-33.53,1.38-47.23,0-1.61,0-1.06-1.73-3.27-1.24-7.2.75-18.94,4.35-26.06-.28-5,1.12-9.27.39-14.65.19-.27,1.69-1.92,2.33-4.85,2,1.33-1.28-.1-.8-.06-2.54,2.12-.28,4.46-.4,5.67-1.36-1-.87-4.3,0-3.3-2.5,5.46,0,7.24-2.88,12.13-3.36-1.57-.25-1.52-1.8-4.1-1.22-3.4,3.7-12,3.46-13.65,8.47-1.85-.51-3.07-3.27-1.73-4.44-6.28-3.26-15.69,0-22-2.26-.06-2.36,3-2.35,4-3.88-5.9-.28.83-1.7.75-3.2-4.31,2.17-11.94,1.81-17.85,2.77-40.89-7.2-87.93,1.15-127-2.31-11.57,1.75-23.83,2.07-31.67,2.92-4.68,2.93-14.34,4.54-18.67,2.75-2.62,1.7-14.73,1.8-18.67,2.11,5,0-.28-.87-.86-1.91,6.83-.22,11.61.71,13-2.68a5.94,5.94,0,0,1,2.47,1.25c-.63.15-1.61,0-1.62.65,5.36.85-1.2-4.13,3.18-4.5.65,3.37,5.67-.69,5,3.78-2.55.35-3.36-1.47-4.06.68A88,88,0,0,0,907.53,341c-2.82-2.24-8.48.83-12.2.14-.85-.84-.84-2.35-1.68-3.18-4.3-1.51-8.24.64-10.61-2.43,11.13-2.26,8.86,2,16.29,1.73-.45,0-.93-.5,0-.64,5.18-.58,7.58.43,12.19-.76,1.85.91,7.48,4.92,7.32-.09-3.16.6-7.08.84-8.16-1.82-7-1.14-10.95,3.85-15.43,1.44,3.5-.26,6.06-1.25,7.27-3.27-3.52-.37-2.6,2.64-6.47,2,.16-.91,1.31-1.09,1.58-1.93-3.77,1.23-10.77,2.39-12.2-.51,6.76-1.21,12.82-1.57,17.85-2.75-.06.9.22,2.45.82,1.28,0-.43,0-.86,0-1.28-7.33-2.69-10.48,2.65-15.48-1.75,3.66.37,6.91-1.81,9.75-.1,1.35-3.48,9.36-4.18,13.77-3.33-11.28-4.46-20,3.34-30,4.14-.74-2.28,5.67-2.33,2.37-4.49-11.13,3.82-26.4-1.89-36.61-1.53,9.64-2.36,18.09-3.42,26-2.18,2.53.16-2.1-1.82.77-1.93,6.6,2.26,19.93,0,30-1.59-.3.91-.95,1.08,0,1.91,4.86-4.7,14.19-1.18,19.46-2.77-.62-.13-1.6,0-1.62-.62,12.09,1.33,28.35,1.2,39.8-2.38l0,2.54c12.52-2.57,31.1-5.55,45.49-2.45-.17-1.4.64-2,2.4-1.95,35.37,1.3,76-5.71,108.87-3.89-1.28,0-2.82.13-2.47-1.24,15.23,3.38,28.39,1.7,42.3,1.34,1.76.94,2.55,2.69,4.15,3.77-.06-2.77-1.23-1.45-1.73-4.43,6.34,2.73,15.14,2.42,22,1l.05,1.92c5-2.54,11.73-3.47,16.22-1.5-1-.08-.91-1-.86-1.89,4.2-.6,7.72-1,8.16,1.16,2.17-.62,5.06-.29,6.55,1.82,3.1-.6-.18-3.11,1.53-3.84,30.91,2.54,73.19,1.05,107.26-.94-27.83-.41-55.72-1.32-84.5,1.27.1-1.82-5.3.84-4.11-1.86-15.68,2.39-36.29-2.62-51.19.69-.15-.75.1-1.82-.86-1.91.72,2.43-1.67,2.5-3.17,3.24-1.74-2.8-7.57.13-11.45-3-1.06,2.82-11,.07-13-.47-.8.86-.73,2.39-2.39,2.59-.52-2.35-4,.3-5.72-1.84-2.33,2.89-6.66,1.2-10.53,2.06-.77-3.84-5.64-1.8-9.79-1.79-1.77.95,1,1.54-.77,1.93-20.75-1.39-40.75.48-63.44-1.75.64-.14,1.6,0,1.61-.64-2.51-.46-1.52,1.76-4,1.31,0-1.74-1.39-1.26-.05-2.55-3.85,1.34-8.94-.06-13-.47-.89,2,1.3,1.53,1.67,2.53-2-.24-1.74,1.18-4,.68,0-1.27,2.2-.84,1.58-2.57-3.8-.8-2.69,2.15-6.47,1.36.42-3-4.12-.65-6.56-2.48-1.57,2.37-1.9,2.42-1.54,3.85-2.22-.56-3.86-1-4.87.69l0-1.91c-1.59.58-8,3.11-8.95.11,3.55.73,7-2.71,11.38-.14-.44-5.17-16,1.21-18.76-3.6,18-1,31.75-.1,50.38,0,.3-1.09-1.23-1.62,0-1.92,1.44.36,4.76-.82,4.9.59-.92,1.58-3.42-1.51-3.23,1.31a73.81,73.81,0,0,0,13.8-.8c-1.62,0-5.27-1.71-2.51-3.16,14.43,2.86,31.88.52,44.72.7,18.62.27,37.39,1.6,57.75,2.41l0,1.28c7.53-3.07,14.27,1.21,20.26-2.2,2.27.56,4.51,1.12,5,3.14,1.42-.4,4.79.69,4.85-.71-3.56.29-5.51-.71-5.77-3.12,4.53-.33,16.53-.11,22,1,7.54-2.48,19.29-.54,25.93-2.9-4.74-1.84-15.44,2.6-16.34-3.61,5.15,1.43,9-3,14.59-.83-.25-2.2,1.58-2.2,4.83-1.33,3.67-5.16,16.13-.13,22.65-3.54,1.92,1.48,4.63,2.31,7.4,3.07.45-2.05-2.94-.83-.89-2.53-1.43-.35-4.73.84-4.88-.56,17.51-1.43,30.12-3.2,45.35-3.9-.28-6,8.72-1.28,11.28-2.73-3.73-2.89,6.72-.65,9.72-.79a88.78,88.78,0,0,0,19.36-3.49c-3.77-3-8.12,1.32-13-.44.23-1.48.75-2.76,2.34-3.22.68,1.07,5.44,0,4.8-2-4.45.91-6.75,0-10.58-1.11,4.68-1.93,10.75-5.93,16.16-2.16,3.42-2.88,9.29-1.66,16.13-2.8-1.51-3.46,6.13-2.53,11.26-2.73,3.91-3,0-4.35,6.32-5.2-2.12-1.24-3.7.72-4.89-.56,1.51-3,2.88-6.12,8.71-5.88-.16.9-1.29,1.1-1.55,1.94,4.2-.42,8.92-2.17,9.62-3.34,3.74,1.54,2.94-.29,5.64-.73,4.3-.69,11,1.51,12.87-2.14-3-1.39-7,1.13-8.17-2.4,3-1.8,5.37,1.64,5.63-.74-2.37-1.74-10.22,1-10.6-2.37l4.87-.08c0-1.93-4.28-1.72-1.76-3.8-1.17.37-4.21-.67-4,.7,1.78-.14,2.6.49,2.5,1.88-2.07.09-6.47-.26-9.73-.49,5.6-3.93,19.05-4,25.75-3.63.61-1.2,1-2.6,2.31-3.23-3.75,0-7.47,0-3.18,1.34-3,.33-3.73-1.29-4.94-2.48,5.74-3.14,4.57.69,9.69-.17C1429.57,228.13,1428.39,227.05,1430.75,225.37Z"/></clipPath><clipPath id="clip-path-5"><rect class="cls-1" x="-3.09" y="347.36" width="945.24" height="137.64"/></clipPath><clipPath id="clip-path-6"><rect class="cls-1" x="-3.09" y="29.49" width="945.24" height="326.51"/></clipPath><clipPath id="clip-path-7"><rect class="cls-1" x="-3.09" y="-717.77" width="945.24" height="1723.42"/></clipPath><clipPath id="clip-path-8"><rect class="cls-1" x="-9" width="951.15" height="31.13"/></clipPath><clipPath id="clip-path-9"><rect class="cls-1" x="-9" y="-698.01" width="951.15" height="1677.84"/></clipPath><clipPath id="clip-path-10"><rect class="cls-1" x="-1022.56" y="-1.64" width="2594.84" height="452.23"/></clipPath><clipPath id="clip-path-11"><path class="cls-2" d="M1364.17,135.66h2.57c-.22,2.43,3,3.56-2.55,3.73C1364.94,137,1361.77,137.09,1364.17,135.66ZM1311.38,124c-.9-2.79,9.74-1.86,7.72.7C1316.47,126.32,1314,124.54,1311.38,124Zm-4.29,243.32c2.29-.1,2.7.9,5.12.72,1.09,2.1-1.8,1.93-1.27,3.72C1309.33,370.5,1306.6,369.86,1307.09,367.34ZM1291.18,229c.53-1.65,6.82-.62,7.7-.05-.83,1-2.72,1.41-5.12,1.52C1294.23,229.24,1292.75,229.11,1291.18,229Zm-8.44,147.36c-1-3.57,4.92-3.11,7.67-4.5.58-5.9-4.43-7.46,1.25-11.17,4.85-.36,6,1.43,9,2.19,1.24,6.38.6,6.41-2.51,11.92-3.44.74-10.06-.33-9,3C1287.47,377.1,1284.42,377.14,1282.74,376.39Zm-85.83-242.1c-.6-2.33,2.73-2.39,6.43-2.27-.17,1.34,1.58,1.56,1.29,3C1201.47,135.1,1198.45,135.14,1196.91,134.29Zm-46.35,249.49c4.15-1,10-1,7.69-3.75,9.63-.92,13.17,8.18,5.19,11.12C1158.33,389.19,1150.6,388.74,1150.56,383.78ZM1109,56.63c-3.79-1.28,2.9-2.73,6.43-2.27C1116.68,58,1109.1,55.46,1109,56.63ZM1060,48c.55-1.67,6.35-.34,9-.81C1068.5,51.41,1064.93,47.39,1060,48ZM1055,62.13c.14-1.64,5.46-.34,7.72-.78C1062.67,63.38,1056.61,63.14,1055,62.13Zm-20.9,362.48c7.36-1.14,14.52,1.71,21.8-1.62,4.53-.18,2.56,3.48,7.7,2.93,1.24,1.38-3.82,2.51,0,3-6.47,2-10.75,1.91-17.93,2.34a2,2,0,0,1,0-3.73C1041.58,426.65,1036.71,426.27,1034.05,424.61Zm-41,9.15c3.14-3.05,6.57.63,11.56.68.58,2.08-7-.54-6.41,1.52C994.83,436.2,997.18,433.09,993.06,433.76Zm-30.94-389c1-1.71,8-.76,6.44,1.46a11.51,11.51,0,0,1-5.14.77C963.54,46,963.62,44.91,962.12,44.79Zm-41.2,1c-.91-2.74,2-3.3,6.42-3,1,2-2.54,1.51-2.56,3,10.28,2.11,20.79-.21,24.51,5.07-9-1.12-12.45.68-19.31,2.34-1.71-.73-2.54-2-5.16-2.2,1.92-1.75,3.14-1.16,6.42-.79C930.13,47.35,926.64,45.91,920.92,45.77Zm-7.77-6.65c.33-1.75,5.66-.46,6.43,0C918.58,41.69,915.09,40,913.15,39.12Zm5.18,2.94c1.11,2.38-2,2.32-2.56,3.74-7.27-.85-9-.3-16.75-.65,7.28,3.54-16.15,2.51-18,.1C893.2,42.05,909.82,45.86,918.33,42.06Zm-4.62,72.21c3,1.36,10.94-1.23,12.89,2.15,2.77-.64,4.37-2,9-1.53.73,1.54,3.68,2.38,1.31,3.71-3,.24-1.46-2.14-3.88-2.21-3,.23-3,2,0,2.23-13.1,1.42-19.47,1.66-30.88.17,2.86-.68,5.93-3.2,9-1.54.09-4.6-6-1.93-9-.69-.34-.91-4.93-2.94-2.6-3-.19-2.36,6.39-.09,10.29-1.56-3.52-2.15-14.75.52-16.75-.65.86,1.81,2.64,3.82-2.53,3.74.74-5.17-5.75-6.1-12.93-6.62a3,3,0,0,0,1.26-3c14,2.51,42.85-2.7,61.78-1.09.18,1.33-1.57,1.57-1.26,3,4.12-.38,4.52-2.86,9-3l0,3c2.3.08,2.71-.93,5.14-.77,2.91-.43-1.57-1.15,1.27-2.24l6.44,0c-.2.87.3,1.33,1.3,1.49-2.44,1.57-3.49,3.94-9,3.77a3,3,0,0,1,1.3,3c-3-1.47-7.23,1.42-10.3-.69a3.28,3.28,0,0,0-2.55,3A178.34,178.34,0,0,0,913.71,114.27ZM869.44,49.78c8.51-2,27.44,0,42.49-1.73-8.91,5.84-23.68,1.75-37.32,3.19C875.88,49,871.73,49.93,869.44,49.78Zm5.64,59.5,6.43,0c-.8.66-1.54,1.34,0,1.48-.28,1.08-3.83.28-3.85,1.52C875.4,112.06,874.72,111,875.08,109.28Zm-12.88.08c-2-.26,1.11-1.33-1.29-1.49,2.54-3.38,10.93-.22,15.43-.09C874.78,111.66,864.77,107,862.2,109.36ZM839.84,50c9.5-1.85,31.14-.78,25.76,2.83C859.14,49.68,850.34,53,839.84,50Zm-5.15,3c-4.51-.18,3.22-2.8-1.3-3,1.24-2.28,4.34.31,5.15.71C839,52.43,834.84,51.56,834.69,53ZM867.1,80.3c.06.72,1.59.56,2.6.73-.29,1.07-3.85.29-3.86,1.51,1.39,1.69,8.1.24,11.59.68-5.41,3.5-18.56,2.51-23.11,4.6a2.79,2.79,0,0,1-.05-4.46c-1.18-2.5-2.88-.08-5.17-1.46-3.59,1,4.07,1.5,2.62,3.7-9.93.11-12.14-.85-16.73,1.59-4.11-1.08.2-1.22-7.73-.69-.69-5.17,8.25-1.13,11.56-3-4.33-3.12-16.73,2.87-16.75-2.14,16.06.7,36.26-4.91,54.06.42C873.41,83.25,871.92,79.82,867.1,80.3ZM817.92,48.6c.86-1.73,4.26-2,5.11-3.75,1.75,2.22,11.06,0,11.63,2.91C829,45.61,824.54,50.19,817.92,48.6ZM810.3,59.81c-.26.6-1.29.75-1.27,1.49,16.37,0,18.15-1.06,32.16-2.42,5.23,7.67-24.67,6-32.14,6.9C803.63,63.83,802.61,60.81,810.3,59.81Zm-12.84,4.54c.07-2,2.91-3.59,5.12-2.26C803,64.05,799.92,64,797.46,64.35Zm35.8-28.49-6.43,0c20.94-2.44,49.27-3.68,74.7-.43,1.4-.2.87-1.49,2.56-1.52a46.6,46.6,0,0,1,7.74,1.46c-.27,2.31-6.39,1.28-10.3,1.54-.1,1.06-.19,2.1,1.32,2.22-12.61,1.58-35.09-.28-54.07,4-4.19-.77-8.12-1.71-10.33-3.65-3.77.66.78,2.39,0,3.72-3.28.59-5.94-2.87-7.72-.7-3.76-.63-1.48-1.1-1.32-3-6.51,1.16-11.27,2.09-15.45,1.58-1.3,2.5,4,1.13,6.46,1.44-4,2.64-13.11,1.67-16.74.1-1-2.83,6-4.92-1.34-5.19,5.65-2.63,20.42,2.36,23.17-.89-9.76-1.75-27.13,1-32.22-3.53,13.72-3.33,25.23.92,39.92-.23Zm-39.8,13.63c.39-1.74,2-2.8,1.24-5.21,7.14.51,10.21,2.15,18.06,3.61C808.48,51.17,801.31,48.24,793.46,49.49Zm-9.87,337.12c.11-2.9,5.55-2.75,10.24-3,.18,1.33-1.56,1.58-1.25,3C789.7,384.86,787.57,386.85,783.59,386.61ZM765.06,41.49c1.28-1.25,5.46-.85,7.71-1.54-.15,1.33,1.58,1.55,1.31,3C769,43.68,770.19,40.71,765.06,41.49Zm-2.19,43.16c14.41-3.35,37.07-1.27,51.49-1.05,3.23-.77-1.06-3.3-3.88-2.95,1.28-2.11,5.46.17,7.72-.06.17,1.34-1.56,1.59-1.25,3,.55,1.66,6.33.26,9,.7-17.46,7.31-35.25,1.86-61.75,2.59C764.29,85.82,764.38,84.77,762.87,84.65ZM749.81,63.9c-.16-3.35,3.89.3,7.73-.8C755.74,65,753.09,64.45,749.81,63.9Zm-.9,319.21c10.79-2.3,19.35,2,32.1-.2-1.28,1.83-.43,1.59-1.27,4.47-6-2.36-18.32-3.78-20.52-.61-2.27-.17-2.93-1.27-2.6-3-3.72.66-1.43,1.11-1.26,3C751.66,386.47,752.31,383.6,748.91,383.11Zm-16.67,1.59v-2.23c6.25-1.78,9.54.49,16.68,1.38C743.72,385.72,738.48,383.18,732.24,384.7Zm-3.76,6.72a3,3,0,0,0,1.23-3c4-.58,2.5,2,6.44,1.46C736,391.78,731.87,391.38,728.48,391.42ZM722.71,57.36c.93-1.68,7.22-.33,10.29-.81C730.7,60.21,728,57.57,722.71,57.36ZM718.48,420.5c7.14-3.48,18.75.27,25.65-.9a6,6,0,0,0-3.82,4.48c-6.48-.1-11.29-2.85-16.67-1.39C722.5,421.62,722.57,419.82,718.48,420.5Zm-5.6-48.33c2.39-1.36,14-1.82,11.58,2.15C720.39,372.34,717.31,372.66,712.88,372.17Zm.53,55.06c-1-2.87,6.11-2.91,5.13,0Zm-3.9-5.19c.89-1.66,6-2.52,7.69-1.53C716,421.82,713.2,422.17,709.51,422ZM786.94,39.86c10.61,5.09,3.42,8.38-11.52,7.51,1.1,1.1,4.15,1.05,6.44,1.45.64,2.35-5.9.6-6.42,2.27-1.75-.22-1.09-1.87-1.3-3-12.51.83-13.44,1.2-27,1.65-1.74-2.82-6.53,0-9-2.92-3.51.69,3.93,1.64,0,3-9.05-.55-8.17-2.59-18-1.38-.2,2.12,8.42-1,6.47,2.19a32.46,32.46,0,0,0-15.45.84,3.34,3.34,0,0,1,1.25-3.72c-3.39-.21-4.22,1.05-3.84,3-6.53.84-7.92-1.32-10.32-2.91,6.79-5.57,30,0,38.59-4,15.36,1.8,29.18,1.2,45.1,2-.21-1.38-4.36-.43-5.16-1.46.17-2.32,7.86-1.48,7.72.69C788,43.56,788.28,42.93,786.94,39.86ZM663.18,404.46c1.76-1.14,6.6-2.15,9-.8C671.61,405.33,665.83,404,663.18,404.46ZM610.35,28.28c.23-2.57,7.1-1.4,10.28-2.3C619,29.4,614.44,26.81,610.35,28.28ZM585.7,12.82c.23-.85,1.29-.42,1.29,0,4.42-3.44,1,2,5.17,1.46-.38,1-3.21.63-5.14.77C587.11,14,587.22,12.93,585.7,12.82Zm-6.3,11.94,0-2.23c2.46.3,5.54.24,5.19,2.2Zm-9,2.3,0-2.24c3.18-.11,6.21-.15,7.73.7C578,27.42,573.82,27,570.41,27.06Zm-14.13,5.3c9.73-3.64,33.33-2.4,42.48-4C595,33,569.55,31.61,556.28,32.36Zm-11.4,346.07c.19-.87-.31-1.33-1.31-1.48,2.86-1.56,2.4,1.57,7.69,0-.45,1.25,1,1.39,2.59,1.46C551.3,380.24,549.08,376.2,544.88,378.43ZM534.09,7.2c.83,2.87,1.11,3.06-1.23,5.23C530.9,10.91,528.74,7.33,534.09,7.2Zm-9,3A2.78,2.78,0,0,0,526.37,8c1.48.25,3.27,1.29,1.31,1.48.85.76,3,.75,2.6,2.22-1.16-.46-2.32-.89-2.58,0C526.3,11.53,526.8,10.24,525.09,10.24ZM511.42,370.46c-.64-2.33,3.42-2,3.79-3.75a3.33,3.33,0,0,1,2.62,3A13.25,13.25,0,0,1,511.42,370.46Zm-1.1,15.64c-.33-2.45,7-3.39,6.41-.05A7.53,7.53,0,0,1,510.32,386.1ZM503.12,4.43c.23.87,2.36.61,3.88.72,1.26,1.38-3.83,2.52,0,3-1.24,1.17-5.23-2.37-6.49-3.68,4.57-.28,3.15-2.07,7.75-.8C507.89,4.67,505.05,4.29,503.12,4.43Zm-3.26,365.36c-1.45-.13-.71-.74,0-.74.34-2-5-.55-3.9-2.94,3.09.27,2.78-1.39,6.42-.8a3.46,3.46,0,0,0,2.58,1.47C504.85,368.7,500,367.88,499.86,369.79ZM487,367.65c.12-1.9,4.27-1.5,7.68-1.54C495.08,368.5,489.1,368.85,487,367.65Zm-10.23,3c.11-1.42,4.79.56,6.41.7C481.81,374.38,478.14,371.92,476.78,370.69Zm-3.72,11.19c1.17-1.31,4-1.67,7.69-1.54C480.07,382.1,475.82,383.46,473.06,381.88ZM464.63,17.34l0-2.24,6.43,0C471.54,17.3,466.87,16.63,464.63,17.34ZM458,6.21c.14-1.64,5.47-.35,7.73-.79-2.76,1.64.34,1.59,3.88,1.46C468.13,9.89,461.74,6.5,458,6.21Zm3.46,374.26a14.45,14.45,0,0,1,9-.81C469.21,382.57,466.07,379.8,461.5,380.47ZM445.42,27.13c.84-2.72,5.14.12,10.3-.81-.15,1.34,1.6,1.56,1.32,3C452.89,28.73,448.49,28.31,445.42,27.13Zm-11.6-1.41c0-2.17,7.24-1.81,9-.8-.76,2-3.5,2.93-7.7,3C435.23,26.88,435.31,25.83,433.82,25.72Zm-2.71-9.66c4.17-3.76,14.52-3.51,19.32-.87,4.89-3.52,9.64-6.14,19.28-3.1-3.29,2.14-12.34-.53-14.09,5.3C444.84,16.26,436.16,17.52,431.11,16.06ZM418.94,363.63c4.66,1.18,6.22-.16,10.27.68C428.78,366.76,418.25,366.36,418.94,363.63ZM405.36,17.72c3-2.59,8.13.31,10.27-3,6.6.48,9.11,2.09,14.17-.09l.05,3.73C422.77,17.38,413.57,19.24,405.36,17.72Zm-8.21,346.8c-.38-1.2,1.2-1.28,1.25-2.24,4.13-.19,5.45,1.28,10.28.67C408.12,365.3,399.87,365.69,397.15,364.52Zm-84.79-361c3.43-2.2,5-.67,9-.07C317.94,5.61,316.39,4.08,312.36,3.47Zm-14,14.23c2.2,1.23,1.09,4.37-3.8,3.75,3.83-4.47-5.75.44-6.52-3.67C293.34,18.36,292.51,17.86,298.38,17.7ZM295.79,17c8.61.41,15.53-2.76,21.89-1.65,1,2.28-2.19,2.21-1.22,4.49-2-1.34-8.83.19-7.78-2.94C306.88,19.57,300.34,17.12,295.79,17Zm-25.68,6.14c-.31-2.21,4.55-2.66,6.42-1.54C275.46,22.69,273.31,23.21,270.11,23.12Zm1.19,332.59c-1.22-2.72,6.73-1.4,7.69-.79C277.92,356.36,273.38,357,271.3,355.71Zm-21.69-325c0-2.27,8.4-1.81,10.3-.83C256.7,31.27,254.94,29.86,249.61,30.71Zm-2.85-17.84c-1.58-3.18,10.47-3.27,9-.07C251.13,12.22,249.57,14.53,246.76,12.87Zm2.74,343.75c2.23-1.54-1-1.45,1.24-3,8.22,1.52,10.35,1.53,18,1.35C266,357.63,256,356.15,249.5,356.62ZM238,29.3c1.87-1.19,8.64-2.49,1.24-3,1.72-3.22,8.19-.4,12.87-.84C247.81,28,245.34,27.88,238,29.3ZM235.05,7.74c5,.8,10,1.62,9.12,5.89C241.54,11.43,235.93,11,235.05,7.74Zm-3.46,25.33c1.1-2.58,5.19.15,9-1.56C241.68,34.33,234.53,32.5,231.59,33.07ZM200.77,40c.8-.66,1.54-1.34,0-1.48-.23-1.62,4.57-.38,6.44-.79C206,39,204.83,40.31,200.77,40Zm-12.88-.65c.33-.68,4.74-2.53,5.14-.78,1.24,0,1-.92,1.26-1.5,3.75.62,1.46,1.1,1.35,3C191.69,40.59,191.82,38.76,187.89,39.33Zm-30.8,8.4c.42-2,3.35-2.53,6.4-3a3,3,0,0,0-1.25,3Zm-10.33-2.15c-1.09-2.83,6.07-1,9-1.55C153.89,46.17,152.36,44.88,146.76,45.58ZM133.89,196.73c.06-3.72,20.21-.23,5.13-.79A11.24,11.24,0,0,1,133.89,196.73Zm-16.61,6.06c.13-3.61,7.75-3,14.08-3.07C130.49,203.49,122.18,202.92,117.28,202.79ZM88.85,49.71c9.91-1.47,23.18-.49,38.61-2.51-1.07-3.18-6.23.73-9-1.41.41-2.48,7.39-1.23,11.56-1.58,2.62,2.69-1.8,3.69.11,6.69C114.32,50.63,103.45,52.78,88.85,49.71ZM90.39,354c-1.35-2.5,4-1.19,6.38-1.53C97.73,355.08,92.33,355.21,90.39,354ZM56.6,49.21C61,48,69.21,48.75,75.93,48.32,73.4,52.15,63,47.65,63.12,52.14c-2.69.34-3.42-.48-5.18-.71C60.09,50.71,62.42,48.65,56.6,49.21Zm-6.37,3c.48-1.87,4.34-3.46,6.4-2.28C55.48,51.27,54.28,52.56,50.23,52.24Zm-6.56-5.91c2.59-1,13.63-4.47,16.76-.13C55.87,44.35,49,46.3,43.67,46.33ZM41.23,193c10.38-3.23,15.54-3.33,26.93-4.68-.49,1.44-5.88.11-3.8,3C55,190.92,49.47,192.67,41.23,193ZM34.71,49.38c1.41-1.51,9.94-.93,11.59-.09.55,1.78-5.88-.37-3.82,2.26C40.45,50.49,37.42,50,34.71,49.38Zm-5.22-2.93c1.15-3.68,10.42.09,12.86-1.6C39.47,47.78,35,45.26,29.49,46.45Zm-42.44,4.79A12.67,12.67,0,0,1-2.67,49.68c.25,1.61-4.57.37-6.43.79-.19,1.62,4.58.31,6.46.69C-6.1,53.45-8.47,51.76-12.95,51.24Zm-20.65-.57c.68-1.78,4.93-3.14,7.71-1.56C-27.81,50.19-31.4,51.91-33.6,50.67Zm-1.61-16.36c3.34,1.57,7.31-.74,9,.67C-25.33,37.7-37.21,37.05-35.21,34.31Zm-3.48,18.63c5.6-.32,10.37-1.82,16.73-.89C-23.92,55.11-34.31,53.12-38.69,52.94Zm-12.93-1.39c.35-1.52,3.46-1.49,3.81-3,2,.31,1.15,2.34,5.17,1.45C-42.76,52.12-48,51.39-51.62,51.55Zm-16.86,309c-.22-3.06,10-.22,11.5-2.33,4.5.17-2.26,3.32,1.34,3C-58.78,361.62-64.09,360.77-68.48,360.5Zm-6-168.87c.62-2.55,6.18-1.2,9-.82C-66.64,193.65-70.68,191.4-74.51,191.63Zm.75,162.21c2.94.34,6.59,1.42,9-.07C-61.61,354.6-74.57,358.43-73.76,353.84Zm-39.9-7.87c1-1.68,8.55-2.53,7.71.69C-109.86,347.22-110.64,345.93-113.66,346Zm-4-129.44c.18-.87,2.33-.65,3.83-.78-1,2.12,1.85,1.91,1.37,3.71C-115.91,219.48-115.81,217.42-117.69,216.53Zm-3.88-.71c3.73,0,3.14,4.17,1.39,5.19C-125.07,220.37-121.17,218-121.57,215.82Zm-2.07,143.62c2.79-2.08,9.14,0,12.83-.1C-113.1,361.14-120.85,359.84-123.64,359.44ZM-135.9,206.25c-.43-2,1.71-2.46,5.07-2.27l.06,2.23Zm-137,129.88c4.08-3.2,9.13-1.3,16.59-2.37C-259.53,335.58-267.53,337.82-272.87,336.13Zm-72.37-121.41c8.52-5.66,25.78-.9,38.5-2.57C-314.93,216.79-335.08,214.39-345.24,214.72Zm98.85-5.33c1.25,2.91-6.78.61-7.66,2.3.9,1,3.42-.39,6.44.69,13-7.71,37.66-2.68,56.48-3.46,15.42-.65,28.59-4.11,39.77-3.29.86.75,3,.74,2.63,2.21,4.4-2.07,9.64.39,15.43-.12,1.8,2.41-1.44,1.88,5.16,1.45-2.37,1.44-.09,1.86.08,3.71-3.44.54-2.51-1.51-3.9-2.2-1.83,1.18-4.24,2-5,3.76-2.57-.48-3-2.23-5.22-2.93-2.61.24-2.47,2-5.08,2.28,2.62,2.43,12.05.15,15.5,3.59-6.34.5-7.84-1.87-14.17-1.37,3.09,1.18,7.81,1.38,11.61,2.13,11-2.73,9.42-9.81,21.63-10.59-.78-1.79-4.89-1.61-7.77-2.17,9.48-3.72,19,.62,25.66-3.17,1.72.72,4.79.67,5.18,2.18,3.62-.52,11.48-3.58,12.84-.84,2.43-.11.85-2.47,3.81-2.26,8.62,4.76,25.91-2.2,34.74,1.21,6.28-3.39,21.63-2.81,27-1.7,6.75-5.73,30.51-3.57,39.86-.32,9.9-.4,8.85-2.31,18-2.37-2.75-.19-8-2.69-9-1.41.16-2.75,6.3-2.37,15.39-2.36a5.82,5.82,0,0,1-2.57.77c13,1.17,39.14-7.38,54,1.83-5.31-.07-9.92.27-12.83,1.57,3-1.22,17.57,2.21,19.24-2.36,4-.39,5.27.89,6.47,2.18-.41,1.74-.77,3.5-5.08,3-.48,1.78,5.83-.46,3.87,2.19-8.32.18-13.25-1.66-21.86-1.32,2.9,1.52,8.35,2.12,16.75,2.11-18.67,4.09-30.72,4.76-51.36,3.36.18,3.39,7.83,2.37,9.08,5.13C55,211.34,45.78,216,36.51,214.57l0-1.5c-.64-1.58,1.79-1.43,3.82-1.51-2.31-2.21-6.83.48-5.08,3-4.23.07-6.37,1.31-11.54.84.15-1.63,3.2-1.62,6.39-1.53-3.89-3.14-12.9.82-19.24,2.37-4.54,1.19-.83-2.52-3.89-2.2-5,1.52-32.63,2.17-38.58-.43-3.31,1-4,1.56-2.5,3.73-4.61.49-7.24-.21-7.75-2.17-4.91,3.77-12.84.79-19.29-.59-4.55.12,2.78,2.44-1.25,2.24-3.27.07-1.57-.54-1.3-1.47-4.81,0-3.82,3.23-10.24,2.3a9.76,9.76,0,0,0,1.13-6.7c-2.82.11-.47,3.16-1.18,4.47-5.49.76-5-2-9-2.16,2,3.22-6.47,8.39-10.22,3.07,4.43-.63,5.45.78,7.75,1.42-.19-1.85-2.45-2.29-.08-3.72-6.15,2.11-6.66.33-12.88-.64-.48,1.73-3.57,4,.14,6.69-4.07-1.09-9-1.65-12.91-2.87.1-1.91,4.28-1.52,7.68-1.55,2.26-.2-2-2.75-2.64-3.7-2.89.43,1.58,1.14-1.25,2.25-3-.22-4.84-1.14-9-.68-2.18-1.46.08-.95-.07-3-8.08,2.27-4.21,7.36-12.71,6.8.59.91,1.68,1.52,3.9,1.45-14.11,6.39-35.05-2.35-46.23,2.61-4.07-1.6-1.7-2.33-6.44-.7-2.56-3.83,2.9-5.1,7.56-6.76.59,1.56-.83,2-1.21,3,6.22.52,16.11,3.72,24.42-.19-11.5.28-18.84-2.64-28.34-2.75,1.37-2.35.54-2-1.37-3.71-4.38.76,3.54,4.26-1.17,5.21-2-2.07-10.74,1.49-16.74-1.35-1.79.27-.08,1.3,1.32,1.47-2.07,1.9-4.71-2.17-9-1.41a11.15,11.15,0,0,0,3.88,1.46c-.8,2.23-2.76-.7-5.14,0,.05.72,1.59.56,2.59.73-.43,2-6.54.71-7.65,2.28-2-1.46-6.71-3.63-9-.67-16.87-3.22-35.35-3.28-52.77-3.25l-.05-2.22c-12.32,2.91-23.63,1.33-35.95,1.8,9-5.61,24.69-1.6,38.5-2.57C-260.58,211.28-254.41,208.23-246.39,209.39Zm-150.31,3.55c-.54-3.14,5.57-.69,7.69-.8C-389,214.17-395,214-396.7,212.94ZM-453.19,78.75c0-2.27,8.37-1.82,10.29-.84C-444.79,80.65-451.23,78.89-453.19,78.75ZM-703.71,325.31c-1.17-1.52,6.45-1.54,2.48-2.25.92-1,12.45-2,11.55.62C-696.28,323.15-699.37,324.58-703.71,325.31Zm-33.43-3.38c-5-1.14,10.3-3.25,9-.1C-730.2,321.66-735.35,321.07-737.14,321.93ZM-886.07,249.2c1.32-1.66,12.17-3.85,11.55-.13C-879.8,248.4-879.71,249.21-886.07,249.2Zm-65.67,23.09c1.17-1.52,4.85-1.67,8.9-1.59-.52,2.13-4.77,2.19-7.54,3.06C-950.22,272.9-950.73,272.44-951.74,272.29Zm-53.85,26c0-1.49,3.45-1,2.42-3,4-.42,4.57,1.28,9,.63-.17.87-2.31.66-3.79.79-.15.87.35,1.32,1.33,1.47C-997.37,299.72-1004.47,298.93-1005.59,298.25ZM-7.11,351.82a76.92,76.92,0,0,1,20.5-.16C6.75,353.48-.21,352.93-7.11,351.82Zm1229.58,39c6,1.37,13.92-2.87,15.39.67C1234.55,392.69,1223.37,394.73,1222.47,390.84ZM1102.81,105c.31-1.92,2.23,1,5.17,0l0,2.22c-2.7.34-3.41-.48-5.17-.71C1103.62,105.84,1104.38,105.17,1102.81,105ZM336.84,2.55c0,1.28,1,1.92,2.59,2.21-.14,1.63-3.19,1.63-6.4,1.54,2.21-1.54-1-1.45,1.25-3-2.44-.31-7.77,1.07-6.48-1.44C329.49,2.88,333.42,2.57,336.84,2.55Zm-495.95,26c1.76-.31,7.24-1.39,11.56-2.32a2.67,2.67,0,0,0-1.25,2.25c-3.7-.13-6.55.23-7.71,1.54C-157.9,29.88-157.41,28.58-159.11,28.58Zm-202.43,6.21c1-2.63,4.49-.9,6.45-.07C-355.37,36.47-360.75,35.21-361.54,34.79ZM-1019.39,302.9c11.32,1.25,26.42,2.22,34.52,1,4.71,5.5,26-1.79,28.47,6.38,5.16.2,1.78-4.34,7.5-3.81,4.1,1.07,7.24,2.73,11.69,3.59,3.51-2.48,11.18-1.4,12.86,1.34-1.69,0-1.12,1.31-2.51,1.51-4.94-2.36-17.87-1.51-23,.27,9.29,0,21.19,1.58,29.41-.35-1.51-.09-3.61.17-3.87-.7,3.76.16,3.85-1.72,7.62-1.57.88,1.62-3.52,2.4,1.36,2.22,1.68-.76,2.43-2.05,5-2.29,8.41,2.11,21.32,3.2,29.49,1.14,11.82,6.06,36.21-2.19,38.68,7.74,10.27-1.8,20.78-2.21,30.76,1.14,2.41-.11.78-2.47,3.74-2.28,10.38,4.39,25.89-2.29,38.37-.44-.7,3-12.83-.57-8.84,3.08,18.12-3.12,33.17,2.72,47.45,2.45-.41,1.72-5.6.77-5,3,4-.22,12.66,1.05,17.93-.18.44,1,1.87,1.4,1.39,3,9.43-1.84,17.71,1.33,28.27,2.7,1.7-1.72-3.4-2.77-.11-3l7.68-.08c-1.62,1-1.59,2.8,1.4,3,10.9-1.36,24.44.47,34.49-2.58-3.76,2.79,3.34.65,3.85.71.21,0-.15,1.45,0,1.48,19.56,3.34,58.81-4.21,67.87.07-2.22-1.71,5.55-4.82,10.19-2.34,1,2-2.5,1.52-2.47,3,31-1.64,65-.26,101.16-1-1-.16-2.54,0-2.59-.72,17,.84,24.21,2.87,38.49,1.15,12.82,1.13,36.77.07,43.59.36-1.15-.43-7.35-1.5-3.9-2.2,13.84,4.71,25.7,4.48,45,4.07,1.54,3.52,15.38,3.51,15.39-.14-4.17-.39-6.45.28-7.66,1.56-1.64-1-6.76,0-5.21-2.93,6.56,0,27-1,16.73,2.08,19.8-2.86,26,2.58,43.59.36,3.33,7.17,27.24,1,25.74,5,4.7-1.89,12-1.58,16.71,1.33-11,2-18.72.67-25.58,2.46,4.25-.27,7.89-.18,9,1.41a21.33,21.33,0,0,1,16.66-.15c-.28-3.31,5.19-.48,6.4-.05,1.53-2.43-4.16-.54-2.63-3,8.35-1.32,18.56-.28,27,2-2.39.12-4.28.54-5.1,1.54,7.12-1.16,15.25,2.78,16.63-1.63-2.66-.42-8.4,1-9-.67,9.24-1.35,16-.49,21.84,1.32-1.69-.08-9.29,0-5.12.79,6,.67,7.71-1,11.5-1.58,13,5.31,22.36,3.33,36,4.91,1.7-2.7,9.41-2,15.33-2.35a2.8,2.8,0,0,0,1.33,2.22c.41,2-5,.62-3.79,3,5.21.17,16.83-1.14,24.41,2,3.2-1.56,18.65-3.4,20.54,1.32-9,.74-16.8,1.65-21.79.18-1.35,2.51-26.43-1.21-24.29,3.17-1.14-1.08-2-2.34-5.17-2.19-1.84,1.18-5.79,2.28-8.88,4.53.52-5.32-7.64,2.56-9-2.16-4.14-.63-2.62,1.95-5.09,2.27-3.46-.69-5-2.53-9-2.9-29.05,5.9-62.18-.5-91,1.51,6.47.66,14.6.32,18,2.81-2.25.23-6.44-2-7.68.07,2.25.66,6.39.2,7.71,1.42-6.89,1.33-11.57-2.58-14.11-1.36,7.37.31-.29,2.81.06,3,2.53,1.24,6.38-.81,10.3,2.13.26-1.4-1.48-1.62-1.36-3,2.63.19,2.56,2,5.19,2.19,17.66-7.74,45.58-.95,66.52-5,1.18,3.82,5.65,1.78,5.13-.05,5.81,1.1,6.73,2.67,9.07,4.41,5.22-5.05,20.92.32,28.13-3.21,7.94,4.45,25.81-.84,34.61-.27-1-.15-1.5-.61-1.3-1.49,4.53-.35,7.27-1.2,10.26.67-3,1.84-2.4-1.08-6.42-.69,9.3,5.24,24,1,37.23,2.68,2-1.1,5-1.61,7.63-2.3,2.44,2.08,9.57,1.35,15.44,1.38.93-2.17,3.08-3.65,8.9-3.06-6.66-5.09-18.72-3.65-27-2.75,4.44-2.86-2.67-3.33,2.47-5.23,3.74,4.11,24.15,1,29.53,2-2.45-.29-5.53-.22-5.16-2.18,3.85-.07,10.93-2.1,14.09-.12-6.43-.48-5,2.67-9,.07A20.15,20.15,0,0,0-8.31,356.3c.92-2.3-4.42-.87-2.64-3.7,1.31,0,1.52-.62,2.56-.77,1.78,2.05,14,.71,10.31,3.64,9.32-1.29,23.21-.78,27,3.51,15.56-1.85,27.8-4.09,43.55-2.57.24,1.11-.41,2.74,1.34,3,1-1.65,4.44-1.89,6.35-3,.42,2.59,3.47-.1,3.88,1.46-1.8.2-1.44,1.64-2.52,2.25a13.25,13.25,0,0,1,6.41.7c.93-2.31-4.42-.88-2.63-3.7,3.19.08,4-1.21,6.4-1.54,5,2.72,12.71-2.18,21.82.6-.4,1-1.81,1.42-1.25,3,4.71-.27,4.48-3.35,8.93-3.79-.3,1.08-2.09,1.29-2.54,2.25,6.33-5.44,21.61.45,25.68.57-1.4-.17-3.11-1.2-1.32-1.48,20.74,1.29,38.48-.45,57.73-.42.14.84-1.84,1.18,0,1.49,8.71-.69,53.1-9.33,44.91-.32,1,.16,2.52,0,2.56.72-1.5.13-3.64-.09-3.83.77,4,1.15,11.3-1.16,16.66-1.6,1.29,1,2.14,2.23,3.89,2.94,9.45-5.28,16,2.81,25.65.58.42,1.94-5,.61-3.79,3,13.1-6.18,35.37-1.11,53.82-3.36.43,2-7.2-.65-5.1,2.27,13.33-2.16,38.38.27,55.15-1.86-3.9,2.29,4.75,1,5.17,2.94-11.23,5.05-23.31.6-38.44,4.72.73,1.07-1.44,3.86,1.35,3.71,4.06-6.94,20-2.89,30.72-5.4.57,1.16,4,.6,2.6,2.95,9.93-4.36,29.63-3.42,44.9-1,3.77-3.29,12.57.42,19.22-1.61-2.78,1.12-2,4.28-6.37,4.51-1.52-1.95,3.93-3.24-1.31-3-1.62,5.47-18.3,1.9-21.76,3.86,3.31.16-1.75,1.29,0,3,5.49-2.08,10.47.09,15.36-2.32,2.89,2.24,13.59,4.4,7.69-.06,4.44,4.3,14.71.79,19.32,4.34-14-.5-19.05,2.92-29.47,3.16,6.07,2.54,9.51,1.09,15.41,1.39a2.75,2.75,0,0,1-1.25,2.24c18.57.3,31-.55,44.95,4.17.18-.87-.26-2.11,1.25-2.23,8.25,3,23.57,1.61,32.09,1.27-1.57-.08-3-.21-2.6-1.47,5.63-.07,12.32-.77,12.86,2.15,3-.29,1.18-3.26,5.1-3,4,1.63,5.77,4.57,10.33,5.88-4.07-2.87,17.34-4.52,11.55.67,8,.44,12.35-1.8,18,2.11,2.36-1.37,4.29-3,7.65-3.77-.92-7.12,1.78-8,1.14-13.4-6.82,1.63-11.82,2.55-14.13-2.14-1.42,2-11.72,2-14.12.09-8.7,4.75-20.78-1.53-34.64-.51.69-3.6-4.29-.85-6.46-3.68,4.62-.32,8.59-1,12.82-1.57-1.82,2.32.23,2.88,2.61,4.44,1.75-2.2,8.3-1.69,10.26-.06,1.49-3.13-5.42-1.29-6.43-2.94,4.94-1.11,10.92-1.64,15.35-3.08,2.5,4.14,12,3.83,18,2.12,2.56,1.72,2.55,2,0,3.72,11.83-3.33,26.42-2.39,34.65.52,3.36-5.46,13.76,1.62,18-.11a6,6,0,0,1-3.87-2.21c3.93.51,3.76-1.3,7.69-.78-.27,2.9,4.8,2.65,7.73,3.66,1.22-1.39-3.86-2.46,0-3,10.85.74,15,1.32,23.11-.89,1.13,2.43.08,4.55,7.74,4.42a3,3,0,0,1,1.25-3c-3.2-.95-5.31,2.22-6.4,0,7.47-1.5,12.9,3.32,19.22-1.61,1.88.64,5,.56,3.88,2.95-2.47-.29-1.05-2.87-5.15-2.19,1.61,3.44-5,3.51-9,3.77,8.35.25,13.39,8.28,16.73,2.87,12.71,1.73,21.31,4.73,34.7,7.23-.29,1.07-2.09,1.28-2.54,2.25,6.78,1.51,10.81-3.86,11.56.67-6.27.13-13.77-.46-16.67,1.59,2.38.09,4.29.47,5.15,1.46-5.66-1.72-1.17,2.88-11.53,1.55,1.06,2.84-3.73,2.32-3.82,4.5,3.08,1.17,8.55.95,10.3,2.91-10,2.23-16.09,1.73-21.83-1.36,1.87-.42,6.63.83,6.42-.78-7.09.45,4.49-2.67-2.59-2.22-3.79,3.08-8.34,3.21-12.79,4.54,2.57-3-5.82,2-7.72-2.18-2.2.72-2.55,2.49-5.1,3-10-4.68-29.46-4-39.82-5,1.91.86,5.75.6,5.16,2.93-1.28,0-1.52.62-2.56.77-4-3.31-12.53.46-14.15-3.64-6.6.11-6.33.8-10.26-.68-1.14,1.65.7,3.47-6.38,3,.35-1.51,3.44-1.47,3.82-3-10.12-.24-28.4,2.65-34.66-1.27-16.59,11.56-42.95-4.29-56.38,4.1,0-1-2.25-.67-2.58-1.48q5,.65,3.82-2.26c-6.5.28-6.29,0-15.41-1.38,1.95,4.09,11.9,3.46,15.46,6.59-2.72,1.4-9.38.57-14.1.84,1.69,2.16,13.22,2.15,16.71,2.12.16,0,.66-2.41,2.53-2.24s3.32,2.06,5.16,2.2c8.58.66,21.07-3.16,25.66,1.32-4.53-.39-6.6.67-7.67,2.27,21.44-1.79,34.65.33,59-.38,0,.74-1,.9-1.25,1.5,8.32-1.73,17.54,1,26.9-2.41-.29,1.07-2.1,1.28-2.55,2.26a92.65,92.65,0,0,0,14.09-3.06c-2.69,1.8,4.3,2.44,5.16,4.42-.23-1.61,1-2.36,3.84-2.25,2.85,1-1.6,1.83,1.3,2.23,6.59-.93,14.09-1.34,19.22-3.1.08,1.36-6.56,2.56-2.54,3.74,8-3.9,29.63,1.36,37.23,2-3.8-.88,4-2.39,5.11-.78,1.7-1.87-5.09-2.29-1.3-3,1.75,2.91,10.2.74,11.56,2.16,2,2.63-4.34.47-3.82,2.26a94.82,94.82,0,0,0,18,3.61c-12,3.31-35.72-2.4-52.54,3.29,1.09,1.75,5.61-.65,7.68-.79.9,4.9,4.44.38,7.72,2.19-3.18,6-13.77-.32-19.24,1.61,1.57.07,3.05.19,2.59,1.47-1.29,0-1.52.61-2.56.75-8-.43-22.23-3.07-23.07.89-6.27-.31-11.21-5.34-16.71-3.61,6.66,1.3,12.83,2.91,15.46,6.59-.09,1-9.22.51-5.11,1.52,9.31-2.46,12.79-2.08,21.78-2.36-1-1.19-6.29.21-5.16-2.2,3.88.21,10-.88,10.28,1.42-3.72,1.22,2,3.9,2.58,2.22-3.48-.65,1-2.75,2.53-3,.26,1.1,3.12.66,5.15.71a3,3,0,0,0,1.3,3c4,.06,6.13-.94,9-1.53,16.45,4,39.46-4.14,55.13-1.82-.79,0-1.53.11-1.27.75,2.71-3.28,10.65-.79,10.22-3,1.47.7,8.48,1.89,9,.69-.79-1.29-6.09.09-6.42-1.45.25-.84,1.41-1.17,2.53-1.5,3.38,2,4,1,7.71-.05l3.85,2.2c8-1.15,11.47-.92,19.24-1.6a2.77,2.77,0,0,1-1.25,2.24c3.4-.77,6.51-.82,9,.7a27,27,0,0,0-8.94,3.76c5.61-1.23,14.67-.5,16.62-3.82-2.27-.42-5.29,2.21-6.4,0a43.27,43.27,0,0,0,10.24-3c-.16,1.32,1.29,1.72,3.85,1.44-2.82,1.9,1.51,4.1,3.9,5.19.83-2.72-2.8-2.83-2.62-5.19,6,.6,1.33-1.17,3.86-1.51,6.54-.37,7.29,2.66,12.84,2.9-1.5,2.36-6.64,2.63-9,4.51,7.23.43,7.89-2.89,14.09-3.05-.14,1.86-2.43,2.33,1.29,3,8.08-4.64,24.52-3.21,34.61-3.92-1.72-1.82-3.86,1.37-5.13-.71.33-1.05,2.8-.86,3.83-1.52.73,1.81,5,1.57,3.89,4.45,7.19-2.69,15-.48,24.35-1.62,1.21,1.09,3.16,5.53,6.45,2.94-1.57-.09-3-.21-2.58-1.49,5.4-.73,9.19-.76,17.94-.83.87,5.21,11.42,4.74,16.74,7.34,2.82-1.08-1.63-1.81,1.26-2.24,13.16,3.58,21.16,3.18,38.52,5-8.39,1.24,8,1,2.58,3,5.65-1.64,15.84-2.84,19.22-1.6-2.06.54-2.1-3.5,0-3,2.62,1.31.38,2.75,5.14,1.46-.75,2.68.5,4.2,3.88,4.44,1.78-.46.17-2.86,2.55-3,4,1.17,5,.61,7.7,1.44A5.91,5.91,0,0,0,1029,441c4.26-.53,2.07,1.52,1.28,2.22,4,.66,7.85,1.37,10.28,2.92,0-3.65-3.28-5.48,0-8.18-4-.36-3.56-3.38-5.15-5.18,18.93-.5,44,2.26,60.32,7.84-2.47,2.41-2.43,4.61,1.33,6.69,7.62-14.11,32.27,2,48.72-4,1.76-4.14-1.11-4.55-1.34-8.93,10.09.6,12.37-3.3,16.65-6,7.61-1.37,10.86-.67,19.23-1.6.15.92.39,1.76,2.57,1.48,3.49-.7-3.42-1.36-1.3-3.71,8.73-.54,10.86-7.63,19.21-6.05-2.56-4.06,0-6.52,1.24-8.2,0,1,3.58.93,3.86,0-2.06-.22.1-1,2.56-.75-2.73,1.2,6.44,5.59,7.71,2.19-4.56-1.43-12.64-2.66-9-6.65-4.55.42-6.61-.61-7.72-2.19a29.75,29.75,0,0,1,5.12-3c-1.15-1.56-3.56-2.38-5.15-3.69,5.75-2.33,20.36-4.52,27,.6,5.12-1,10.76-7.51,15.39-2.32-1.76.24-5.92,1.54-7.69,3.76,5.1,0,11.67-4.68,15.4-.82-10.58,4.92-27.42,7.81-42.32,6.18,9.38,4.09,27,.69,39.77-2.45,5.39,1.71,17.48.82,24.37-1.61,3,.49,3.44,2.46,6.42,2.94,9.69-.28,31.67-7.39,30.8,1.33,4.57,1.14.76-2.53,3.83-2.25,2.25.68,4.47,1.36,3.88,3.71-12.49,6.69-30.21,10.4-43.56,16.59,3.52,1.9,8.77,2.8,9,6.64,28.49.07,38.83-17.86,67.94-17.45-4.25-6.95,7.77-10,1.21-16.38a11.21,11.21,0,0,0,5.14-.77c-1.41-5.94-3.59-10.07,2.52-14.14,0-1.24-3.55-.4-3.86-1.47,4.33,0,3.46-3,5.13-4.49-.79-1-4.93-.09-5.15-1.46-5.34-16.46-13.24-24.73-24.51-42.3-10.1-3.51-14.57-10.35-24.43-14,3.19-3-6.16-6.31-2.62-9.67-2.92.24-4.82-.15-5.13-1.45,2.92.19,4.82-.21,5.13-1.52-6.25.67-2.4-3.43-2.59-3.71-3.62-5.74-14.19-10.36-16.74-17,13.76-2.78,27,6.8,38.53,2.78,4.58,2.05,12,2.45,12.87,6.64-4.06.15-7.66.55-7.68,3a110,110,0,0,0,30.82,5.79c1.86,6.62,18.62,4.52,28.28,6.56,0,1.48-3.5,1-2.57,3,13.75-1.14,31,.27,45,2.75,5.08,8.64,33.94,6.71,34.7,15.46,6.16.87,12.87,1.41,15.41,4.39-1.75,3.7-6.37,5.75-5.1,11.18,3.31,4,14,3.7,19.24,6.6.41-2.76,8.19-5.17,12.84-3-.88,1.48-3.9,1.72-5.14,3,5,4.43,3.82,8.12,7.73,12.61,4.25-.27,10.73-1.28,11.55,2.18-2.29.45-5.34-2.16-6.43,0,4.1.09,3.82,2.74,7.72,2.95,0-5,5.1-.23,7.7,0,3.68-1.69-.62-3.66,2.55-6,16.06-.6,27.45,13.66,38.5,6.52-1.65-1-5.58-.7-9-.7-8.34-6.29-19.53-10.91-30.81-15.48.4-1,1.82-1.43,1.28-3-4.44.43-6.84,2-11.55,2.29-1.75-1.46-3.56-2.87-9-2.18,5.25-3.44-3.93-3.22-3.86-6,4.17-1.11,3.64-1.43,2.58-4.46,2.55,0,1.61-2.05,5.13-1.52,11.49,1.72,24.72,4.17,39.78,4.28-5.51-5-18.08-5.8-27-8.81,1.87-6.63-2.87-8.62-10.28-13.34-4.16-.9-1,2.42-5.14,1.51-3.75-7.48-15.9-13.18-12.86-22.26,15.93.48,15.77-8.29,32.1-7.59.25-3.33,5.14-4,6.41-6.72-.39-1.52-2.58-2-3.86-3,.86-2,3.87-2.75,6.43-3.75,4.12-9.86-12.7-7.47-12.87-14.82,11.23-2,27.76-.93,36-4.64-5-.6-7-5.57-2.56-7.43-7.07-2.33-7.91-8.28-15.43-10.34-12.74,3.78-12.14,12.28-27,15.75-8.29-11.84-46.13-10.1-57.84-12.37,1.62.3,2.63.94,2.58,2.21-6.22.66-9.09-.64-12.86-1.42.91,3-6.38,1.29-7.7,3,1.89.64,4.07,1.09,3.86,2.95-20.07-.3-31.16,4.31-51.39,5.46-.19.88.23,2.12-1.28,2.24-27.3-.59-45.5,3.19-70.66,4.82-.18.88.24,2.11-1.27,2.24-5.29-1.33-12.11-1.22-15.41-1.42,1,.16,1.48.62,1.27,1.48-19.86-1.1-46.12,3.06-50.13-7.92,1.84.83,3.14.79,3.85-.77-3.7-1.11-10.29-3.48-6.46-6.66-6.56.94-10.93-3.43-7.72-5.9-.43-1-1.84-1.41-1.31-3-4.12-.6-2.66-.62-5.13.78a2.8,2.8,0,0,0-1.29-2.23c2-.08,4.46.08,3.84-1.51-8.69.69-1.76-3.33-5.16-5.18-4.91.41-3.14,4.64-10.26,3.78,3-1.67-.45-2.9,0-5.22.78.22,5,1.83,5.13,0-3.3-.05-2.07-2.75-3.86-3.69a11.49,11.49,0,0,0-5.14.77c4.67-2.72-6.66.11-3.86-3.69,8.51,1.93,15.72.6,24.39-.88,3.35,5,18.53,3.08,21.89,8.06a10.7,10.7,0,0,0-3.84,1.52c2.83.56,3.22,2.58,5.14,3.69,14-1.05,15.84,11,30.89,11.75.3-4,6.79-4.2,12.85-3.05,0-3.72,4.13-2.82,9-2.27-2.85-7,11.12-7.8,6.38-13.43,1.71,1,4.78,1,5.14-.77-1-1.18-6.29.2-5.15-2.21.23-1.1,3.09-.69,5.13-.77-.7-7.79-15.59-7.28-20.6-12.54,20.19-4.34,29.71,6.47,46.29,4.24v3c15.53,2.58,15.24-9.74,28.25-8.33,6.69-4.59,15.56-7.93,27-9.8-1.14-.94,8.07-2.28,9-4.51,21.39-.14.26-14.05,3.81-18.62-4.09-2.82-9.66-4.78-11.6-8.87,4.76-.11,3.73-1.38,1.28-2.24l5.15,0c-.33-4.67,4.28-4.88-1.3-7.43-12.67,2.25-24.23-.91-29.59-7.3,2-.07,1-1.91,3.85-1.5,1.1-3.39-6.43-1.71-6.45-4.43,8.84,1,9.85,6.65,18,8.09-1-2.1,1.82-1.94,1.3-3.73-2.44-.16-2.84.85-5.14.77,2.52-1.46-2.59-2.27-2.59-4.46-5.56.14-4.75-1.19-10.29-2.18-.52,1.27-7.55,2.53-9,.79,8.08.25-2.11-2,3.85-3-11-1.14-14.23-3.14-20.6-2.86,4.26-1,7.4-2.72,7.7-6-3.45.52-2.48-1.54-3.86-2.22-16.37-1.42-23-8.92-42.48-10.21,5.11-4.1,16.85-1.7,29.57-3.12,2.1-2.27,5.65-3.7,5.13-7.47-13.87.7-31.36-5.16-46.33-.51-8.61-4.58-28.83,2.57-43.76,1-5.86-.63-19.88-.29-23.13,4.59-18.22-.31-37.37,2.12-60.47,2.54-1.52-1.93,4-3.22-1.3-3-6.6,3.91-21.71,1.6-28.28,3.87,21.78.47,41.21,2,63.06,1.91.3,1,2.12,1.24,2.57,2.22-13.87-1.48-32.3,9.64-29.58,3.88-1.3.95-6.82-1.94-11.59-1.44-3.13,6.66-13.35,0-21.85.86.4,2-5,.62-3.86,3,.41,2.25,5,2.06,5.18,4.44-7.87,5.2-16.36,1.74-28.29,2.38-.51-1.06-1.56-1.26,0-2.23-3.07.54-12.26,2.21-11.59-1.44,6.38-1.47,2.26.28,6.43.71,2.6-2.71-.18-4.21-3.87-5.19,3.88-1.47,3.62-5.33,9-6-2.42-.09-4.32-.47-5.17-1.47.94-1.68,4.9-1.65,5.13-3.74-4.77.91-10.76.38-16.74-1.4.08,4-8,2.62-10.29,2.29,1.61-2.11,5.28-2.49,9-1.54-2.4-3.36,5.12-1,3.86-3.74-5.13-1.09-19.19,8.23-25.73,1.62,11.53,1.15,13.72-3,20.56-4.57,4-9.89-11.42-6.88-19.37-10.3-11,1.06-27.54-3.12-36-.55,4,.87,12.81-.5,14.17,3.64-2.69,3.71-7.61-1.81-9,1.54,5.68,1,8.07-.79,10.31,2.18-1.69,0-1.16,1.3-2.55,1.49-5.21-.86-11.12-3-10.35-5.15.43,2.33-3.71-1.87-3.84.77,1.9.62,1.88,2.38,2.59,3.71,6.33-.22,10.45.86,11.62,3.65-9.41,4-17-.25-24.43,4.6-1.11-1.64-9.27-3-11.59-1.42,2.3-.11,3,.72,2.58,2.22-18.72-3.08-29.51-2.62-46.34-3.46,4.65-2.22,7.29-1.11,12.86-2.31-2.63-1.21-6.68-1.57-7.76-3.67,4.32-1.58,7.88-2.9,7.69-5.26,7.11-.6,11.66-3.32,19.31-1.59-2.78-3.23-8.76-1.46-12.89-.67,0-.75-1-.89-1.3-1.48,6.16-4,3.4-7.28,1.21-13.4,26.47-4,48.27,4.76,74.65.32,9.49.69,19.39,4.74,33.49,3.54-.51,1.79,2.36,1.6,1.31,3.71,11.35-1.85,21.91.37,29.61,2.82,1.18-5.1,10.89,1.59,15.45-.83.5,1.06,1.54,1.26,0,2.24,9.82-4.75,16.43,4.7,28.33,2.08-5.5-.51,4.73-4.07-5.17-3.7-1.74,1.71,3.33,2.79,0,3,.33-4.53-10.32-3.54-14.2-7.37-7.17,4.19-14.39.21-24.46.13-1-1.45-3.27-6-6.45-3.68,5.24-.4-1,2.63-1.27,3.72-7.4.1-14.11-2.23-20.59-2.86,2.3-3.47,2.08-2.32,7.7-1.53-.13-2.78-1.46-2.11,0-4.48-5.93-.9-6.24,1.39-9,2.28,1.81-5-14.79-1.83-19.34-4.35.25,1.62-1,2.37-3.84,2.24.49-1.06,1.54-1.26,0-2.23-24.64.27-47.14,2.84-69.5,1.15-7.5,2.51-29.45,4.78-28.35-2.83-26.89-3.86-54.42-.47-83.7-2.51-9.72,3.73-21.95,3-30.88,1.67,1.33.2-2.7,1.73-5.15.77-9.09-3.57,6.52-5.42,14.13-5.29-6.67.34-.07-4.91,1.25-6.7,14.39-2,26.06-1.86,38.59-3.94,3.33.28,3.89,2.2,7.74,2.19,5.41-3,11.39,1.37,18,.64,3.79-.42,6.5-3.65,10.28-3.78,4.19-.13,8,3,11.61,2.92,2.15,0,5.88-1.35,7.71-1.53-.2,0-.88,1.48-1.28,1.49,3.86,0,5.72-2.11,9-2.28.59,0,1,2.13,1.31,2.23,4.68,1.23,10.36-2.73,15.43-3.07,3.73,2.13-4.33,3.42,1.31,3.71.32-2.53,5.79-2.14,7.71-3.76,3.66,4.1,14.5-.43,12.89,3.64,8.74-1.41,24.12-3.29,32.17-3.15-1.49-.12-1.41-1.16-1.31-2.23,9.67,0,12.82-.06,18-1.59,0,.76-1,.9-1.28,1.5,14.53-.52,27-1.08,36.06-.2,1.28-1,2.11-2.25,3.84-3,3.24,1.92,4.07,1.07,6.44-.77,2.59,1.36,1.53,4.35,5.17,2.94-4.4-2.08,5.06-2.5,7.7-3,0,1.48,3.52.93,2.6,3,.39,1.72-3.72.85-3.86,2.26,8.48-.26,8.42-2.47,9-6-3.07-1.18-8.25-1.14-11.6-2.17-2.39,4.25-16.24,1.75-19.31.1,1.7,0,1.16-1.31,2.57-1.49.21.87-.22,2.1,1.3,2.22,7.48-4.64,15.51-2.1,25.73-1.64-3-2.91,2.43-2.27,2.56-5.21-10.17.07-20.42.39-29.63.15,4.07,1.43-3.76,2.23-5.13,3-2.49-1.07-9.78-3.17-11.6-2.16,1.51.11,1.41,1.16,1.3,2.23-5.41-3.29-13.25-1.89-20.61-2.87,8.08.36,4.34-1.43,10.29-2.28-5.65-1-8.82-1.92-12.88.81l0-2.24c-12.09,2.54-30.9-2.25-46.34.27-.2-.88.2-2.12-1.31-2.23-13.47,2.84-33.22-2.07-39.92,1-.53-2.78,5.85-3.87,9-2.29-.9-5.14-8.3-1.14-11.59-.67.19,0-.24-1.46,0-1.49-5.12.83-7.39,4.16-12.86,4.54-7,.48-9-3.4-18-2.14,2.74,3.49-9.49.27-12.86,2.31,13.88.31-15.5,3.59-15.47-1.41,4.27.22,4.85-1.67,7.72-2.26-7.07.33-3.75-.75-5.18-3.7-5.71.85-6.42-1.23-10.32-1.43.62,2.38,5.79,2.09,7.75,3.67a9.29,9.29,0,0,0-3.84.78c-3-.9-5-4.62-7.76-1.45a3,3,0,0,0-1.31-3c20.73-1.85,28.31-3.07,47.65-.27,11.6-2.32,23.88,2.4,36.07-1.69.13,1.4,4.25.49,3.86,2.21,16-2.25,33.23,5.38,46.38-.27-3.65-.09-8.84.7-9-1.42,4,.19,22.11-2.51,18,2.87a40.52,40.52,0,0,1,10.29-.8c2-3.15-6.66-.08-6.45-2.19,5.82-.38,18.8-1.89,23.19,2.09,23.5-.27,41.29-1.4,56.68,2.67.78-3.85,2.56,1.73,5.16,1.46,3.29-1-1.21-3.63,1.27-3.72,1.29,0,1.53-.61,2.58-.75,5-.68,4.58,1.79,7.72,2.18,1.58-2.07,7.92-1.41,12.88-1.55,1,5.6,10.32,2,15.46,2.15,21.09.67,49,3.09,65.7,2.63-13.12-2.06-17.5-.2-28.35-3.56-15.34,3.06-34.71-1.24-51.51-.48.18-1.86-2-2.29-2.6-3.7,1.52-1.12,4.87-1.19,6.43-2.28-5-1.56-18.7,3.1-27-1.34-.73,2.46-4.87,1.09-7.73.78-4.16,5.09-23.55,4.91-30.89,3.89.28-1.4,11.7-.15,7.73-1.53-3.85,0-7.85.1-7.76-2.2,2.27-.43,7.58.87,7.75-.78-4.12-1.07-12.51.34-10.34-4.41-5.42-.53,1.75,2.83-3.84,3-.29-.57-1.09-.85-2.6-.72-1.66-3.42,2.34-3.62,3.85-5.24-5.78-1.95-6.11,1.12-6.43,2.27-4-2,3.36-2.84,0-4.46a62.72,62.72,0,0,0-14.16-1.41,3.49,3.49,0,0,1,2.58,1.47c-2.29-.43-5.33,2.21-6.44,0,1.51-.12,3.66.11,3.86-.77-7.19-2-18.91-.12-23.21-3.58-3.14,1,2.34,2.22-1.27,3-7.38,1.09-6.68-2.56-11.62-2.9-.69,1.09,1.54,3.83-1.25,3.72-4.56-.32-12.42,1.29-11.62-2.16,1.37-.55,9.81-.72,6.44-1.53-7.25,1.48-12.31-.14-15.44,3.06-5.19-.86.91-4-3.89-4.43-1.78.45-.18,2.86-2.56,3-1.73-1.34-15.32-4.41-9-1.43-5.45-.66-6.51-.54-14.17-.66-.22,1.1.47,2.73-1.27,3-21.58-2.62-40.21.88-59.27-1.17-.49,1.29,1.93,1.91,0,2.24-7.23-1.14-13.14-2.16-18,.84a2.74,2.74,0,0,1,1.28-2.23c-5.28,1.38-12.07-.24-16.76-1.39,3.53-3,10.16-.47,11.55-5.28-8.91.48-12.8,6.66-23.15,5.34-1.75,1.71,3.34,2.77,0,3-3.93-.91-5-.54-7.73.79.07-2.53-3.8-2.75-6.47-3.68-10.25,2.83-20.13-2.17-29.61,2.4-20.51-1.92-50.53-1.09-67,1.9-1.17-1.81-7.21-.77-6.48-3.68-7.34,2.76-11.48-1.79-16.74,1.58,1.58.08,3.06.21,2.59,1.47-3.07.65-3.41.5-9,.81-.13-1.17.16-2.58-2.6-2.22-4.11,4.83-14.45.13-20.61-.62-.38,1.47,1.76,1.47,2.6,2.21-5,.42-14.33,1-15.48-2.88,3.27-.82,4.52,3.17,6.44.71-1.81-.19-1.48-1.63-2.6-2.21-14,4.34-33.41,3.06-42.49,2.48-3.34-.21-4.94,2.33-6.42,2.28-4-.15-7.23-3.43-14.18-2.16,1.29-.24-1.81-.05-5.16,0-1.28,0-14.75,1.68-18-1.37-.56-1.87,10-1.11,6.41-2.27-4.63.29-6.2,1.17-10.31.06,1,3.84-6.71,3.14-9,1.54,4.07-1.13,9.86-1.3,11.55-3.79-8,1.24-22.9,4.56-21.92-2.1,0,.76-2.25.95-2.58,0,5.22-1.87,3.12-3.47,7.67-5.25-16.55,6.52-30.11-3.9-45,5.51-.31-1.42,1.43-1.65,1.25-3-4,0-3.65,2.36-9,1.55.27-1.41-1.47-1.64-1.33-3-3.35.31-7.07.43-9,1.55,5.72-.37,8.18,1.18,9.08,3.66-8.6-1.07-12.77,2.34-20.64-1.35,5.16.7,3.85-2.26,9-1.55-1.29-1.75-.49-4.71-5.22-4.43-.21,1.1.5,2.74-1.25,3,.82-3.37-16-4.3-23.25-4.31-1.35,2.79,3.22,2.09,2.64,4.44-1.53-.83-4.57-.81-7.76-.68,2.68-1.84,1.83-1.6,1.25-4.48-4.15-.63-1.75,2.46-5.13,2.27.12-2.83-6.81-1.5-7.78-3.67C500.05,4,498.4,1.91,499.2,0c-4.89,2.07-6.82,1.37-10.26,3.78-2.17-1.46.1-.95,0-3-5.52.81-5,.46-9-.68-2,.85-3.12,2.16-5.1,3-2.32-1.5-5.25-.46-1.32-2.22C459.24-.49,454.58,8,447.72,6.28,447,11.77,441,9.66,436.14,7.84c-1.73,1.71,3.37,2.77.05,3-3.59-1.63-6.56-1.38-11.61-.67-1.13-2.36,2-2.31,2.53-3.73-2.85,1.25-7-.12-7.71.79a6.1,6.1,0,0,1,3.9,2.21c-3,0-3.79,1.31-7.73.79l0-2.24c-10.85,4.16-26.12.53-30.86,3.93-4.14.69-2.71-1.91-5.19-2.2a2.77,2.77,0,0,0,1.3,2.23c-3.16,1.72-18.39-3.9-10.3.06-6.1-.27-8-3.17-11.61-1.41,3,.2,3,2,0,2.23,1.83-1.1,1-2.36-2.61-2.21-1.21,1.29-4,1.65-6.42,2.27,3.45-2-5.95-1.3-7.74-.68,1,.15,2.54,0,2.59.72-2.58.33-9.53,1.91-11.6.08.77-1,5-.14,5.14-1.52-4.38-1.29-5.73,1-10.3,1.56-2-4.43-12.8,3.42-14.2-2.13C324.13,13.69,330.71,4.11,337,10c.19-4.21,4.54-1.71,10.27-3.06-1.52-2.33,2-1.82,2.52-3-5.95-.55-3.66.85-5.12,1.52-1.22-.78-4.76-.2-3.9-2.2,1.52-.13,3.66.09,3.86-.78-5.31.63-8-.27-9.05-2.16-6.74,1.77-11.5-.3-25.79.93-2.39,1.32,1.8,2.29-2.53,3C290.4,1,275.14,7.63,262.12,6.06c-2.61,2.27,2.44,4.27-3.8,4.49C255.11,9.53,256,8,257,6.1c-11.79,3-19.48-1.42-32.24-.52-5.24,6.36-23,.34-30.86,5.43,6-1.08,13.66-1.17,16.78,1.36-4.8,2.75-19.91,3.69-18.07-1.35-7,2.7-13.14-3-15.45,1.6C175.6,7.92,161,8.2,152.59,9.82c1.24-.24-1.92-.83-5.17-.71-17.06.67-38.08-.3-54.08,3.37-.16-1.17.12-2.59-2.63-2.22-.11,1.9-.17,3.83-3.8,3.75-.85-1.62,3.6-2.39-1.32-2.23a5.46,5.46,0,0,1-6.43.8c-2.84,1.08,1.64,1.8-1.25,2.24-2.41-.09-4.32-.46-5.18-1.45.09-1.18,3.27-.61,2.53-2.26-4.7,1.65-5.83,1-11.56,2.33-.19,2.55,4.35-.1,5.2,2.93-27.58,9.6-61,7.23-90.1,8.9-1.45-1.9,8-1.26,3.83-2.27-12.43,2.09-15.11,4.42-24.49.93-4.74.05-4.89,2.66-7.68,3.8-4.58-1.84-17.91,3.45-23.22-1.31-.69,2.74-6.34-.23-9,2.3-.2-2.74-2.42-2.14-3.87-.71-.67-4.28-7.13-1-9.11-3.65-2,2.53-5.72,2-10.3.82-2.84,1.1,1.65,1.8-1.25,2.25-6.35-1.71-15.71,2.23-19.39-2.83-3.5,3.49-20.73,2.5-24.53-.54-.88,4.21-15.43,3.49-15.44,1.59A113.14,113.14,0,0,1-181,31c.63-1.11,1.87-1.89,2.49-3-23.75-.64-42.57,3.76-72.23.61.1,1.28-.94,1.92-2.54,2.26-8.89-5.58-29.32,4.78-29.78-4.21-6.54.06-.49,2.62-5.05,3.77-14.79-.65-25.39,1.92-33.59-1.2-8,2.13-11.8,1.37-21.86,3.16-.44-1.69,3.7-.85,3.82-2.25-12.39.5-18.81,2.49-28.43-1.24.58,3.5-6.77,2.56-7.6,5.28,7.05.18,15.9.23,19.46,4.28-5.55,1.48-8.05-2.68-10.33-.64,12.71,4.89,19.86-.83,34.83-.31A2.69,2.69,0,0,1-333,39.74c5.07,1.3,10.79-.57,15.44-1.62,24.61,4.61,54.08-4.21,77.46,1.55,7.53-3.44,21.44-3.25,33.45-4-2,3.53-14.81,1-16.65,4.61,6.36,0,32-2.45,28.42,2.73,0-2-.81-4.37,2.49-4.48,3.5-.56,2.63,1.46,5.18,1.45,2.29-4.19,23.61-2,30.9-1.73-1-.16-1.51-.62-1.32-1.48,2.41,1.39,10.9-2.83,15.46-.12-2.92-.18-4.83.22-5.1,1.52,5.34,2.65,4.34-3,10.26-2.31.43,1.72-3.7.86-3.83,2.26,10.87-1.08,30.33.46,40-1.06,1.54-2.41-4.19-.53-2.64-2.95,1.87.39,6.64-.93,6.46.7-.28,1.06-2.11,1.26-2.54,2.24,19.83.25,39.08-1.35,63.17-.49,3.28,3.43,18.79-.86,25.79-.2,9.21.86,24.36-1,37.35-1.78,20.69-1.21,41.89,1.18,59.26-2.7.15,1.17-.14,2.59,2.62,2.22.2-1.12-.52-2.74,1.24-3,5.94.49,10.33,1.91,12.94,4.37a20.06,20.06,0,0,1,5.11-3.75c-2.28-.19-6.4,2.14-7.73.06,2.44-.34,2.29-2.15,6.4-1.54,5.35,4.71,2.35,1.62,10.38,2.91-2.22,0-3.31.59-3.86,1.51,5.86-2.38,15,1.59,20.6-.89-6.72-1.17-8.82-.41-14.19-2.14,6.69-.56,8.25-.08,14.14-1.59,1.26,1.38-3.83,2.52,0,3,6-3.17,16.15,4.94,24.53,1.31-2.6.66-7.12-1.11-3.88-1.45,3.19-.14,4,1.14,6.46,1.43,4.87-5.12,14.33-.55,20.56-3.11,3.23,1,3.1,2.08,3.93,2.93,2.12-2.49,14.05-3.33,16.69-3.09.67,2.34-5.9.6-6.39,2.28,12.93-.58,17.22-3.17,23.11-4.63,3-.24,1.46,2.13,3.91,2.21-2.15-3.23,7.59-4,14.1-4.57-.41,2.63,0,3.84-1.23,4.47-1.38-.84-5.93-.23-7.72.81,3.72,1.43-3.77,2.71-3.78,4.49-2.69-.4-2.75-1.15-1.33-2.22-9.51,1.79-21.4-.08-30.91,1.69.18-.87,2.28-1.69,0-2.22,2,2.62-4.37.49-3.85,2.26,3.72,1.44-2.92,3.19-5.08,3.76,1.42-1.09,1.35-1.82-1.33-2.22-2.87,4.59-9.7-.44-12.85,2.32-3-1.06,2.47-2.38-2.62-2.22l0,3c-4.64.4-18.09.78-21.88.9-3.26-.34,3.66,3.67-2.53,3,.86-3.38-14.23,1.53-15.52-3.6-11.92,2.51-16.82-1-27,2.42-.56-1.26-7.61-2.42-9-.67,2.08-.57,5.63,1.43,2.6,1.46-19-3.25-44.4-1-64.49-2.48a3.45,3.45,0,0,1,2.59,1.47l-5.15,0a2.67,2.67,0,0,1,1.25-2.24c-4.45,1.89-11.18-2.7-14.2-1.39,3.69.84-2.08.88-2.59,0-.83,2.06-.19,1.7-3.81,3,1.93.11,4.76-.31,5.18.7-11,3.15-27.09-.14-38.69-.44-4,1.4,4.4,2.48.08,3.72-4.06-2.69-9.9,3.66-11.6.09,1-1.89,13.23-1.32,7.64-4.52-6.12,2-10.28,6.8-18,3.85,1.26,7.33-16.22,4.13-21.76,7.63C-74,51.74-82.6,49.6-87.7,51.84c9.31.76,17.22,2.35,20.76,6.53-1.51.13-3.67-.1-3.84.78,7.28,1.16,4.53-3.33,11.53-2.33.1-2.82-7.55-1-7.81-3.66,10.3-.47,19.64-.93,27.09.53-4.16-.62-1.73,2.48-5.12,2.28-1.18-.66-7.31-2.09-7.74-.69C-54.56,59.2-69.06,62-77.25,58.45c-3.76,4.26-11.35,0-12.89.1,3.5.65-1,2.75-2.51,3,0-3.41-13.19-2.36-6.44.8-5.31.09-6.39-1.79-6.5-2.92-4,1.64-8.43,3.1-11.48,5.3.12-1.86,2.41-2.35-1.36-3-3.1,1-.76,1.49-2.53,2.26-1-.17-1.52-.62-1.32-1.48-4.56,5.37-15.6-2.41-18,.13,1.57.07,3.06.21,2.61,1.47-5.87-.29-12.2-.3-14.24-2.85-1.88,3.34-4.44-1.2-9-.68-1.71,4.95-23.54,5.63-21.87,1.66-4.34,1.89-7,4.23-12.86,1.58-1.54,3.94,8.73.86,10.38,2.91-3.64,1.86-14.09-.1-18,1.62-3.26-2-5.63-3.45-5.3-5.91-3.44.52-3.8,2.77-6.35,3.78,1.51.1,3.64-.16,3.88.71-4.61,2.78-14.62,1.67-14.25-2.85,3.16.69,4.18-3.38,2.51-3-1.76,3.18-10.25,2.58-12.77,5.32,5.79,1,3.9-2.21,9-1.57,1.68,2.32-1.21,3.06,2.68,4.44-7.82-.35-11.43-.14-16.75.89,0-1.47,3.5-1,2.52-3-4.82-.74-2.49,2.54-5.1,3-2.39-.85-5.87-1-6.52-2.92-10.71,4.08-18.53,2-33.45,2.52-1.75,3.29,7.71,0,7.79,2.17-14.26,4.16-29.3,3.48-43.65,7.08.27-1,2.08-1.27,2.5-2.26-7.71,3.43-13.44-.3-15.39,3.12-18.93-3.43-60.44-.36-77.46-4.53-9.85.19-22.62,4.88-29.67-.48-5,3-17.6-.07-21.84,2.42,2,.16.21,1.22-1.26,1.5-20.48-3-30.43,4.15-54.11,2,.81,3.8,16.47-1.25,14.33,4.32,12.79.41,16.66,2.85,28.45,2.7-1.52.13-3.66-.09-3.85.77,1,.17,2.55,0,2.6.72-5.94-.39-9.85.36-11.54,2.35,9.23-.7,21.29-1.47,29.68,1.23-2.34,3.3-19.17-.25-20.57,1.66,8,1.29,15.2,3,24.58,3.51-4.1,2.38,3.87.24,2.67,3-5.68,2-8.88.21-12.86.85,1.55-.24,4.52,2.11,1.35,2.23-4.1-1-4.32-.13-9,.08-.23-1,5.16-2.3,1.2-3-5,1.93-14.29,5.29-18,1.65-.24,1.42,1.5,1.62,1.38,3-3.18-.06-6.22,0-7.71.83l-.07-2.24c-7.78,1.59-11.48,2.9-15.31,5.35-4.33-.66-19.81-2-21.89,1,6.74,1,16-2.75,20.69,2,17.4-.47,38,.87,48.95-.45,7-.86,17.05,1.11,23.2.54s15.6-2.56,19.37,1.3c-4-1.52-8.7,1.33-12.9-.63-2.84,1.11,1.67,1.81-1.23,2.25-63.57-4.26-133.06,11.64-203.3,9.41.72,6.73-19.22,4.24-25.69,2.49-3.15,4.15-11.58-.28-12.78,3.1,3.2,1.63,12.22-.23,13,2.85-.69,1.32,1.71,4.35-1.13,4.48-15.59,1.52-24.77-4.56-32.24-1.18,8.13-.17,14.71,5.41,27.22,4.94-1.84.12-1.64,6.11.12,3.73-1.53-5.11,6-.93,8.89-3.82,4.43.13,5.68,2.16,6.59,4.41-3.76,3.26-14.45,2.66-19.13,5.39.33,3.12,4.7,4.28,9.11,2.89,19.8,5.66,53-1.62,74.67,0,2.56,0,1.69,2,5.19,1.44,11.38-.88,29.94-5.07,41.21.33,8-1.31,14.64-.46,23.16-.22.41-2,3-2.72,7.66-2.32-2.1,1.5.16.94.1,3-3.35.32-7.06.46-9,1.58,1.65,1,6.8,0,5.23,2.92-8.65,0-11.47,3.35-19.18,3.91,2.47.3,2.39,2.1,6.48,1.43,5.36-4.32,18.94-4,21.58-9.89,2.92.61,4.86,3.82,2.73,5.18,9.94,3.81,24.81,0,34.83,2.64.11,2.75-4.7,2.74-6.31,4.53,9.32.33-1.32,2-1.19,3.73,6.81-2.53,18.88-2.11,28.23-3.23,64.64,8.4,139-1.34,200.76,2.7,18.3-2.05,37.68-2.42,50.09-3.41,7.39-3.42,22.66-5.3,29.52-3.2,4.13-2,23.28-2.11,29.52-2.47-8,0,.44,1,1.35,2.22-10.8.27-18.35-.82-20.51,3.14a11.11,11.11,0,0,1-3.9-1.46c1-.18,2.54,0,2.56-.76-8.48-1,1.9,4.82-5,5.25-1-3.94-9,.81-7.82-4.41,4-.41,5.3,1.71,6.41-.79A186.48,186.48,0,0,0-192.06,168c4.46,2.61,13.41-1,19.3-.16,1.35,1,1.33,2.74,2.65,3.71,6.81,1.76,13-.75,16.78,2.84-17.6,2.63-14-2.36-25.76-2,.72,0,1.47.59,0,.75-8.2.68-12-.5-19.27.89-2.94-1.07-11.83-5.74-11.58.1,5-.7,11.2-1,12.91,2.13,11.08,1.32,17.31-4.49,24.4-1.69-5.54.31-9.59,1.46-11.5,3.82,5.56.43,4.1-3.08,10.24-2.32-.27,1.06-2.09,1.27-2.51,2.25,6-1.44,17-2.79,19.29.59-10.69,1.41-20.28,1.84-28.23,3.21.1-1.05-.35-2.85-1.29-1.49,0,.51,0,1,0,1.49,11.6,3.14,16.57-3.09,24.48,2-5.78-.42-10.92,2.11-15.42.13-2.14,4.06-14.79,4.86-21.77,3.88,17.85,5.2,31.56-3.9,47.46-4.84,1.18,2.67-9,2.72-3.74,5.25,17.6-4.46,41.75,2.2,57.9,1.77-15.24,2.76-28.61,4-41.1,2.56-4-.2,3.32,2.12-1.23,2.24-10.43-2.63-31.5,0-47.51,1.87.48-1.08,1.5-1.27-.06-2.24-7.69,5.48-22.45,1.38-30.78,3.23,1,.16,2.53,0,2.58.73-19.12-1.55-44.83-1.4-62.94,2.77l-.06-3c-19.78,3-49.17,6.48-71.93,2.86.27,1.63-1,2.38-3.8,2.27-55.92-1.51-120.09,6.67-172.14,4.54,2,.05,4.46-.15,3.91,1.45-24.09-3.94-44.9-2-66.89-1.57-2.78-1.09-4-3.14-6.57-4.4.1,3.24,2,1.7,2.74,5.18-10-3.19-23.94-2.82-34.73-1.13l-.08-2.24c-8,3-18.56,4.05-25.65,1.76,1.5.09,1.44,1.15,1.35,2.21-6.63.69-12.2,1.1-12.89-1.36-3.45.72-8,.34-10.36-2.13-4.9.71.28,3.63-2.42,4.48-48.88-3-115.73-1.22-169.6,1.1,44,.48,88.1,1.53,133.61-1.48-.16,2.12,8.37-1,6.49,2.17,24.81-2.79,57.39,3.05,81-.8.24.87-.15,2.11,1.35,2.22-1.12-2.84,2.65-2.91,5-3.78,2.76,3.27,12-.15,18.11,3.54,1.67-3.29,17.43-.09,20.57.55,1.27-1,1.15-2.79,3.78-3,.83,2.74,6.29-.34,9.05,2.15,3.68-3.37,10.52-1.4,16.64-2.4,1.22,4.48,8.92,2.1,15.49,2.08,2.8-1.1-1.67-1.79,1.21-2.25,32.82,1.62,64.44-.56,100.32,2-1,.17-2.54,0-2.55.75,4,.54,2.41-2.05,6.38-1.53-.05,2,2.19,1.48.07,3,6.09-1.56,14.14.07,20.59.55,1.41-2.35-2.05-1.79-2.64-3,3.11.28,2.75-1.38,6.4-.8,0,1.48-3.48,1-2.49,3,6,.94,4.25-2.49,10.23-1.57-.66,3.54,6.51.76,10.37,2.89,2.48-2.77,3-2.82,2.44-4.49,3.51.65,6.1,1.13,7.69-.81l.06,2.23c2.5-.68,12.64-3.63,14.14-.13-5.61-.86-11,3.16-18,.16.69,6,25.33-1.4,29.67,4.21-28.47,1.17-50.21.12-79.68-.05-.47,1.28,2,1.9.07,2.25-2.28-.42-7.52,1-7.74-.69,1.45-1.84,5.4,1.76,5.1-1.53a159.86,159.86,0,0,0-21.82.93c2.56.05,8.33,2,4,3.69-22.81-3.33-50.39-.6-70.7-.81C-553.15,220.5-582.82,219-615,218l0-1.49c-11.9,3.58-22.57-1.42-32,2.56-3.58-.64-7.13-1.3-7.85-3.65-2.25.46-7.58-.82-7.68.83,5.63-.35,8.72.82,9.12,3.63-7.16.39-26.13.13-34.74-1.15-11.91,2.91-30.5.64-41,3.39,7.5,2.14,24.42-3,25.85,4.21-8.15-1.67-14.24,3.46-23.08,1,.41,2.57-2.49,2.56-7.64,1.56-5.79,6-25.5.15-35.82,4.13-3-1.73-7.31-2.7-11.69-3.59-.71,2.39,4.66,1,1.4,2.95,2.27.41,7.49-1,7.72.66-27.68,1.66-47.62,3.72-71.7,4.55.43,7-13.8,1.49-17.84,3.19,5.9,3.37-10.62.75-15.37.92A186.28,186.28,0,0,0-908,245.73c6,3.48,12.85-1.53,20.55.52a4.31,4.31,0,0,1-3.69,3.76c-1.08-1.25-8.61,0-7.59,2.32,7-1.05,10.68.07,16.73,1.3-7.4,2.26-17,6.92-25.55,2.52-5.41,3.36-14.69,1.94-25.51,3.27,2.4,4-9.68,2.95-17.81,3.19-6.18,3.43-.06,5.07-10,6.06,3.34,1.44,5.85-.84,7.72.66-2.38,3.51-4.55,7.13-13.77,6.85.25-1.05,2-1.27,2.45-2.26-6.64.49-14.1,2.53-15.2,3.9-5.93-1.8-4.65.34-8.93.85-6.79.81-17.33-1.76-20.35,2.5,4.8,1.62,11-1.32,12.92,2.8-4.77,2.09-8.49-1.91-8.91.87,3.75,2,16.18-1.24,16.77,2.75l-7.69.1c0,2.25,6.76,2,2.78,4.44,1.84-.44,6.65.78,6.37-.83-2.81.17-4.12-.56-4-2.19,3.27-.1,10.24.3,15.39.57-8.86,4.59-30.13,4.67-40.72,4.24-1,1.4-1.51,3-3.65,3.77,5.93,0,11.82,0,5-1.56,4.79-.39,5.9,1.5,7.81,2.88-9.08,3.67-7.23-.79-15.32.21C-1017.53,299.69-1015.67,301-1019.39,302.9Z"/></clipPath><clipPath id="clip-path-12"><rect class="cls-1" x="-9" width="951.15" height="32.77"/></clipPath></defs><title>paint-top</title><g class="cls-3"><g class="cls-4"><g class="cls-5"><g class="cls-6"><g class="cls-7"><g class="cls-8"><rect class="cls-9" x="-221.68" y="93.4" width="1668.94" height="399.8"/></g></g></g></g></g></g><g class="cls-10"><g class="cls-11"><rect class="cls-9" x="-17.86" y="21.08" width="974.78" height="343.34"/></g></g><g class="cls-12"><g class="cls-13"><g class="cls-5"><g class="cls-14"><g class="cls-15"><g class="cls-16"><rect class="cls-9" x="-1037" y="-8.19" width="2622.02" height="463.7"/></g></g></g></g></g></g></svg>